<svg width="280" height="280" viewBox="0 0 280 280" fill="none" xmlns="http://www.w3.org/2000/svg">
<path d="M0 77.6795C0 68.1869 5.59501 59.5862 14.273 55.739L130.273 4.31229C136.467 1.56631 143.533 1.56631 149.727 4.31229L265.727 55.7389C274.405 59.5862 280 68.1869 280 77.6795V204.831C280 214.471 274.233 223.175 265.356 226.933L149.356 276.039C143.376 278.571 136.624 278.571 130.644 276.039L14.6438 226.933C5.76711 223.175 0 214.471 0 204.831V77.6795Z" fill="#C397DC"/>
<path d="M50 50.5263H40V187.368C40 190.16 41.0536 192.838 42.9289 194.812C44.8043 196.786 47.3478 197.895 50 197.895H180V187.368H50V50.5263Z" fill="#574279"/>
<path d="M180 87.3684H145V97.8947H162.95L125 137.842L103.55 115.211C103.085 114.717 102.532 114.326 101.923 114.058C101.314 113.791 100.66 113.654 100 113.654C99.3399 113.654 98.6864 113.791 98.0771 114.058C97.4678 114.326 96.9148 114.717 96.45 115.211L60 153.632L67.05 161.053L100 126.368L121.45 149C121.915 149.493 122.468 149.885 123.077 150.152C123.686 150.419 124.34 150.557 125 150.557C125.66 150.557 126.314 150.419 126.923 150.152C127.532 149.885 128.085 149.493 128.55 149L170 105.316V124.211H180V87.3684Z" fill="#574279"/>
<path d="M228 224.211L196.5 191.053C194 193.158 191.125 194.825 187.875 196.053C184.625 197.281 181.167 197.895 177.5 197.895C168.417 197.895 160.73 194.582 154.44 187.958C148.15 181.333 145.003 173.242 145 163.684C145 154.123 148.147 146.032 154.44 139.411C160.733 132.789 168.42 129.477 177.5 129.474C186.583 129.474 194.27 132.786 200.56 139.411C206.85 146.035 209.997 154.126 210 163.684C210 167.544 209.417 171.184 208.25 174.605C207.083 178.026 205.5 181.053 203.5 183.684L235 216.842L228 224.211ZM177.5 187.368C183.75 187.368 189.063 185.065 193.44 180.458C197.817 175.851 200.003 170.26 200 163.684C200 157.105 197.812 151.512 193.435 146.905C189.058 142.298 183.747 139.997 177.5 140C171.25 140 165.937 142.304 161.56 146.911C157.183 151.518 154.997 157.109 155 163.684C155 170.263 157.188 175.856 161.565 180.463C165.942 185.07 171.253 187.372 177.5 187.368Z" fill="white"/>
</svg>
