<svg width="20" height="15" viewBox="0 0 20 15" fill="none" xmlns="http://www.w3.org/2000/svg">
<path d="M18.6351 0.865007C18.7515 0.981121 18.8439 1.11906 18.9069 1.27092C18.9699 1.42279 19.0023 1.58559 19.0023 1.75001C19.0023 1.91443 18.9699 2.07723 18.9069 2.22909C18.8439 2.38095 18.7515 2.51889 18.6351 2.63501L7.38511 13.885C7.269 14.0014 7.13106 14.0938 6.9792 14.1568C6.82734 14.2198 6.66453 14.2522 6.50011 14.2522C6.3357 14.2522 6.17289 14.2198 6.02103 14.1568C5.86917 14.0938 5.73123 14.0014 5.61511 13.885L0.615114 8.88501C0.380397 8.65029 0.248535 8.33195 0.248535 8.00001C0.248535 7.66807 0.380397 7.34972 0.615114 7.11501C0.84983 6.88029 1.16817 6.74843 1.50011 6.74843C1.83205 6.74843 2.1504 6.88029 2.38511 7.11501L6.50011 11.2325L16.8651 0.865007C16.9812 0.748598 17.1192 0.656242 17.271 0.593225C17.4229 0.530209 17.5857 0.497772 17.7501 0.497772C17.9145 0.497772 18.0773 0.530209 18.2292 0.593225C18.3811 0.656242 18.519 0.748598 18.6351 0.865007Z" fill="#574279"/>
</svg>
