<svg width="934" height="924" viewBox="0 0 934 924" fill="none" xmlns="http://www.w3.org/2000/svg">
<path d="M1252 364.123C1252 546.626 1026.58 924 844 924C750.598 924 460.942 834.197 366 702.5C275.351 576.758 130 362.141 130 273C130 90.4969 611.216 -195 793.798 -195C976.379 -195 1252 181.62 1252 364.123Z" fill="#CFC6DE"/>
<path d="M2 289.5C8.16667 253 118.7 161.3 176.7 198.5C249.2 245 254.2 293 200.2 289.5C146.2 286 189.2 171 315.2 119" stroke="black" stroke-width="4" stroke-linejoin="round"/>
<path fill-rule="evenodd" clip-rule="evenodd" d="M764.234 668.732C764.354 668.662 765.103 669.651 766.21 671.599C767.322 673.54 768.705 676.488 769.991 680.292C772.625 687.874 774.28 699.067 773.299 711.273C772.327 723.478 769.507 734.191 767.332 741.817C765.106 749.446 763.468 754.077 763.186 753.999C762.874 753.913 763.979 749.121 765.806 741.418C767.585 733.715 770.124 723.059 771.075 711.104C772.031 699.153 770.671 688.275 768.484 680.755C766.361 673.197 763.884 668.914 764.234 668.732" fill="white"/>
<path fill-rule="evenodd" clip-rule="evenodd" d="M771.75 607.649C771.89 607.587 772.796 609.246 774.307 612.304C775.817 615.363 777.938 619.82 780.448 625.381C785.427 636.504 792.128 652.074 796.989 670.151C799.378 679.193 801.006 687.983 801.831 696.056C802.662 704.127 802.747 711.461 802.331 717.581C801.928 723.704 801.156 728.618 800.412 731.959C799.677 735.306 799.094 737.109 798.963 737.08C798.55 737 800.37 729.631 800.756 717.508C801.237 705.409 799.649 688.599 794.833 670.726C790.028 652.846 783.601 637.267 779 626.006C776.684 620.372 774.81 615.811 773.513 612.658C772.247 609.493 771.609 607.712 771.75 607.649" fill="white"/>
<path fill-rule="evenodd" clip-rule="evenodd" d="M493.597 559.299C493.855 559.577 491.326 561.991 488.043 566.472C487.229 567.597 486.344 568.829 485.516 570.235C484.61 571.59 483.823 573.144 482.946 574.749C481.316 578.02 479.769 581.738 478.576 585.786C477.435 589.848 476.769 593.82 476.411 597.458C476.302 599.282 476.143 601.018 476.188 602.646C476.143 604.278 476.237 605.794 476.328 607.181C476.725 612.721 477.586 616.111 477.219 616.21C476.997 616.286 475.581 613.012 474.76 607.342C474.563 605.925 474.375 604.369 474.339 602.685C474.212 601.002 474.303 599.202 474.36 597.307C474.617 593.529 475.247 589.385 476.433 585.169C477.67 580.965 479.337 577.122 481.131 573.786C482.089 572.149 482.967 570.576 483.97 569.22C484.894 567.812 485.883 566.594 486.802 565.499C490.511 561.135 493.451 559.117 493.597 559.299" fill="white"/>
<path fill-rule="evenodd" clip-rule="evenodd" d="M499.533 578.855C499.72 579.154 498.311 580.233 496.47 582.295C495.538 583.314 494.556 584.634 493.59 586.164C492.665 587.72 491.778 589.506 491.082 591.474C490.416 593.452 490.015 595.405 489.787 597.203C489.603 599.003 489.563 600.646 489.67 602.025C489.848 604.783 490.295 606.503 489.962 606.624C489.723 606.724 488.72 605.15 488.106 602.235C487.787 600.781 487.655 599.001 487.738 597.029C487.868 595.064 488.244 592.908 488.973 590.746C489.731 588.594 490.764 586.666 491.873 585.037C493.02 583.432 494.222 582.113 495.368 581.167C497.647 579.247 499.407 578.626 499.533 578.855" fill="white"/>
<path fill-rule="evenodd" clip-rule="evenodd" d="M417.126 376.599C417.241 376.498 418.239 377.481 419.952 379.356C420.822 380.283 421.85 381.451 422.937 382.892C424.036 384.319 425.358 385.905 426.598 387.81C427.238 388.75 427.91 389.735 428.608 390.761C429.299 391.794 429.926 392.925 430.624 394.066C432.052 396.334 433.333 398.894 434.726 401.564C437.356 406.981 439.871 413.129 441.874 419.793C443.812 426.477 445.043 433.007 445.778 438.982C446.059 441.982 446.374 444.828 446.406 447.506C446.44 448.845 446.528 450.134 446.508 451.379C446.481 452.62 446.452 453.81 446.426 454.947C446.419 457.224 446.171 459.271 446.025 461.069C445.893 462.869 445.666 464.407 445.439 465.657C445.02 468.164 444.716 469.531 444.564 469.51C444.171 469.458 444.911 463.905 444.849 454.931C444.828 453.808 444.809 452.636 444.788 451.411C444.762 450.188 444.632 448.918 444.559 447.604C444.448 444.971 444.069 442.179 443.739 439.237C442.903 433.379 441.637 426.987 439.734 420.427C437.767 413.886 435.359 407.83 432.877 402.457C431.557 399.81 430.358 397.26 429.022 394.989C428.367 393.846 427.786 392.71 427.145 391.669C426.497 390.631 425.877 389.634 425.285 388.682C420.462 381.115 416.822 376.857 417.126 376.599" fill="white"/>
<path fill-rule="evenodd" clip-rule="evenodd" d="M442.382 387.055C442.572 386.886 445.134 389.283 448.392 393.904C450.031 396.204 451.759 399.103 453.44 402.446C455.073 405.812 456.632 409.633 457.875 413.775C459.081 417.929 459.848 421.986 460.305 425.699C460.708 429.42 460.833 432.792 460.705 435.615C460.479 441.264 459.63 444.67 459.38 444.631C459.021 444.588 459.309 441.139 459.127 435.614C459.054 432.852 458.77 429.573 458.268 425.967C457.711 422.368 456.906 418.443 455.737 414.409C454.528 410.385 453.072 406.653 451.585 403.33C450.048 400.028 448.505 397.122 447.067 394.762C444.218 390.025 442.106 387.287 442.382 387.055" fill="white"/>
<path fill-rule="evenodd" clip-rule="evenodd" d="M353.943 569.666L352.002 565.699L297.951 607.021L321.531 645.243L375.336 599.853L353.943 569.666Z" fill="#B57AD2"/>
<path fill-rule="evenodd" clip-rule="evenodd" d="M300.216 607.904L320.931 643.748L322.256 643.157L303.808 609.642L300.216 607.904Z" fill="#D7D4D4"/>
<path fill-rule="evenodd" clip-rule="evenodd" d="M352.876 568.881L300.216 607.904C300.216 607.904 300.436 608.742 301.743 609.258C303.052 609.775 303.808 609.643 303.808 609.643L359.171 571.731C359.171 571.731 355.979 570.989 354.822 570.125C353.663 569.258 352.876 568.881 352.876 568.881" fill="#B57AD2"/>
<path fill-rule="evenodd" clip-rule="evenodd" d="M360.525 570.202L302.819 608.767L321.561 644.306L324.58 649.227L382.287 606.495C382.287 606.495 376.21 597.418 372.56 591.938C368.911 586.458 361.747 573.533 361.358 572.705C360.966 571.877 360.525 570.202 360.525 570.202" fill="#B57AD2"/>
<path fill-rule="evenodd" clip-rule="evenodd" d="M836.405 303.957L838.035 300.626L883.424 335.325L863.622 367.422L818.441 329.305L836.405 303.957Z" fill="#775298"/>
<path fill-rule="evenodd" clip-rule="evenodd" d="M881.522 336.066L864.128 366.166L863.014 365.67L878.506 337.527L881.522 336.066Z" fill="#D7D4D4"/>
<path fill-rule="evenodd" clip-rule="evenodd" d="M837.302 303.296L881.522 336.066C881.522 336.066 881.335 336.769 880.24 337.203C879.141 337.637 878.504 337.526 878.504 337.526L832.015 305.691C832.015 305.691 834.695 305.068 835.667 304.341C836.64 303.613 837.302 303.296 837.302 303.296" fill="#F5F3F3"/>
<path fill-rule="evenodd" clip-rule="evenodd" d="M830.879 304.408L879.336 336.79L863.599 366.635L861.063 370.767L812.603 334.882C812.603 334.882 817.708 327.259 820.772 322.658C823.838 318.056 829.853 307.203 830.179 306.508C830.507 305.814 830.879 304.408 830.879 304.408" fill="#B57AD2"/>
<path fill-rule="evenodd" clip-rule="evenodd" d="M289.413 241.504C289.413 241.504 285.986 243.877 287.698 247.833C289.413 251.79 296.926 263.527 307.075 263.131C307.49 263.116 294.289 241.504 294.289 241.504H289.413Z" fill="#FF7B5B"/>
<path fill-rule="evenodd" clip-rule="evenodd" d="M273.887 457.877C273.887 457.877 261.196 446.533 257.132 448.565C252.168 451.049 223.755 478.903 224.865 492.026C225.321 497.4 231.574 492.796 242.717 481.231C253.863 469.668 267.897 474.623 267.897 474.623L273.887 457.877Z" fill="#B57AD2"/>
<path fill-rule="evenodd" clip-rule="evenodd" d="M304.722 477.008L289.401 467.812C289.401 467.812 249.687 505.064 255.891 510.031C260.597 513.798 263.364 510.419 274.508 498.855C285.651 487.293 299.769 493.941 299.769 493.941L304.722 477.008Z" fill="#B57AD2"/>
<path fill-rule="evenodd" clip-rule="evenodd" d="M398.313 354.45L401.186 395.271L337.408 378.646L398.313 354.45Z" fill="#F3A683"/>
<path fill-rule="evenodd" clip-rule="evenodd" d="M337.408 380.051C337.408 380.051 393.196 383.569 400.625 381.089C400.625 381.089 411.527 488.253 392.128 499.814C372.727 511.379 329.192 494.446 329.192 494.446L340.947 471.32L366.291 469.668V428.371L364.473 428.783L337.408 380.051Z" fill="#112129"/>
<path fill-rule="evenodd" clip-rule="evenodd" d="M267.476 453.149C267.476 453.149 253.444 458.931 257.984 472.973C257.984 472.973 305.884 510.554 329.193 501.88C342.251 497.022 356.278 459.953 366.091 428.283L400.625 381.088C400.625 381.088 384.338 381.904 378.905 381.883C368.52 381.844 337.408 380.051 337.408 380.051C337.408 380.051 321.157 465.126 315.366 467.191C309.576 469.253 267.476 453.149 267.476 453.149" fill="#22343D"/>
<path fill-rule="evenodd" clip-rule="evenodd" d="M350.408 273.347C350.408 273.347 383.843 241.96 389.62 233.699C395.398 225.44 407.784 197.77 423.052 186.207L415.623 170.514C415.623 170.514 420.165 168.037 423.052 174.643C423.052 174.643 433.782 153.17 436.259 153.581C438.738 153.993 431.308 170.101 431.308 170.101C431.308 170.101 441.629 155.233 444.517 155.647C447.404 156.059 437.087 172.36 437.087 172.36C437.087 172.36 448.642 158.951 450.295 160.602C451.946 162.254 441.214 172.36 441.214 172.36C441.214 172.36 452.77 165.722 454.009 167.91C455.248 170.101 442.452 175.882 442.452 175.882C442.452 175.882 441.214 185.381 433.373 189.509C433.373 189.509 417.846 231.484 403.812 245.111L358.73 291.991L350.408 273.347Z" fill="#FFC6B2"/>
<path fill-rule="evenodd" clip-rule="evenodd" d="M310.497 289.615C310.497 289.615 278.817 322.772 270.509 328.475C262.199 334.176 234.432 346.311 222.734 361.482L207.119 353.901C207.119 353.901 204.601 358.42 211.177 361.371C211.177 361.371 189.614 371.908 190.005 374.391C190.393 376.873 206.56 369.59 206.56 369.59C206.56 369.59 191.604 379.777 191.991 382.67C192.377 385.563 208.763 375.392 208.763 375.392C208.763 375.392 195.254 386.828 196.89 388.495C198.523 390.163 208.726 379.522 208.726 379.522C208.726 379.522 201.982 391.022 204.161 392.281C206.336 393.54 212.234 380.793 212.234 380.793C212.234 380.793 221.737 379.646 225.94 371.836C225.94 371.836 265.675 356.018 279.428 342.104L328.875 307.048L310.497 289.615Z" fill="#FFC6B2"/>
<path fill-rule="evenodd" clip-rule="evenodd" d="M322.374 276.399L306.351 292.093L310.414 309.784C310.414 309.784 326.2 347.703 328.586 356.953C332.296 371.337 326.296 393.27 326.296 393.27C326.296 393.27 353.057 391.046 377.407 390.221C401.756 389.394 409.721 381.546 409.721 381.546C409.721 381.546 388.61 311.193 374.034 291.526C359.456 271.863 354.154 265.707 354.154 265.707L332.692 270.401L322.374 276.399Z" fill="white"/>
<path fill-rule="evenodd" clip-rule="evenodd" d="M369.397 289.207L386.092 278.534C386.092 278.534 388.642 267.099 368.509 253.611L344.901 268.413L369.397 289.207Z" fill="white"/>
<path fill-rule="evenodd" clip-rule="evenodd" d="M309.728 290.852C300.575 292.137 283.85 315.346 281.984 315.302C281.984 315.302 293.755 334.522 303.08 335.146C303.08 335.146 344.113 286.026 309.728 290.852" fill="white"/>
<path fill-rule="evenodd" clip-rule="evenodd" d="M342.035 275.75C342.035 275.75 328.732 265.805 329.193 261.84C329.31 260.841 331.154 259.22 331.633 257.781C334.212 250.038 321.776 230.088 314.135 225.882C308.123 222.575 310.758 222.283 298.107 229.805C285.457 237.327 292.664 250.334 298.313 257.062C303.654 263.421 309.771 266.145 315.274 266.604L323.099 283.994L342.035 275.75Z" fill="#FFC6B2"/>
<path fill-rule="evenodd" clip-rule="evenodd" d="M318.031 289.556C315.515 283.38 320.279 275.602 328.673 272.176C337.071 268.749 345.914 270.978 348.435 277.15C350.949 283.324 342.501 292.605 337.785 294.529C333.07 296.454 320.545 295.728 318.031 289.556" fill="#FFC6B2"/>
<path fill-rule="evenodd" clip-rule="evenodd" d="M298.314 257.062C298.314 257.062 293.999 256.823 293.52 259.7C293.04 262.578 301.429 262.578 304.546 260.419L298.314 257.062Z" fill="#FFC6B2"/>
<path fill-rule="evenodd" clip-rule="evenodd" d="M300.472 259.7C299.652 254.501 294.115 250.635 294.391 245.569C297.045 245.59 298.749 242.301 297.542 239.489C297.066 238.385 296.261 237.439 295.746 236.349C295.233 235.261 295.097 233.835 295.884 233.22C296.258 232.929 296.762 232.878 297.246 232.83C301.181 232.425 307.923 233.606 311.545 232.263C314.993 230.985 318.687 228.498 318.329 224.271C318.015 220.591 314.767 217.607 311.783 215.353C310.074 214.06 305.189 210.68 303.347 210.987C300.533 211.454 299.852 215.21 299.649 218.353C297.681 216.478 294.779 216.779 293.068 218.304C291.357 219.829 290.547 222.253 289.801 224.591C289.055 226.932 288.264 229.362 286.576 230.916C285.003 232.365 282.514 233.462 282.841 235.926C283.229 238.862 287.063 239.907 288.836 242.411C288.399 241.797 288.029 245.718 288.28 246.383C289.037 248.385 290.925 249.711 292.29 251.242C295.198 254.507 296.62 257.795 300.472 259.7" fill="#FF7B5B"/>
<path fill-rule="evenodd" clip-rule="evenodd" d="M324.576 247.811L314.745 252.898C314.745 252.898 326.554 261.475 324.576 247.811" fill="white"/>
<path fill-rule="evenodd" clip-rule="evenodd" d="M311.051 249.828C311.589 250.848 310.793 252.323 309.275 253.122C307.757 253.921 306.092 253.743 305.555 252.722C305.019 251.702 305.813 250.229 307.33 249.428C308.85 248.629 310.514 248.808 311.051 249.828" fill="#FFB2A0"/>
<path fill-rule="evenodd" clip-rule="evenodd" d="M325.406 240.017C325.944 241.037 325.148 242.512 323.63 243.311C322.112 244.11 320.447 243.931 319.91 242.911C319.374 241.891 320.168 240.416 321.685 239.617C323.205 238.818 324.869 238.997 325.406 240.017" fill="#FFB2A0"/>
<path fill-rule="evenodd" clip-rule="evenodd" d="M317.714 247.45C317.668 247.394 317.852 247.152 318.277 246.845C318.683 246.531 319.389 246.193 319.913 245.628C320.433 245.081 320.619 243.939 319.824 243.778C318.998 243.497 318.059 244.446 316.983 245.347C316.717 245.568 316.454 245.787 316.193 246.003C315.949 246.227 315.436 246.556 314.904 246.489C313.889 246.325 313.457 245.648 313.068 245.194C312.288 244.194 311.808 243.146 311.542 242.24C311.014 240.408 311.251 239.225 311.378 239.235C311.555 239.227 311.613 240.364 312.284 241.975C312.621 242.776 313.126 243.685 313.861 244.545C314.22 244.98 314.672 245.386 314.993 245.399C315.128 245.406 315.233 245.36 315.486 245.147C315.745 244.931 316.004 244.712 316.267 244.491C316.809 244.053 317.279 243.609 317.899 243.197C318.501 242.79 319.36 242.534 320.129 242.795C320.951 243.011 321.433 243.97 321.29 244.636C321.197 245.315 320.86 245.815 320.477 246.18C319.667 246.858 318.943 247.022 318.486 247.226C318.019 247.403 317.762 247.514 317.714 247.45" fill="#FF7B5B"/>
<path fill-rule="evenodd" clip-rule="evenodd" d="M315.275 266.604C315.275 266.604 321.546 266.64 324.948 264.543C324.948 264.543 322.07 268.081 316.31 268.997L315.275 266.604Z" fill="#FFA192"/>
<path fill-rule="evenodd" clip-rule="evenodd" d="M317.994 238.466C317.937 238.776 317.061 238.872 316.134 239.281C315.194 239.661 314.515 240.224 314.254 240.049C313.986 239.908 314.429 238.788 315.699 238.253C316.967 237.716 318.077 238.174 317.994 238.466" fill="#22343D"/>
<path fill-rule="evenodd" clip-rule="evenodd" d="M305.705 246.532C305.468 246.357 305.84 245.346 306.742 244.334C307.656 243.301 308.823 242.957 308.947 243.246C309.077 243.527 308.365 244.182 307.565 245.09C306.752 245.994 305.961 246.724 305.705 246.532" fill="#22343D"/>
<path fill-rule="evenodd" clip-rule="evenodd" d="M300.941 244.973C300.433 244.596 300.037 242.983 301.982 240.81C303.944 238.588 306.137 238.979 306.4 239.597C306.683 240.202 305.952 241.065 304.23 243.019C302.482 244.966 301.491 245.385 300.941 244.973" fill="#FF7B5B"/>
<path fill-rule="evenodd" clip-rule="evenodd" d="M311.265 236.412C310.984 235.886 311.294 234.354 313.823 233.287C316.388 232.184 318.097 233.401 318.073 234.033C318.068 234.661 317.102 235.101 314.849 236.073C312.58 237.026 311.568 236.986 311.265 236.412" fill="#FF7B5B"/>
<path fill-rule="evenodd" clip-rule="evenodd" d="M850.725 251.648C850.891 251.812 848.167 254.879 842.514 258.218C836.931 261.555 828.147 264.862 818.044 264.936C807.94 265.011 799.107 261.834 793.476 258.581C787.776 255.326 785.007 252.298 785.169 252.131C785.404 251.833 788.502 254.387 794.21 257.182C799.862 259.989 808.381 262.774 818.026 262.705C827.673 262.631 836.149 259.721 841.761 256.831C847.425 253.951 850.486 251.353 850.725 251.648" fill="#775298"/>
<path fill-rule="evenodd" clip-rule="evenodd" d="M789.085 247.016C788.931 247.355 785.914 246.103 780.833 244.969C778.301 244.372 775.228 243.91 771.806 243.485C768.371 243.105 764.574 242.802 760.564 242.517C756.553 242.236 752.714 241.912 749.227 241.48C745.74 241.017 742.607 240.467 740.025 239.768C734.844 238.415 731.909 236.814 732.011 236.588C732.146 236.247 735.232 237.301 740.363 238.225C742.923 238.714 746.012 239.093 749.452 239.435C752.9 239.75 756.709 240.009 760.725 240.291C764.744 240.577 768.59 240.946 772.074 241.446C775.556 241.994 778.679 242.63 781.234 243.442C786.366 245.01 789.2 246.803 789.085 247.016" fill="#775298"/>
<mask id="mask0_112_1116" style="mask-type:luminance" maskUnits="userSpaceOnUse" x="707" y="160" width="203" height="101">
<path fill-rule="evenodd" clip-rule="evenodd" d="M707.605 160.965H910V260.181H707.605V160.965Z" fill="white"/>
</mask>
<g mask="url(#mask0_112_1116)">
<path fill-rule="evenodd" clip-rule="evenodd" d="M727.963 181.061C737.596 179.016 747.577 180.777 757.289 182.396C767.003 184.016 777.088 185.476 786.584 182.867C803.73 178.158 816.746 160.826 834.527 160.966C841.848 161.022 848.749 164.151 855.882 165.806C864.739 167.862 873.966 167.641 882.938 169.108C891.912 170.575 901.182 174.185 906.253 181.737C912.269 190.698 910.62 203.338 904.307 212.093C897.993 220.849 887.883 226.18 877.524 229.201C870.299 231.308 862.601 232.526 856.348 236.718C850.023 240.959 845.893 247.784 840.001 252.607C825.214 264.706 802.201 261.238 786.927 249.761C783.089 246.878 779.532 243.532 775.221 241.422C757.684 232.833 732.461 244.203 717.358 228.576C702.02 212.705 704.205 186.103 727.963 181.061" fill="#B57AD2"/>
</g>
<path fill-rule="evenodd" clip-rule="evenodd" d="M723.15 488.419C723.15 488.419 739.218 522.878 741.098 516.498C742.973 510.115 742.353 494.79 741.347 492.602C740.335 490.414 733.767 480.748 733.767 480.748L723.15 488.419Z" fill="#FFB2A0"/>
<path fill-rule="evenodd" clip-rule="evenodd" d="M839.336 209.772C840.823 211.677 839.829 209.631 841.513 212.379C848.51 212.135 853.206 206.212 853.206 206.212C853.206 206.212 864.311 206.506 864.183 204.521C864.056 202.533 853.537 203.275 853.537 203.275C853.537 203.275 864.665 199.778 864.055 198.032C863.448 196.287 850.6 201.852 850.6 201.852C850.6 201.852 863.565 193.801 861.649 192.509C859.735 191.221 847.261 198.249 847.261 198.249C847.261 198.249 858.102 189.34 856.477 188.192C854.855 187.044 839.818 198.639 839.818 198.639C840.037 192.935 835.948 193.135 835.948 193.135L836.117 207.063C836.117 207.063 838.651 208.895 839.336 209.772" fill="#FFC6B2"/>
<path fill-rule="evenodd" clip-rule="evenodd" d="M674.722 146.734C672.346 147.173 674.188 146.346 671.104 147.288C666.037 142.454 666.709 134.858 666.709 134.858C666.709 134.858 658.213 127.701 659.622 126.303C661.039 124.901 668.411 132.444 668.411 132.444C668.411 132.444 662.412 122.435 664.026 121.535C665.638 120.636 671.555 133.331 671.555 133.331C671.555 133.331 667.201 118.698 669.49 119.005C671.776 119.312 676.441 132.852 676.441 132.852C676.441 132.852 674.247 118.99 676.219 119.209C678.195 119.427 681.748 138.088 681.748 138.088C685.368 133.677 688.292 136.544 688.292 136.544L679.115 146.642C679.115 146.642 675.815 146.534 674.722 146.734" fill="#FFC6B2"/>
<path fill-rule="evenodd" clip-rule="evenodd" d="M732.363 204.913C729.29 204.408 721.86 209.349 718.143 217.402C716.062 221.91 714.63 226.489 717.018 233.819C718.143 237.267 720.497 237.699 721.023 239.244C721.687 241.2 719.487 247.364 719.487 247.364L728.258 250.908C728.828 246.673 729.474 242.413 733.787 240.574C735.401 239.885 737.128 239.45 738.651 238.576C742.759 236.22 744.954 231.064 746.642 226.843C747.902 223.69 740.068 206.177 732.363 204.913" fill="#FFC6B2"/>
<path fill-rule="evenodd" clip-rule="evenodd" d="M721.922 324.594L707.228 318.695C707.228 318.695 663.618 399.611 663.8 422.061C663.98 444.51 723.695 489.458 723.695 489.458L733.766 480.749C733.766 480.749 715.33 448.584 705.475 437.243C695.618 425.899 721.922 324.594 721.922 324.594" fill="#FFB2A0"/>
<path fill-rule="evenodd" clip-rule="evenodd" d="M794.883 416.769C794.883 416.769 827.271 401.394 820.763 400.036C814.255 398.685 799.034 400.548 796.938 401.73C794.839 402.914 785.745 410.248 785.745 410.248L794.883 416.769Z" fill="#FFC6B2"/>
<path fill-rule="evenodd" clip-rule="evenodd" d="M736.357 323.892L714.065 332.007C714.065 332.007 691.766 430.139 700.279 445.545C708.789 460.957 732.696 450.759 766.744 432.166L795.263 416.589L785.744 410.25C785.744 410.25 752.558 416.756 743.238 423.244C743.238 423.244 748.102 409.455 754.587 389.992C761.071 370.527 765.543 350.657 736.357 323.892" fill="#FFC6B2"/>
<path fill-rule="evenodd" clip-rule="evenodd" d="M708.918 257.038C708.918 250.518 711.016 245.803 717.532 245.803C724.048 245.803 733.056 248.088 733.056 254.61C733.056 261.133 727.921 271.722 721.402 271.722C714.886 271.722 708.918 263.561 708.918 257.038" fill="#FFC6B2"/>
<path fill-rule="evenodd" clip-rule="evenodd" d="M714.064 244.869C714.064 244.869 693.801 222.928 689.748 201.434C685.693 179.944 678.807 145.069 678.807 145.069L671.105 147.288C671.105 147.288 667.456 194.949 671.105 202.247C674.751 209.546 692.574 258.141 698.001 270.903L714.064 244.869Z" fill="#FFC6B2"/>
<path fill-rule="evenodd" clip-rule="evenodd" d="M735.833 261.969C735.833 261.969 737.392 255.144 763.015 245.867C788.638 236.593 836.978 206.529 836.978 206.529L841.801 212.05C841.801 212.05 815.535 242.406 800.255 247.73C784.974 253.056 752.518 274.05 749.179 275.73C744.129 278.272 744.191 281.47 735.833 261.969" fill="#FFC6B2"/>
<path fill-rule="evenodd" clip-rule="evenodd" d="M714.064 244.869C714.064 244.869 693.477 251.545 693.477 282.888C693.477 282.888 693.49 325.816 698.342 333.625C698.342 333.625 706.23 335.647 716.064 333.625C726.376 331.504 736.356 323.892 736.356 323.892L752.551 275.247L750.614 252.456L728.595 248.202C728.595 248.202 734.911 277.736 712.058 265.039C707.616 262.572 718.592 245.816 718.592 245.816L714.064 244.869Z" fill="#22343D"/>
<path fill-rule="evenodd" clip-rule="evenodd" d="M696.645 270.361L686.5 249.214C686.5 249.214 687.955 236.386 706.578 231.789C706.578 231.789 708.461 238.255 710.526 240.726C712.589 243.195 718.599 245.823 718.599 245.823L696.645 270.361Z" fill="#22343D"/>
<path fill-rule="evenodd" clip-rule="evenodd" d="M734.996 278.86L767.254 272.245C767.254 272.245 772.863 260.618 759.564 246.788C759.564 246.788 734.402 248.308 731.146 248.579C727.94 248.846 730.141 251.316 730.141 251.316L734.996 278.86Z" fill="#22343D"/>
<path fill-rule="evenodd" clip-rule="evenodd" d="M698.29 323.169C698.29 323.169 667.78 379.611 662.739 389.696C662.739 389.696 752.752 431.067 789.293 381.269C789.293 381.269 768.507 337.251 736.374 320.494L722.513 316.341L698.833 322.898" fill="#22343D"/>
<path fill-rule="evenodd" clip-rule="evenodd" d="M745.461 226.309C745.461 226.309 748.937 222.831 751.075 225.239C753.213 227.646 743.323 231.123 743.323 231.123L745.461 226.309Z" fill="#FFC6B2"/>
<path fill-rule="evenodd" clip-rule="evenodd" d="M809.034 178.881C809.068 179.001 807.726 179.582 805.163 180.192C802.606 180.807 798.812 181.366 794.1 181.462C789.39 181.556 783.79 181.137 777.66 180.305C771.525 179.491 764.861 178.296 757.85 177.531C750.85 176.782 744.12 176.646 738.159 177.609C732.196 178.556 727.035 180.51 723.091 182.792C719.146 185.092 716.401 187.644 714.716 189.575C713.021 191.508 712.258 192.742 712.086 192.638C711.992 192.59 712.502 191.199 714.037 189.032C715.563 186.872 718.256 184.022 722.273 181.444C726.285 178.882 731.62 176.682 737.818 175.58C744.024 174.463 750.965 174.549 758.087 175.312C765.215 176.09 771.887 177.354 777.95 178.27C784.012 179.204 789.491 179.776 794.104 179.883C803.353 180.141 808.95 178.499 809.034 178.881" fill="#775298"/>
<path fill-rule="evenodd" clip-rule="evenodd" d="M727.762 224.335C727.752 224.471 726.762 224.567 725.251 224.065C724.877 223.934 724.436 223.761 724.025 223.385C723.822 223.196 723.634 222.946 723.518 222.646C723.353 222.225 723.366 221.747 723.53 221.384C723.579 221.31 723.575 221.137 723.671 221.133L723.965 221.124C724.153 221.098 724.376 221.159 724.593 221.2C724.992 221.276 725.121 221.265 725.405 221.284C725.903 221.296 726.419 221.244 726.936 221.13C729.046 220.685 730.458 219.149 731.091 217.885C731.755 216.613 731.814 215.656 731.991 215.668C732.116 215.651 732.362 216.668 731.814 218.203C731.535 218.955 731.049 219.818 730.265 220.575C729.486 221.33 728.406 221.95 727.181 222.218C726.569 222.355 725.953 222.407 725.361 222.376C725.103 222.363 724.697 222.311 724.579 222.285C724.47 222.267 724.483 222.243 724.462 222.256C724.449 222.269 724.442 222.29 724.444 222.321C724.488 222.467 724.567 222.607 724.679 222.732C724.905 222.987 725.233 223.177 725.553 223.336C726.859 223.977 727.786 224.168 727.762 224.335" fill="#FF7B5B"/>
<path fill-rule="evenodd" clip-rule="evenodd" d="M720.526 224.711L732.409 229.395C732.409 229.395 721.966 236.6 720.526 224.711" fill="white"/>
<path fill-rule="evenodd" clip-rule="evenodd" d="M737.483 226.965C737.061 227.767 735.753 227.907 734.559 227.278C733.366 226.651 732.741 225.492 733.162 224.691C733.584 223.888 734.894 223.747 736.087 224.376C737.28 225.004 737.905 226.162 737.483 226.965" fill="#FFB2A0"/>
<path fill-rule="evenodd" clip-rule="evenodd" d="M724.221 219.929C723.861 220.761 722.567 221.001 721.33 220.465C720.093 219.929 719.38 218.821 719.741 217.99C720.099 217.158 721.395 216.918 722.632 217.454C723.869 217.99 724.581 219.098 724.221 219.929" fill="#FFB2A0"/>
<path fill-rule="evenodd" clip-rule="evenodd" d="M719.82 237.75C719.82 237.75 723.985 241.241 728.331 240.117C728.331 240.117 726.832 242.365 721.065 241.539C721.065 241.539 721.544 239.062 719.82 237.75" fill="#FFA192"/>
<path fill-rule="evenodd" clip-rule="evenodd" d="M736.344 219.497C736.344 220.017 735.922 220.439 735.402 220.439C734.882 220.439 734.46 220.017 734.46 219.497C734.46 218.978 734.882 218.556 735.402 218.556C735.922 218.556 736.344 218.978 736.344 219.497" fill="#22343D"/>
<path fill-rule="evenodd" clip-rule="evenodd" d="M728.639 216.721C728.639 217.24 728.217 217.662 727.697 217.662C727.178 217.662 726.757 217.24 726.757 216.721C726.757 216.201 727.178 215.779 727.697 215.779C728.217 215.779 728.639 216.201 728.639 216.721" fill="#22343D"/>
<path fill-rule="evenodd" clip-rule="evenodd" d="M739.368 216.988C739.077 217.111 738.516 216.431 737.665 215.88C736.832 215.305 735.988 215.047 735.99 214.732C735.962 214.43 737.141 214.185 738.285 214.953C739.431 215.716 739.659 216.897 739.368 216.988" fill="#775298"/>
<path fill-rule="evenodd" clip-rule="evenodd" d="M725.79 212.417C725.77 212.124 726.782 211.753 728.136 211.789C729.514 211.818 730.532 212.487 730.39 212.767C730.261 213.049 729.301 212.927 728.092 212.905C726.876 212.869 725.809 212.737 725.79 212.417" fill="#775298"/>
<path fill-rule="evenodd" clip-rule="evenodd" d="M730.033 502.421C730.033 502.421 734.976 519.976 740.08 518.538C745.184 517.103 741.346 492.602 741.346 492.602L736.254 484.549C736.254 484.549 741.038 525.56 730.033 502.421" fill="#22343D"/>
<path fill-rule="evenodd" clip-rule="evenodd" d="M792.364 405.097C792.364 405.097 795.958 401.172 800.315 400.52C804.674 399.865 820.25 398.012 822.537 400.083C824.826 402.154 809.912 409.097 809.912 409.097C809.912 409.097 815.109 405.784 812.951 404.553C809.138 402.371 792.364 405.097 792.364 405.097" fill="#22343D"/>
<path fill-rule="evenodd" clip-rule="evenodd" d="M786.184 409.797L791.06 419.703L793.721 418.225L787.218 408.466L786.184 409.797Z" fill="#22343D"/>
<path fill-rule="evenodd" clip-rule="evenodd" d="M731.653 476.777L719.683 487.572L723.23 490.53L733.278 479.587L731.653 476.777Z" fill="#22343D"/>
<path fill-rule="evenodd" clip-rule="evenodd" d="M481.389 369.311C477.985 360.859 476.677 351.448 471.597 343.884C464.287 332.999 450.247 327.599 444.315 315.904C441.796 310.937 441.005 305.255 440.979 299.686C440.93 288.667 444.228 276.953 452.734 269.95C462.508 261.904 477.173 262.016 488.621 267.421C500.066 272.827 508.811 282.639 516.246 292.888C523.683 303.136 530.192 314.134 538.851 323.369C545.272 330.217 552.887 336.123 557.723 344.168C570.981 366.224 557.34 394.13 533.934 402.091C513.368 409.083 488.505 386.983 481.389 369.311" fill="#22343D"/>
<path fill-rule="evenodd" clip-rule="evenodd" d="M452.091 524.867C454.126 526.542 451.905 525.382 454.866 527.312C454.206 534.713 447.363 539.377 447.363 539.377C447.363 539.377 447.074 551.161 444.876 550.919C442.673 550.68 444.084 539.571 444.084 539.571C444.084 539.571 439.579 551.178 437.674 550.439C435.769 549.704 442.665 536.385 442.665 536.385C442.665 536.385 433 549.696 431.672 547.597C430.346 545.5 438.85 532.655 438.85 532.655C438.85 532.655 428.349 543.671 427.162 541.888C425.977 540.109 439.695 524.789 439.695 524.789C433.346 524.719 433.795 520.395 433.795 520.395L449.259 521.313C449.259 521.313 451.154 524.094 452.091 524.867" fill="#FFC6B2"/>
<path fill-rule="evenodd" clip-rule="evenodd" d="M599.823 302.621C602.469 303.086 600.416 302.209 603.849 303.208C609.489 298.082 608.74 290.027 608.74 290.027C608.74 290.027 618.198 282.438 616.63 280.955C615.052 279.469 606.847 287.465 606.847 287.465C606.847 287.465 613.523 276.854 611.727 275.899C609.935 274.946 603.349 288.408 603.349 288.408C603.349 288.408 608.195 272.891 605.646 273.216C603.104 273.542 597.911 287.899 597.911 287.899C597.911 287.899 600.352 273.201 598.156 273.433C595.958 273.664 592.403 292.92 592.403 292.92C587.224 288.703 583.599 291.403 583.599 291.403L594.934 302.522C594.934 302.522 598.607 302.41 599.823 302.621" fill="#FFC6B2"/>
<path fill-rule="evenodd" clip-rule="evenodd" d="M535.084 366.978C539.868 366.231 554.457 375.691 550.744 394.901C550.434 396.514 548.329 400.064 547.804 401.533C547.142 403.392 552.303 410.2 552.303 410.2L538.98 414.458C538.412 410.432 539.368 404.547 535.063 402.798C533.452 402.143 531.728 401.729 530.209 400.899C526.107 398.658 523.917 393.754 522.232 389.74C520.974 386.74 520.016 383.515 520.052 380.26C520.139 372.064 527.394 368.18 535.084 366.978" fill="#FFC6B2"/>
<path fill-rule="evenodd" clip-rule="evenodd" d="M561.763 419.59C561.763 412.675 559.571 410.036 552.318 410.036C545.065 410.036 535.491 412.675 535.491 419.59C535.491 426.506 540.612 435.16 547.869 435.16C555.12 435.16 561.763 426.506 561.763 419.59" fill="#FFC6B2"/>
<path fill-rule="evenodd" clip-rule="evenodd" d="M556.035 406.684C556.035 406.684 578.588 383.418 583.1 360.627C587.613 337.837 595.278 300.856 595.278 300.856L603.849 303.208C603.849 303.208 607.911 353.748 603.849 361.488C599.791 369.229 576.783 422.981 577.235 436.74L556.035 406.684Z" fill="#FFC6B2"/>
<path fill-rule="evenodd" clip-rule="evenodd" d="M515.833 417.95C515.833 417.95 508.164 419.239 496.435 445.902C484.706 472.562 448.619 522.196 448.619 522.196L454.484 527.6C454.484 527.6 489.669 501.372 496.435 485.462C503.2 469.552 511.771 449.772 515.833 450.63C519.891 451.492 537.034 427.838 515.833 417.95" fill="#FFC6B2"/>
<path fill-rule="evenodd" clip-rule="evenodd" d="M576.213 440.294L586.714 411.293C586.714 411.293 585.094 397.692 564.367 392.815L552.625 409.742L576.213 440.294Z" fill="#B57AD2"/>
<path fill-rule="evenodd" clip-rule="evenodd" d="M519.334 415.724C519.334 415.724 506.944 416.769 496.902 438.838C496.902 438.838 507.946 454.093 516.025 454.607C516.025 454.607 546.033 428.944 519.334 415.724" fill="#B57AD2"/>
<path fill-rule="evenodd" clip-rule="evenodd" d="M553.375 677.437C553.375 677.437 535.491 713.978 533.4 707.213C531.312 700.444 532.002 684.192 533.122 681.873C534.247 679.551 541.559 669.302 541.559 669.302L553.375 677.437Z" fill="#FFC6B2"/>
<path fill-rule="evenodd" clip-rule="evenodd" d="M554.742 503.714L571.097 497.457C571.097 497.457 619.635 583.264 619.434 607.07C619.233 630.874 552.769 678.54 552.769 678.54L541.558 669.302C541.558 669.302 573.061 622.959 584.03 610.933C589.516 604.918 550.247 575.444 544.299 547.085C538.351 518.725 554.742 503.714 554.742 503.714" fill="#22343D"/>
<path fill-rule="evenodd" clip-rule="evenodd" d="M456.405 658.295C456.405 658.295 422.951 682.967 424.342 676.043C425.738 669.112 434.16 654.968 436.272 653.394C438.387 651.823 449.809 645.905 449.809 645.905L456.405 658.295Z" fill="#FFC6B2"/>
<path fill-rule="evenodd" clip-rule="evenodd" d="M510.244 534.099L558.633 506.04C558.633 506.04 560.553 603.508 548.936 624.583C537.321 645.658 455.337 659.009 455.337 659.009L449.809 645.905C449.809 645.905 500.39 615.752 515.919 609.851C531.449 603.947 510.244 534.099 510.244 534.099" fill="#22343D"/>
<path fill-rule="evenodd" clip-rule="evenodd" d="M539.062 486.846C539.062 486.846 503.433 499.468 510.244 534.099C517.054 568.728 528.407 575.22 528.407 575.22L548.84 541.675L569.354 497.743L548.84 495.139L539.062 486.846Z" fill="#22343D"/>
<path fill-rule="evenodd" clip-rule="evenodd" d="M556.035 406.684C556.035 406.684 582.267 421.394 582.267 454.631C582.267 454.631 578.934 492.523 573.533 500.802C573.533 500.802 564.754 502.948 553.808 500.802C542.331 498.554 531.224 490.483 531.224 490.483L522.26 444.091L515.286 417.003L519.066 415.756L538.795 413.588C538.795 413.588 535.961 443.074 557.99 428.432C562.629 425.347 552.214 409.972 552.214 409.972L556.035 406.684Z" fill="#B57AD2"/>
<path fill-rule="evenodd" clip-rule="evenodd" d="M572.091 281.086L627.091 313.188L658.028 254.717L606.466 226.056L572.091 281.086Z" fill="white"/>
<path fill-rule="evenodd" clip-rule="evenodd" d="M648.605 560.977L687.94 536.613L655.442 479.856L619.485 503.185L648.605 560.977Z" fill="white"/>
<path fill-rule="evenodd" clip-rule="evenodd" d="M454.928 319.125C455.032 319.032 456.246 320.135 458.167 322.385C460.079 324.638 462.688 328.063 465.306 332.686C467.935 337.289 470.535 343.13 472.392 349.91C474.314 356.639 475.603 364.203 478.558 371.49C480.092 375.089 481.951 378.44 484.163 381.402C486.395 384.346 488.871 386.928 491.42 389.181C496.627 393.567 502.083 396.583 506.945 398.326C511.802 400.093 515.963 400.885 518.856 401.17C521.745 401.49 523.379 401.537 523.38 401.727C523.388 401.845 521.76 402.094 518.793 402.037C515.827 402.014 511.51 401.447 506.426 399.817C501.338 398.209 495.59 395.233 490.093 390.752C487.397 388.448 484.777 385.781 482.416 382.716C480.076 379.634 478.098 376.109 476.493 372.336C473.415 364.72 472.199 357.089 470.409 350.449C468.699 343.786 466.323 338.052 463.92 333.44C461.532 328.814 459.162 325.307 457.482 322.916C455.792 320.53 454.802 319.237 454.928 319.125" fill="#22343D"/>
<path fill-rule="evenodd" clip-rule="evenodd" d="M522.5 281.568C522.905 281.506 523.297 286.923 526.327 294.935C527.84 298.926 530.09 303.518 533.322 308.121C534.937 310.426 536.796 312.697 538.9 314.959C540.989 317.232 543.265 319.54 545.416 322.129C549.729 327.354 552.696 333.002 555.49 337.987C558.265 343.02 560.474 347.808 561.597 352.092C562.769 356.362 562.838 360.038 562.466 362.476C562.078 364.925 561.469 366.166 561.368 366.132C561.175 366.081 561.49 364.771 561.601 362.398C561.696 360.028 561.394 356.575 560.084 352.538C558.818 348.486 556.541 343.918 553.698 338.992C550.812 334.067 547.818 328.533 543.698 323.553C541.63 321.062 539.387 318.762 537.284 316.433C535.171 314.115 533.249 311.701 531.627 309.286C528.374 304.45 526.202 299.631 524.841 295.465C523.45 291.3 522.858 287.785 522.577 285.364C522.299 282.937 522.374 281.579 522.5 281.568" fill="#22343D"/>
<path fill-rule="evenodd" clip-rule="evenodd" d="M539.362 387.859C539.341 387.703 540.237 387.56 541.082 386.566C541.277 386.337 541.474 386.002 541.47 385.807C541.466 385.598 541.319 385.234 541.068 385.024C540.806 384.79 540.516 384.677 540.133 384.716C539.737 384.745 539.254 384.942 538.625 385.036C537.245 385.219 536.168 384.44 535.461 383.808C534.733 383.143 534.178 382.469 533.764 381.865C532.94 380.649 532.683 379.77 532.81 379.705C532.956 379.627 533.453 380.355 534.383 381.375C534.847 381.881 535.433 382.463 536.125 383.023C536.806 383.567 537.641 384.063 538.474 383.931C538.915 383.874 539.43 383.668 540.056 383.626C540.694 383.563 541.404 383.857 541.793 384.295C542.207 384.743 542.44 385.271 542.391 385.897C542.267 386.537 541.928 386.835 541.647 387.115C540.435 388.177 539.323 388.003 539.362 387.859" fill="#FF7B5B"/>
<path fill-rule="evenodd" clip-rule="evenodd" d="M545.862 388.774L535.298 392.617C535.298 392.617 544.261 400.462 545.862 388.774" fill="white"/>
<path fill-rule="evenodd" clip-rule="evenodd" d="M534.244 388.12C534.666 388.922 534.041 390.082 532.848 390.709C531.655 391.337 530.347 391.198 529.925 390.395C529.502 389.595 530.127 388.435 531.321 387.806C532.514 387.178 533.822 387.317 534.244 388.12" fill="#FFB2A0"/>
<path fill-rule="evenodd" clip-rule="evenodd" d="M546.767 381.695C547.112 382.533 546.382 383.628 545.137 384.143C543.89 384.659 542.6 384.398 542.254 383.559C541.908 382.721 542.638 381.627 543.885 381.112C545.13 380.597 546.421 380.857 546.767 381.695" fill="#FFB2A0"/>
<path fill-rule="evenodd" clip-rule="evenodd" d="M535.611 403.079C535.611 403.079 539.145 403.798 543.65 402.673C543.65 402.673 541.429 404.831 537.801 405.333C537.801 405.333 536.987 403.829 535.611 403.079" fill="#FFA192"/>
<path fill-rule="evenodd" clip-rule="evenodd" d="M539.222 379.322C539.618 379.658 539.667 380.252 539.331 380.648C538.995 381.045 538.402 381.093 538.004 380.757C537.608 380.423 537.559 379.828 537.895 379.431C538.231 379.034 538.826 378.986 539.222 379.322" fill="#22343D"/>
<path fill-rule="evenodd" clip-rule="evenodd" d="M532.124 383.408C532.52 383.744 532.569 384.338 532.233 384.734C531.898 385.131 531.304 385.179 530.906 384.843C530.51 384.507 530.461 383.914 530.797 383.517C531.133 383.12 531.727 383.072 532.124 383.408" fill="#22343D"/>
<path fill-rule="evenodd" clip-rule="evenodd" d="M539.263 375.39C539.169 375.692 538.288 375.681 537.319 375.975C536.341 376.238 535.6 376.715 535.359 376.509C535.111 376.337 535.686 375.278 537.012 374.901C538.335 374.52 539.382 375.111 539.263 375.39" fill="#22343D"/>
<path fill-rule="evenodd" clip-rule="evenodd" d="M527.001 382.8C526.764 382.625 527.136 381.615 528.039 380.604C528.951 379.571 530.12 379.227 530.241 379.515C530.373 379.796 529.66 380.45 528.86 381.358C528.048 382.263 527.258 382.994 527.001 382.8" fill="#22343D"/>
<path fill-rule="evenodd" clip-rule="evenodd" d="M523.017 390.648C523.017 390.648 519.629 387.801 518.003 390.377C516.378 392.953 525.321 394.309 525.321 394.309L523.017 390.648Z" fill="#FFC6B2"/>
<path fill-rule="evenodd" clip-rule="evenodd" d="M441.554 650.276C441.554 650.276 436.697 652.39 435.431 653.658C434.163 654.925 422.548 674.998 424.027 677.533C425.506 680.069 437.154 671.462 437.154 671.462C437.154 671.462 427.407 673.308 441.554 650.276" fill="#B57AD2"/>
<path fill-rule="evenodd" clip-rule="evenodd" d="M536.334 676.82C536.334 676.82 532.884 680.551 532.352 682.264C531.819 683.975 530.866 707.149 533.355 708.706C535.842 710.263 542.641 697.475 542.641 697.475C542.641 697.475 534.512 703.846 536.334 676.873" fill="#B57AD2"/>
</svg>
