<svg width="34" height="32" viewBox="0 0 34 32" fill="none" xmlns="http://www.w3.org/2000/svg">
<path d="M17.216 0.640137C8.52924 0.640137 1.4874 7.51694 1.4874 16.0001C1.4874 24.4833 8.52924 31.3601 17.216 31.3601C25.9028 31.3601 32.9447 24.4833 32.9447 16.0001C32.9447 7.51694 25.9028 0.640137 17.216 0.640137ZM23.265 17.9697C23.265 17.9697 24.656 19.3105 24.9984 19.9329C25.0083 19.9457 25.0132 19.9585 25.0165 19.9649C25.1557 20.1937 25.1885 20.3713 25.1197 20.5041C25.005 20.7249 24.6118 20.8337 24.4774 20.8433H22.0198C21.8494 20.8433 21.4923 20.8001 21.0597 20.5089C20.7271 20.2817 20.3995 19.9089 20.08 19.5457C19.6032 19.0049 19.1903 18.5377 18.7742 18.5377C18.7213 18.5376 18.6688 18.5457 18.6185 18.5617C18.3039 18.6609 17.9009 19.0993 17.9009 20.2673C17.9009 20.6321 17.606 20.8417 17.3979 20.8417H16.2723C15.8889 20.8417 13.8917 20.7105 12.1223 18.8881C9.95629 16.6561 8.00659 12.1793 7.99021 12.1377C7.86733 11.8481 8.12128 11.6929 8.39817 11.6929H10.8803C11.2113 11.6929 11.3194 11.8897 11.3948 12.0641C11.4833 12.2673 11.8077 13.0753 12.3402 13.9841C13.2036 15.4657 13.7328 16.0673 14.1571 16.0673C14.2367 16.0664 14.3149 16.0467 14.3849 16.0097C14.9387 15.7089 14.8354 13.7809 14.8109 13.3809C14.8109 13.3057 14.8092 12.5185 14.5258 12.1409C14.3226 11.8673 13.9769 11.7633 13.7672 11.7249C13.8521 11.6106 13.9639 11.5178 14.0932 11.4545C14.4734 11.2689 15.1582 11.2417 15.8381 11.2417H16.2166C16.9539 11.2513 17.1439 11.2977 17.411 11.3633C17.9517 11.4897 17.9631 11.8305 17.9156 12.9969C17.9009 13.3281 17.8861 13.7025 17.8861 14.1441C17.8861 14.2401 17.8812 14.3425 17.8812 14.4513C17.8648 15.0449 17.8452 15.7185 18.2744 15.9953C18.3304 16.0296 18.3951 16.0479 18.4612 16.0481C18.6103 16.0481 19.0592 16.0481 20.2749 14.0113C20.6499 13.3557 20.9757 12.6745 21.2498 11.9729C21.2744 11.9313 21.3464 11.8033 21.4316 11.7537C21.4945 11.7224 21.5642 11.7065 21.6348 11.7073H24.5528C24.8706 11.7073 25.0886 11.7537 25.1295 11.8737C25.2016 12.0641 25.1164 12.6449 23.7844 14.4065L23.1896 15.1729C21.9821 16.7185 21.9821 16.7969 23.265 17.9697Z" fill="#574279"/>
</svg>
