<svg width="31" height="31" viewBox="0 0 31 31" fill="none" xmlns="http://www.w3.org/2000/svg">
<g filter="url(#filter0_dd_6_397)">
<path d="M1.98014 3.14C1.9012 3.21908 1.85101 3.32231 1.8376 3.43324C1.82419 3.54417 1.84832 3.65639 1.90614 3.752L4.22614 7.582C4.26715 7.6496 4.32361 7.70651 4.39089 7.74806C4.45816 7.7896 4.53433 7.8146 4.61314 7.821L5.87714 7.926C6.11289 7.94581 6.33399 8.04856 6.50114 8.216L15.4451 17.159L17.2101 15.394L8.21614 6.399C8.03553 6.21867 7.93071 5.97611 7.92314 5.721L7.89014 4.573C7.88772 4.48924 7.86429 4.40744 7.82201 4.3351C7.77972 4.26276 7.71993 4.2022 7.64814 4.159L3.80314 1.852C3.70762 1.79481 3.59575 1.77113 3.48525 1.78471C3.37476 1.7983 3.27195 1.84837 3.19314 1.927L1.98014 3.14Z" fill="#B9B3BE"/>
</g>
<g filter="url(#filter1_f_6_397)">
<path fill-rule="evenodd" clip-rule="evenodd" d="M20.6631 15.904L27.5531 22.794C27.6743 22.9108 27.7711 23.0506 27.8377 23.2052C27.9044 23.3598 27.9395 23.5262 27.9411 23.6945C27.9427 23.8629 27.9108 24.0298 27.8471 24.1857C27.7835 24.3416 27.6894 24.4832 27.5703 24.6023C27.4513 24.7214 27.3098 24.8155 27.1539 24.8793C26.9981 24.943 26.8312 24.9751 26.6628 24.9736C26.4944 24.972 26.3281 24.937 26.1734 24.8704C26.0188 24.8039 25.8789 24.7072 25.7621 24.586L18.8721 17.696C18.7485 17.5798 18.6496 17.44 18.5811 17.2849C18.5126 17.1297 18.4759 16.9624 18.4733 16.7928C18.4707 16.6233 18.5021 16.4549 18.5657 16.2977C18.6293 16.1405 18.7239 15.9977 18.8437 15.8777C18.9636 15.7577 19.1063 15.663 19.2634 15.5992C19.4206 15.5354 19.5889 15.5038 19.7585 15.5062C19.928 15.5087 20.0954 15.5452 20.2506 15.6135C20.4058 15.6818 20.5467 15.7806 20.6631 15.904Z" fill="url(#paint0_linear_6_397)"/>
<path d="M27.6601 22.689L20.7691 15.797C20.5034 15.5313 20.143 15.382 19.7671 15.382C19.3913 15.382 19.0309 15.5313 18.7651 15.797C18.4994 16.0627 18.3501 16.4232 18.3501 16.799C18.3501 17.1748 18.4994 17.5353 18.7651 17.801L25.6551 24.692C25.9208 24.9579 26.2811 25.1074 26.6569 25.1075C27.0328 25.1077 27.3933 24.9586 27.6591 24.693C27.925 24.4274 28.0745 24.067 28.0747 23.6912C28.0749 23.3154 27.9258 22.9549 27.6601 22.689Z" stroke="url(#paint1_linear_6_397)" stroke-width="0.3"/>
</g>
<g filter="url(#filter2_d_6_397)">
<path d="M22.0303 29.057C22.216 29.2428 22.4365 29.3902 22.6792 29.4908C22.9219 29.5913 23.1821 29.6431 23.4448 29.6431C23.7075 29.6431 23.9676 29.5913 24.2104 29.4908C24.4531 29.3902 24.6736 29.2428 24.8593 29.057L29.1093 24.807C29.4842 24.4319 29.6949 23.9233 29.6949 23.393C29.6949 22.8627 29.4842 22.3541 29.1093 21.979L21.1043 13.975C20.9418 13.8125 20.7489 13.6836 20.5365 13.5956C20.3242 13.5076 20.0966 13.4624 19.8668 13.4624C19.637 13.4624 19.4094 13.5076 19.1971 13.5956C18.9847 13.6836 18.7918 13.8125 18.6293 13.975L14.0263 18.578C13.8638 18.7405 13.7349 18.9334 13.6469 19.1458C13.5589 19.3581 13.5137 19.5857 13.5137 19.8155C13.5137 20.0453 13.5589 20.2729 13.6469 20.4852C13.7349 20.6976 13.8638 20.8905 14.0263 21.053L22.0303 29.057Z" fill="url(#paint2_linear_6_397)"/>
<path d="M22.0303 29.057C22.216 29.2428 22.4365 29.3902 22.6792 29.4908C22.9219 29.5913 23.1821 29.6431 23.4448 29.6431C23.7075 29.6431 23.9676 29.5913 24.2104 29.4908C24.4531 29.3902 24.6736 29.2428 24.8593 29.057L29.1093 24.807C29.4842 24.4319 29.6949 23.9233 29.6949 23.393C29.6949 22.8627 29.4842 22.3541 29.1093 21.979L21.1043 13.975C20.9418 13.8125 20.7489 13.6836 20.5365 13.5956C20.3242 13.5076 20.0966 13.4624 19.8668 13.4624C19.637 13.4624 19.4094 13.5076 19.1971 13.5956C18.9847 13.6836 18.7918 13.8125 18.6293 13.975L14.0263 18.578C13.8638 18.7405 13.7349 18.9334 13.6469 19.1458C13.5589 19.3581 13.5137 19.5857 13.5137 19.8155C13.5137 20.0453 13.5589 20.2729 13.6469 20.4852C13.7349 20.6976 13.8638 20.8905 14.0263 21.053L22.0303 29.057Z" fill="url(#paint3_linear_6_397)"/>
<path d="M22.0303 29.057C22.216 29.2428 22.4365 29.3902 22.6792 29.4908C22.9219 29.5913 23.1821 29.6431 23.4448 29.6431C23.7075 29.6431 23.9676 29.5913 24.2104 29.4908C24.4531 29.3902 24.6736 29.2428 24.8593 29.057L29.1093 24.807C29.4842 24.4319 29.6949 23.9233 29.6949 23.393C29.6949 22.8627 29.4842 22.3541 29.1093 21.979L21.1043 13.975C20.9418 13.8125 20.7489 13.6836 20.5365 13.5956C20.3242 13.5076 20.0966 13.4624 19.8668 13.4624C19.637 13.4624 19.4094 13.5076 19.1971 13.5956C18.9847 13.6836 18.7918 13.8125 18.6293 13.975L14.0263 18.578C13.8638 18.7405 13.7349 18.9334 13.6469 19.1458C13.5589 19.3581 13.5137 19.5857 13.5137 19.8155C13.5137 20.0453 13.5589 20.2729 13.6469 20.4852C13.7349 20.6976 13.8638 20.8905 14.0263 21.053L22.0303 29.057Z" fill="url(#paint4_linear_6_397)"/>
</g>
<path d="M1.98014 3.14C1.9012 3.21908 1.85101 3.32231 1.8376 3.43324C1.82419 3.54417 1.84832 3.65639 1.90614 3.752L4.22614 7.582C4.26715 7.6496 4.32361 7.70651 4.39089 7.74806C4.45816 7.7896 4.53433 7.8146 4.61314 7.821L5.87714 7.926C6.11289 7.94581 6.33399 8.04856 6.50114 8.216L15.4451 17.159L17.2101 15.394L8.21614 6.399C8.03553 6.21867 7.93071 5.97611 7.92314 5.721L7.89014 4.573C7.88772 4.48924 7.86429 4.40744 7.82201 4.3351C7.77972 4.26276 7.71993 4.2022 7.64814 4.159L3.80314 1.852C3.70762 1.79481 3.59575 1.77113 3.48525 1.78471C3.37476 1.7983 3.27195 1.84837 3.19314 1.927L1.98014 3.14Z" fill="url(#paint5_linear_6_397)"/>
<path d="M1.98014 3.14C1.9012 3.21908 1.85101 3.32231 1.8376 3.43324C1.82419 3.54417 1.84832 3.65639 1.90614 3.752L4.22614 7.582C4.26715 7.6496 4.32361 7.70651 4.39089 7.74806C4.45816 7.7896 4.53433 7.8146 4.61314 7.821L5.87714 7.926C6.11289 7.94581 6.33399 8.04856 6.50114 8.216L15.4451 17.159L17.2101 15.394L8.21614 6.399C8.03553 6.21867 7.93071 5.97611 7.92314 5.721L7.89014 4.573C7.88772 4.48924 7.86429 4.40744 7.82201 4.3351C7.77972 4.26276 7.71993 4.2022 7.64814 4.159L3.80314 1.852C3.70762 1.79481 3.59575 1.77113 3.48525 1.78471C3.37476 1.7983 3.27195 1.84837 3.19314 1.927L1.98014 3.14Z" fill="url(#paint6_linear_6_397)"/>
<path d="M1.98014 3.14C1.9012 3.21908 1.85101 3.32231 1.8376 3.43324C1.82419 3.54417 1.84832 3.65639 1.90614 3.752L4.22614 7.582C4.26715 7.6496 4.32361 7.70651 4.39089 7.74806C4.45816 7.7896 4.53433 7.8146 4.61314 7.821L5.87714 7.926C6.11289 7.94581 6.33399 8.04856 6.50114 8.216L15.4451 17.159L17.2101 15.394L8.21614 6.399C8.03553 6.21867 7.93071 5.97611 7.92314 5.721L7.89014 4.573C7.88772 4.48924 7.86429 4.40744 7.82201 4.3351C7.77972 4.26276 7.71993 4.2022 7.64814 4.159L3.80314 1.852C3.70762 1.79481 3.59575 1.77113 3.48525 1.78471C3.37476 1.7983 3.27195 1.84837 3.19314 1.927L1.98014 3.14Z" fill="url(#paint7_radial_6_397)"/>
<path d="M1.98014 3.14C1.9012 3.21908 1.85101 3.32231 1.8376 3.43324C1.82419 3.54417 1.84832 3.65639 1.90614 3.752L4.22614 7.582C4.26715 7.6496 4.32361 7.70651 4.39089 7.74806C4.45816 7.7896 4.53433 7.8146 4.61314 7.821L5.87714 7.926C6.11289 7.94581 6.33399 8.04856 6.50114 8.216L15.4451 17.159L17.2101 15.394L8.21614 6.399C8.03553 6.21867 7.93071 5.97611 7.92314 5.721L7.89014 4.573C7.88772 4.48924 7.86429 4.40744 7.82201 4.3351C7.77972 4.26276 7.71993 4.2022 7.64814 4.159L3.80314 1.852C3.70762 1.79481 3.59575 1.77113 3.48525 1.78471C3.37476 1.7983 3.27195 1.84837 3.19314 1.927L1.98014 3.14Z" fill="url(#paint8_radial_6_397)"/>
<g filter="url(#filter3_f_6_397)">
<path d="M19.8034 16.4581C19.6358 16.2905 19.3644 16.2904 19.197 16.4577C19.0297 16.6251 19.0299 16.8965 19.1974 17.0641L26.1263 23.993C26.2939 24.1605 26.5653 24.1607 26.7327 23.9934C26.9 23.826 26.8999 23.5545 26.7323 23.387L19.8034 16.4581Z" fill="url(#paint9_linear_6_397)"/>
</g>
<g filter="url(#filter4_f_6_397)">
<path d="M17.2422 18.8366C16.8295 18.4238 16.1602 18.4238 15.7474 18.8366C15.3346 19.2494 15.3346 19.9186 15.7474 20.3314L22.9677 27.5517C23.3805 27.9645 24.0497 27.9645 24.4625 27.5517C24.8753 27.1389 24.8753 26.4696 24.4625 26.0569L17.2422 18.8366Z" fill="url(#paint10_linear_6_397)"/>
</g>
<g filter="url(#filter5_f_6_397)">
<path d="M16.9525 19.167C16.7108 18.9253 16.319 18.9251 16.0775 19.1667C15.8359 19.4082 15.8361 19.8 16.0778 20.0417L23.2571 27.221C23.4988 27.4627 23.8906 27.4629 24.1321 27.2213C24.3737 26.9798 24.3735 26.588 24.1318 26.3463L16.9525 19.167Z" fill="url(#paint11_linear_6_397)"/>
</g>
<g filter="url(#filter6_f_6_397)">
<path d="M15.8859 20.5315C15.7402 20.3859 15.7401 20.1498 15.8855 20.0044C16.031 19.8589 16.267 19.8591 16.4127 20.0047L23.2942 26.8863C23.4399 27.032 23.4401 27.268 23.2946 27.4134C23.1491 27.5589 22.9131 27.5588 22.7674 27.4131L15.8859 20.5315Z" fill="url(#paint12_linear_6_397)"/>
</g>
<path d="M16.6311 11.6595L11.7097 16.581C11.1141 17.1765 11.114 18.1419 11.7093 18.7373C12.3047 19.3326 13.2701 19.3325 13.8657 18.7369L18.7871 13.8155C19.3827 13.2199 19.3828 12.2545 18.7875 11.6591C18.1921 11.0638 17.2267 11.064 16.6311 11.6595Z" fill="url(#paint13_radial_6_397)"/>
<path d="M16.6311 11.6595L11.7097 16.581C11.1141 17.1765 11.114 18.1419 11.7093 18.7373C12.3047 19.3326 13.2701 19.3325 13.8657 18.7369L18.7871 13.8155C19.3827 13.2199 19.3828 12.2545 18.7875 11.6591C18.1921 11.0638 17.2267 11.064 16.6311 11.6595Z" fill="url(#paint14_linear_6_397)"/>
<path d="M16.6311 11.6595L11.7097 16.581C11.1141 17.1765 11.114 18.1419 11.7093 18.7373C12.3047 19.3326 13.2701 19.3325 13.8657 18.7369L18.7871 13.8155C19.3827 13.2199 19.3828 12.2545 18.7875 11.6591C18.1921 11.0638 17.2267 11.064 16.6311 11.6595Z" fill="url(#paint15_linear_6_397)"/>
<path d="M16.6311 11.6595L11.7097 16.581C11.1141 17.1765 11.114 18.1419 11.7093 18.7373C12.3047 19.3326 13.2701 19.3325 13.8657 18.7369L18.7871 13.8155C19.3827 13.2199 19.3828 12.2545 18.7875 11.6591C18.1921 11.0638 17.2267 11.064 16.6311 11.6595Z" fill="url(#paint16_radial_6_397)"/>
<defs>
<filter id="filter0_dd_6_397" x="0.833984" y="0.780975" width="17.376" height="17.378" filterUnits="userSpaceOnUse" color-interpolation-filters="sRGB">
<feFlood flood-opacity="0" result="BackgroundImageFix"/>
<feColorMatrix in="SourceAlpha" type="matrix" values="0 0 0 0 0 0 0 0 0 0 0 0 0 0 0 0 0 0 127 0" result="hardAlpha"/>
<feOffset dx="0.5" dy="-0.5"/>
<feGaussianBlur stdDeviation="0.25"/>
<feComposite in2="hardAlpha" operator="out"/>
<feColorMatrix type="matrix" values="0 0 0 0 0.615686 0 0 0 0 0.572549 0 0 0 0 0.631373 0 0 0 1 0"/>
<feBlend mode="normal" in2="BackgroundImageFix" result="effect1_dropShadow_6_397"/>
<feColorMatrix in="SourceAlpha" type="matrix" values="0 0 0 0 0 0 0 0 0 0 0 0 0 0 0 0 0 0 127 0" result="hardAlpha"/>
<feOffset dx="-0.5" dy="0.5"/>
<feGaussianBlur stdDeviation="0.25"/>
<feComposite in2="hardAlpha" operator="out"/>
<feColorMatrix type="matrix" values="0 0 0 0 0.85098 0 0 0 0 0.843137 0 0 0 0 0.858824 0 0 0 1 0"/>
<feBlend mode="normal" in2="effect1_dropShadow_6_397" result="effect2_dropShadow_6_397"/>
<feBlend mode="normal" in="SourceGraphic" in2="effect2_dropShadow_6_397" result="shape"/>
</filter>
<filter id="filter1_f_6_397" x="17.5502" y="14.582" width="11.3244" height="11.3256" filterUnits="userSpaceOnUse" color-interpolation-filters="sRGB">
<feFlood flood-opacity="0" result="BackgroundImageFix"/>
<feBlend mode="normal" in="SourceGraphic" in2="BackgroundImageFix" result="shape"/>
<feGaussianBlur stdDeviation="0.325" result="effect1_foregroundBlur_6_397"/>
</filter>
<filter id="filter2_d_6_397" x="12.5137" y="11.9624" width="18.1812" height="18.1807" filterUnits="userSpaceOnUse" color-interpolation-filters="sRGB">
<feFlood flood-opacity="0" result="BackgroundImageFix"/>
<feColorMatrix in="SourceAlpha" type="matrix" values="0 0 0 0 0 0 0 0 0 0 0 0 0 0 0 0 0 0 127 0" result="hardAlpha"/>
<feOffset dy="-0.5"/>
<feGaussianBlur stdDeviation="0.5"/>
<feComposite in2="hardAlpha" operator="out"/>
<feColorMatrix type="matrix" values="0 0 0 0 0.835294 0 0 0 0 0.317647 0 0 0 0 0.572549 0 0 0 1 0"/>
<feBlend mode="normal" in2="BackgroundImageFix" result="effect1_dropShadow_6_397"/>
<feBlend mode="normal" in="SourceGraphic" in2="effect1_dropShadow_6_397" result="shape"/>
</filter>
<filter id="filter3_f_6_397" x="18.4718" y="15.7323" width="8.98613" height="8.98644" filterUnits="userSpaceOnUse" color-interpolation-filters="sRGB">
<feFlood flood-opacity="0" result="BackgroundImageFix"/>
<feBlend mode="normal" in="SourceGraphic" in2="BackgroundImageFix" result="shape"/>
<feGaussianBlur stdDeviation="0.3" result="effect1_foregroundBlur_6_397"/>
</filter>
<filter id="filter4_f_6_397" x="14.788" y="17.877" width="10.634" height="10.6343" filterUnits="userSpaceOnUse" color-interpolation-filters="sRGB">
<feFlood flood-opacity="0" result="BackgroundImageFix"/>
<feBlend mode="normal" in="SourceGraphic" in2="BackgroundImageFix" result="shape"/>
<feGaussianBlur stdDeviation="0.325" result="effect1_foregroundBlur_6_397"/>
</filter>
<filter id="filter5_f_6_397" x="15.3965" y="18.4856" width="9.4165" height="9.41675" filterUnits="userSpaceOnUse" color-interpolation-filters="sRGB">
<feFlood flood-opacity="0" result="BackgroundImageFix"/>
<feBlend mode="normal" in="SourceGraphic" in2="BackgroundImageFix" result="shape"/>
<feGaussianBlur stdDeviation="0.25" result="effect1_foregroundBlur_6_397"/>
</filter>
<filter id="filter6_f_6_397" x="15.2764" y="19.3954" width="8.62744" height="8.62706" filterUnits="userSpaceOnUse" color-interpolation-filters="sRGB">
<feFlood flood-opacity="0" result="BackgroundImageFix"/>
<feBlend mode="normal" in="SourceGraphic" in2="BackgroundImageFix" result="shape"/>
<feGaussianBlur stdDeviation="0.25" result="effect1_foregroundBlur_6_397"/>
</filter>
<linearGradient id="paint0_linear_6_397" x1="19.5781" y1="16.611" x2="26.8461" y2="23.879" gradientUnits="userSpaceOnUse">
<stop stop-color="#FF399D"/>
<stop offset="1" stop-color="#FF335A"/>
</linearGradient>
<linearGradient id="paint1_linear_6_397" x1="18.8711" y1="15.904" x2="27.5541" y2="24.586" gradientUnits="userSpaceOnUse">
<stop stop-color="#FF66B1"/>
<stop offset="1" stop-color="#FF667D"/>
</linearGradient>
<linearGradient id="paint2_linear_6_397" x1="17.0933" y1="17.98" x2="26.9063" y2="27.855" gradientUnits="userSpaceOnUse">
<stop stop-color="#FF509E"/>
<stop offset="1" stop-color="#FF426F"/>
</linearGradient>
<linearGradient id="paint3_linear_6_397" x1="14.7963" y1="21.553" x2="24.9583" y2="18.97" gradientUnits="userSpaceOnUse">
<stop stop-color="#DE2E8A"/>
<stop offset="1" stop-color="#DE2E8A" stop-opacity="0"/>
</linearGradient>
<linearGradient id="paint4_linear_6_397" x1="16.0233" y1="16.013" x2="17.2823" y2="17.271" gradientUnits="userSpaceOnUse">
<stop offset="0.185" stop-color="#E1045D"/>
<stop offset="1" stop-color="#ED2786" stop-opacity="0"/>
</linearGradient>
<linearGradient id="paint5_linear_6_397" x1="2.62514" y1="2.479" x2="3.35914" y2="3.198" gradientUnits="userSpaceOnUse">
<stop offset="0.024" stop-color="#A4A09D"/>
<stop offset="1" stop-color="#A4A09D" stop-opacity="0"/>
</linearGradient>
<linearGradient id="paint6_linear_6_397" x1="14.8121" y1="15.292" x2="12.8901" y2="13.37" gradientUnits="userSpaceOnUse">
<stop offset="0.358" stop-color="#7C7073"/>
<stop offset="1" stop-color="#BAB4BF" stop-opacity="0"/>
</linearGradient>
<radialGradient id="paint7_radial_6_397" cx="0" cy="0" r="1" gradientUnits="userSpaceOnUse" gradientTransform="translate(5.15614 8.448) rotate(8.03571) scale(2.68259 1.55116)">
<stop offset="0.262" stop-color="#9573AD"/>
<stop offset="1" stop-color="#A095A4" stop-opacity="0"/>
</radialGradient>
<radialGradient id="paint8_radial_6_397" cx="0" cy="0" r="1" gradientUnits="userSpaceOnUse" gradientTransform="translate(9.52192 11.1979) rotate(44.24) scale(5.46468 0.40424)">
<stop stop-color="#9B819F"/>
<stop offset="1" stop-color="#9B819F" stop-opacity="0"/>
</radialGradient>
<linearGradient id="paint9_linear_6_397" x1="19.1974" y1="16.4574" x2="26.733" y2="23.993" gradientUnits="userSpaceOnUse">
<stop stop-color="#FF65A8"/>
<stop offset="1" stop-color="#FF5F7E"/>
</linearGradient>
<linearGradient id="paint10_linear_6_397" x1="15.7474" y1="18.8366" x2="24.4625" y2="27.5517" gradientUnits="userSpaceOnUse">
<stop stop-color="#EE2391"/>
<stop offset="1" stop-color="#ED2E59"/>
</linearGradient>
<linearGradient id="paint11_linear_6_397" x1="16.0778" y1="19.1663" x2="24.1325" y2="27.221" gradientUnits="userSpaceOnUse">
<stop stop-color="#F0278F"/>
<stop offset="1" stop-color="#EB2B63"/>
</linearGradient>
<linearGradient id="paint12_linear_6_397" x1="15.8852" y1="20.0047" x2="23.2942" y2="27.4138" gradientUnits="userSpaceOnUse">
<stop stop-color="#FB4092"/>
<stop offset="1" stop-color="#FD4574"/>
</linearGradient>
<radialGradient id="paint13_radial_6_397" cx="0" cy="0" r="1" gradientUnits="userSpaceOnUse" gradientTransform="translate(13.5298 18.7292) rotate(-44.8464) scale(8.24224 4.61857)">
<stop stop-color="#D2299A"/>
<stop offset="1" stop-color="#FF4F64"/>
</radialGradient>
<linearGradient id="paint14_linear_6_397" x1="17.6239" y1="15.1979" x2="17.2492" y2="14.8231" gradientUnits="userSpaceOnUse">
<stop stop-color="#AF0241"/>
<stop offset="1" stop-color="#DE1A88" stop-opacity="0"/>
</linearGradient>
<linearGradient id="paint15_linear_6_397" x1="13.9675" y1="13.8862" x2="14.9518" y2="14.8705" gradientUnits="userSpaceOnUse">
<stop stop-color="#C25067"/>
<stop offset="1" stop-color="#EA2C6B" stop-opacity="0"/>
</linearGradient>
<radialGradient id="paint16_radial_6_397" cx="0" cy="0" r="1" gradientUnits="userSpaceOnUse" gradientTransform="translate(17.3736 13.3226) rotate(135) scale(4.37522 0.83969)">
<stop offset="0.142" stop-color="#FF678B"/>
<stop offset="1" stop-color="#FF678B" stop-opacity="0"/>
</radialGradient>
</defs>
</svg>
