<svg width="256" height="117" viewBox="0 0 256 117" fill="none" xmlns="http://www.w3.org/2000/svg">
<path d="M196.819 62.7048C207.762 56.4542 218.677 50.1526 229.658 43.9673C240.08 38.094 252.343 43.51 254.706 54.9383C256.074 61.5494 253.105 68.6913 247.104 72.1697C227.426 83.5731 207.721 94.9311 187.917 106.115C181.787 109.577 175.474 108.94 169.888 104.698C164.213 100.392 162.425 94.4512 163.756 87.5371C165.275 82.2738 168.753 78.7549 173.495 76.1225C181.336 71.7706 189.05 67.1892 196.819 62.7048Z" fill="#CFC6DE"/>
<path d="M204.852 58.1599C193.936 51.8607 182.993 45.6108 172.115 39.2478C161.789 33.2072 160.375 19.9382 169.145 12.1879C174.219 7.70591 181.922 6.69026 187.952 10.1202C207.722 21.3652 227.466 32.6578 247.107 44.1209C253.186 47.6688 255.788 53.4258 254.888 60.3576C253.974 67.3969 249.697 71.9072 243.01 74.2189C237.666 75.5424 232.863 74.3061 228.199 71.5379C220.489 66.9606 212.642 62.6071 204.852 58.1599Z" fill="#CFC6DE"/>
<path d="M139.441 0C144.828 0 148.802 5.03132 147.555 10.2724L123.674 110.591C122.779 114.348 119.422 117 115.559 117C110.172 117 106.198 111.969 107.445 106.728L131.326 6.40924C132.221 2.65181 135.578 0 139.441 0Z" fill="#CFC6DE"/>
<path d="M59.0483 53.7029C52.0438 57.6605 45.0352 61.6108 38.0371 65.5805C33.9445 67.9027 29.8958 70.3041 25.7822 72.5875C17.4922 77.1891 7.6431 74.492 2.94278 66.3869C-1.54303 58.6527 1.03503 48.6255 9.01866 43.9908C28.539 32.6602 48.1097 21.412 67.751 10.2891C73.7749 6.87852 80.0247 7.30756 85.5952 11.3855C91.4744 15.6898 93.3992 21.7465 92.0789 28.8464C91.2599 30.565 90.7708 32.5794 89.5439 33.9328C87.55 36.1346 85.2832 38.2427 82.7595 39.7908C74.9498 44.5798 66.9645 49.0868 59.0483 53.7029Z" fill="#CFC6DE"/>
<path d="M51.0169 58.1421C57.9662 62.195 64.9107 66.2568 71.8665 70.2984C75.9347 72.6626 80.05 74.9485 84.0954 77.349C92.248 82.189 94.8245 92.0191 90.116 100.119C85.6229 107.85 75.6023 110.644 67.574 106.085C47.9465 94.9384 28.366 83.7088 8.85952 72.354C2.87709 68.8715 0.125962 63.2745 0.892149 56.438C1.70059 49.2218 6.01252 44.5362 12.8562 42.1227C14.7615 41.97 16.7603 41.3833 18.5526 41.7631C21.4671 42.3804 24.4368 43.2781 27.0465 44.6776C35.122 49.0084 43.039 53.6318 51.0169 58.1421Z" fill="#CFC6DE"/>
</svg>
