<svg width="28" height="28" viewBox="0 0 28 28" fill="none" xmlns="http://www.w3.org/2000/svg">
<path d="M13.9998 0.666668C6.63984 0.666668 0.666504 6.64 0.666504 14C0.666504 21.36 6.63984 27.3333 13.9998 27.3333C21.3598 27.3333 27.3332 21.36 27.3332 14C27.3332 6.64 21.3598 0.666668 13.9998 0.666668ZM20.1865 9.73333C19.9865 11.84 19.1198 16.96 18.6798 19.32C18.4932 20.32 18.1198 20.6533 17.7732 20.6933C16.9998 20.76 16.4132 20.1867 15.6665 19.6933C14.4932 18.92 13.8265 18.44 12.6932 17.6933C11.3732 16.8267 12.2265 16.3467 12.9865 15.5733C13.1865 15.3733 16.5998 12.2667 16.6665 11.9867C16.6758 11.9443 16.6745 11.9002 16.6629 11.8584C16.6513 11.8166 16.6296 11.7782 16.5998 11.7467C16.5198 11.68 16.4132 11.7067 16.3198 11.72C16.1998 11.7467 14.3332 12.9867 10.6932 15.44C10.1598 15.8 9.67984 15.9867 9.25317 15.9733C8.77317 15.96 7.8665 15.7067 7.1865 15.48C6.3465 15.2133 5.69317 15.0667 5.7465 14.6C5.77317 14.36 6.1065 14.12 6.73317 13.8667C10.6265 12.1733 13.2132 11.0533 14.5065 10.52C18.2132 8.97333 18.9732 8.70667 19.4798 8.70667C19.5865 8.70667 19.8398 8.73333 19.9998 8.86667C20.1332 8.97333 20.1732 9.12 20.1865 9.22667C20.1732 9.30667 20.1998 9.54667 20.1865 9.73333Z" fill="#4C0877"/>
</svg>
