<svg width="280" height="280" viewBox="0 0 280 280" fill="none" xmlns="http://www.w3.org/2000/svg">
<path d="M0 77.6795C0 68.1869 5.59501 59.5862 14.273 55.739L130.273 4.31229C136.467 1.56631 143.533 1.56631 149.727 4.31229L265.727 55.7389C274.405 59.5862 280 68.1869 280 77.6795V204.831C280 214.471 274.233 223.175 265.356 226.933L149.356 276.039C143.376 278.571 136.624 278.571 130.644 276.039L14.6438 226.933C5.76711 223.175 0 214.471 0 204.831V77.6795Z" fill="#574279"/>
<path d="M208.818 143.705C219.762 137.454 230.676 131.153 241.657 124.967C252.08 119.094 264.342 124.51 266.706 135.938C268.073 142.549 265.105 149.691 259.103 153.17C239.426 164.573 219.721 175.931 199.917 187.115C193.787 190.577 187.473 189.94 181.887 185.698C176.213 181.392 174.425 175.451 175.755 168.537C177.275 163.274 180.752 159.755 185.495 157.123C193.335 152.771 201.05 148.189 208.818 143.705Z" fill="#CFC6DE"/>
<path d="M216.852 139.16C205.936 132.861 194.993 126.611 184.115 120.248C173.789 114.207 172.375 100.938 181.145 93.1879C186.219 88.7059 193.922 87.6903 199.952 91.1202C219.722 102.365 239.466 113.658 259.107 125.121C265.186 128.669 267.788 134.426 266.889 141.358C265.975 148.397 261.697 152.907 255.01 155.219C249.666 156.542 244.863 155.306 240.2 152.538C232.489 147.961 224.642 143.607 216.852 139.16Z" fill="#CFC6DE"/>
<path d="M151.441 81C156.828 81 160.802 86.0313 159.555 91.2724L135.674 191.591C134.779 195.348 131.422 198 127.559 198C122.172 198 118.198 192.969 119.445 187.728L143.326 87.4092C144.221 83.6518 147.578 81 151.441 81Z" fill="#CFC6DE"/>
<path d="M71.0483 134.703C64.0438 138.661 57.0352 142.611 50.0371 146.581C45.9445 148.903 41.8958 151.304 37.7822 153.588C29.4922 158.189 19.6431 155.492 14.9428 147.387C10.457 139.653 13.035 129.625 21.0187 124.991C40.539 113.66 60.1097 102.412 79.751 91.2891C85.7749 87.8785 92.0247 88.3076 97.5952 92.3855C103.474 96.6898 105.399 102.747 104.079 109.846C103.26 111.565 102.771 113.579 101.544 114.933C99.55 117.135 97.2832 119.243 94.7595 120.791C86.9498 125.58 78.9645 130.087 71.0483 134.703Z" fill="#CFC6DE"/>
<path d="M63.017 139.142C69.9663 143.195 76.9107 147.257 83.8665 151.298C87.9347 153.663 92.05 155.948 96.0955 158.349C104.248 163.189 106.825 173.019 102.116 181.119C97.623 188.85 87.6024 191.644 79.5741 187.085C59.9465 175.938 40.3661 164.709 20.8596 153.354C14.8771 149.871 12.126 144.274 12.8922 137.438C13.7006 130.222 18.0126 125.536 24.8563 123.123C26.7616 122.97 28.7603 122.383 30.5527 122.763C33.4671 123.38 36.4368 124.278 39.0466 125.678C47.122 130.008 55.039 134.632 63.017 139.142Z" fill="#CFC6DE"/>
</svg>
