<svg width="177" height="177" viewBox="0 0 177 177" fill="none" xmlns="http://www.w3.org/2000/svg">
<g filter="url(#filter0_dd_70_2)">
<path d="M2.60229 9.87499C2.1095 10.3692 1.79624 11.0144 1.71252 11.7077C1.62879 12.401 1.77941 13.1024 2.14035 13.7L16.6228 37.6375C16.8788 38.06 17.2313 38.4157 17.6512 38.6753C18.0712 38.935 18.5466 39.0912 19.0386 39.1312L26.929 39.7875C28.4007 39.9113 29.7809 40.5535 30.8243 41.6L86.6565 97.4937L97.6744 86.4625L41.53 30.2437C40.4026 29.1167 39.7483 27.6007 39.701 26.0062L39.495 18.8312C39.4799 18.3078 39.3337 17.7965 39.0697 17.3443C38.8058 16.8922 38.4325 16.5138 37.9844 16.2437L13.9822 1.82499C13.386 1.46753 12.6876 1.31952 11.9979 1.40443C11.3081 1.48934 10.6664 1.80231 10.1744 2.29374L2.60229 9.87499Z" fill="#B9B3BE"/>
</g>
<g filter="url(#filter1_f_70_2)">
<path fill-rule="evenodd" clip-rule="evenodd" d="M119.229 89.65L162.24 132.712C162.997 133.442 163.601 134.316 164.017 135.282C164.433 136.249 164.652 137.288 164.662 138.341C164.672 139.393 164.473 140.437 164.075 141.411C163.678 142.385 163.091 143.27 162.348 144.014C161.605 144.758 160.721 145.347 159.748 145.745C158.776 146.144 157.733 146.344 156.682 146.335C155.631 146.325 154.593 146.106 153.627 145.69C152.662 145.274 151.789 144.67 151.06 143.912L108.049 100.85C107.278 100.124 106.661 99.25 106.233 98.2803C105.805 97.3107 105.577 96.265 105.56 95.2052C105.544 94.1454 105.74 93.0931 106.137 92.1106C106.534 91.1282 107.124 90.2355 107.872 89.4856C108.621 88.7357 109.512 88.1438 110.492 87.745C111.473 87.3462 112.524 87.1486 113.583 87.164C114.641 87.1793 115.686 87.4072 116.655 87.8343C117.624 88.2613 118.503 88.8787 119.229 89.65Z" fill="url(#paint0_linear_70_2)"/>
<path d="M162.908 132.056L119.891 88.9812C118.232 87.3203 115.982 86.3872 113.636 86.3872C111.29 86.3872 109.04 87.3203 107.381 88.9812C105.722 90.6421 104.791 92.8948 104.791 95.2437C104.791 97.5926 105.722 99.8453 107.381 101.506L150.392 144.575C152.05 146.237 154.299 147.171 156.645 147.172C158.991 147.173 161.242 146.241 162.902 144.581C164.561 142.921 165.494 140.669 165.496 138.32C165.497 135.971 164.566 133.718 162.908 132.056Z" stroke="url(#paint1_linear_70_2)" stroke-width="0.3"/>
</g>
<g filter="url(#filter2_d_70_2)">
<path d="M127.763 171.856C128.922 173.017 130.298 173.939 131.814 174.567C133.329 175.196 134.952 175.519 136.592 175.519C138.232 175.519 139.856 175.196 141.371 174.567C142.886 173.939 144.263 173.017 145.422 171.856L171.953 145.294C174.293 142.95 175.608 139.771 175.608 136.456C175.608 133.142 174.293 129.963 171.953 127.619L121.982 77.5937C120.968 76.578 119.763 75.7722 118.438 75.2225C117.112 74.6727 115.692 74.3898 114.257 74.3898C112.822 74.3898 111.402 74.6727 110.076 75.2225C108.751 75.7722 107.546 76.578 106.532 77.5937L77.7982 106.362C76.7836 107.378 75.9789 108.584 75.4298 109.911C74.8807 111.238 74.5981 112.66 74.5981 114.097C74.5981 115.533 74.8807 116.956 75.4298 118.283C75.9789 119.61 76.7836 120.816 77.7982 121.831L127.763 171.856Z" fill="url(#paint2_linear_70_2)"/>
<path d="M127.763 171.856C128.922 173.017 130.298 173.939 131.814 174.567C133.329 175.196 134.952 175.519 136.592 175.519C138.232 175.519 139.856 175.196 141.371 174.567C142.886 173.939 144.263 173.017 145.422 171.856L171.953 145.294C174.293 142.95 175.608 139.771 175.608 136.456C175.608 133.142 174.293 129.963 171.953 127.619L121.982 77.5937C120.968 76.578 119.763 75.7722 118.438 75.2225C117.112 74.6727 115.692 74.3898 114.257 74.3898C112.822 74.3898 111.402 74.6727 110.076 75.2225C108.751 75.7722 107.546 76.578 106.532 77.5937L77.7982 106.362C76.7836 107.378 75.9789 108.584 75.4298 109.911C74.8807 111.238 74.5981 112.66 74.5981 114.097C74.5981 115.533 74.8807 116.956 75.4298 118.283C75.9789 119.61 76.7836 120.816 77.7982 121.831L127.763 171.856Z" fill="url(#paint3_linear_70_2)"/>
<path d="M127.763 171.856C128.922 173.017 130.298 173.939 131.814 174.567C133.329 175.196 134.952 175.519 136.592 175.519C138.232 175.519 139.856 175.196 141.371 174.567C142.886 173.939 144.263 173.017 145.422 171.856L171.953 145.294C174.293 142.95 175.608 139.771 175.608 136.456C175.608 133.142 174.293 129.963 171.953 127.619L121.982 77.5937C120.968 76.578 119.763 75.7722 118.438 75.2225C117.112 74.6727 115.692 74.3898 114.257 74.3898C112.822 74.3898 111.402 74.6727 110.076 75.2225C108.751 75.7722 107.546 76.578 106.532 77.5937L77.7982 106.362C76.7836 107.378 75.9789 108.584 75.4298 109.911C74.8807 111.238 74.5981 112.66 74.5981 114.097C74.5981 115.533 74.8807 116.956 75.4298 118.283C75.9789 119.61 76.7836 120.816 77.7982 121.831L127.763 171.856Z" fill="url(#paint4_linear_70_2)"/>
</g>
<path d="M2.60229 9.87499C2.1095 10.3692 1.79624 11.0144 1.71252 11.7077C1.62879 12.401 1.77941 13.1024 2.14035 13.7L16.6228 37.6375C16.8788 38.06 17.2313 38.4157 17.6512 38.6753C18.0712 38.935 18.5466 39.0912 19.0386 39.1312L26.929 39.7875C28.4007 39.9113 29.7809 40.5535 30.8243 41.6L86.6565 97.4937L97.6744 86.4625L41.53 30.2437C40.4026 29.1167 39.7483 27.6007 39.701 26.0062L39.495 18.8312C39.4799 18.3078 39.3337 17.7965 39.0697 17.3443C38.8058 16.8922 38.4325 16.5138 37.9844 16.2437L13.9822 1.82499C13.386 1.46753 12.6876 1.31952 11.9979 1.40443C11.3081 1.48934 10.6664 1.80231 10.1744 2.29374L2.60229 9.87499Z" fill="url(#paint5_linear_70_2)"/>
<path d="M2.60229 9.87499C2.1095 10.3692 1.79624 11.0144 1.71252 11.7077C1.62879 12.401 1.77941 13.1024 2.14035 13.7L16.6228 37.6375C16.8788 38.06 17.2313 38.4157 17.6512 38.6753C18.0712 38.935 18.5466 39.0912 19.0386 39.1312L26.929 39.7875C28.4007 39.9113 29.7809 40.5535 30.8243 41.6L86.6565 97.4937L97.6744 86.4625L41.53 30.2437C40.4026 29.1167 39.7483 27.6007 39.701 26.0062L39.495 18.8312C39.4799 18.3078 39.3337 17.7965 39.0697 17.3443C38.8058 16.8922 38.4325 16.5138 37.9844 16.2437L13.9822 1.82499C13.386 1.46753 12.6876 1.31952 11.9979 1.40443C11.3081 1.48934 10.6664 1.80231 10.1744 2.29374L2.60229 9.87499Z" fill="url(#paint6_linear_70_2)"/>
<path d="M2.60229 9.87499C2.1095 10.3692 1.79624 11.0144 1.71252 11.7077C1.62879 12.401 1.77941 13.1024 2.14035 13.7L16.6228 37.6375C16.8788 38.06 17.2313 38.4157 17.6512 38.6753C18.0712 38.935 18.5466 39.0912 19.0386 39.1312L26.929 39.7875C28.4007 39.9113 29.7809 40.5535 30.8243 41.6L86.6565 97.4937L97.6744 86.4625L41.53 30.2437C40.4026 29.1167 39.7483 27.6007 39.701 26.0062L39.495 18.8312C39.4799 18.3078 39.3337 17.7965 39.0697 17.3443C38.8058 16.8922 38.4325 16.5138 37.9844 16.2437L13.9822 1.82499C13.386 1.46753 12.6876 1.31952 11.9979 1.40443C11.3081 1.48934 10.6664 1.80231 10.1744 2.29374L2.60229 9.87499Z" fill="url(#paint7_radial_70_2)"/>
<path d="M2.60229 9.87499C2.1095 10.3692 1.79624 11.0144 1.71252 11.7077C1.62879 12.401 1.77941 13.1024 2.14035 13.7L16.6228 37.6375C16.8788 38.06 17.2313 38.4157 17.6512 38.6753C18.0712 38.935 18.5466 39.0912 19.0386 39.1312L26.929 39.7875C28.4007 39.9113 29.7809 40.5535 30.8243 41.6L86.6565 97.4937L97.6744 86.4625L41.53 30.2437C40.4026 29.1167 39.7483 27.6007 39.701 26.0062L39.495 18.8312C39.4799 18.3078 39.3337 17.7965 39.0697 17.3443C38.8058 16.8922 38.4325 16.5138 37.9844 16.2437L13.9822 1.82499C13.386 1.46753 12.6876 1.31952 11.9979 1.40443C11.3081 1.48934 10.6664 1.80231 10.1744 2.29374L2.60229 9.87499Z" fill="url(#paint8_radial_70_2)"/>
<g filter="url(#filter3_f_70_2)">
<path d="M113.862 93.1129C112.816 92.0658 111.121 92.0648 110.076 93.1107C109.032 94.1566 109.033 95.8533 110.079 96.9004L153.332 140.206C154.378 141.253 156.073 141.254 157.117 140.208C158.162 139.163 158.161 137.466 157.115 136.419L113.862 93.1129Z" fill="url(#paint9_linear_70_2)"/>
</g>
<g filter="url(#filter4_f_70_2)">
<path d="M97.8754 107.979C95.2986 105.399 91.1208 105.399 88.5441 107.979C85.9673 110.559 85.9673 114.741 88.5441 117.321L133.616 162.448C136.193 165.028 140.371 165.028 142.947 162.448C145.524 159.868 145.524 155.685 142.947 153.105L97.8754 107.979Z" fill="url(#paint10_linear_70_2)"/>
</g>
<g filter="url(#filter5_f_70_2)">
<path d="M96.0665 110.044C94.5575 108.533 92.1119 108.532 90.6041 110.042C89.0963 111.551 89.0973 114 90.6063 115.511L135.422 160.381C136.931 161.892 139.377 161.893 140.885 160.383C142.392 158.874 142.391 156.425 140.882 154.914L96.0665 110.044Z" fill="url(#paint11_linear_70_2)"/>
</g>
<g filter="url(#filter6_f_70_2)">
<path d="M89.4083 118.572C88.499 117.662 88.498 116.187 89.4061 115.277C90.3141 114.368 91.7874 114.369 92.6967 115.28L135.654 158.289C136.564 159.2 136.565 160.675 135.657 161.584C134.748 162.493 133.275 162.492 132.366 161.582L89.4083 118.572Z" fill="url(#paint12_linear_70_2)"/>
</g>
<path d="M94.0607 63.1218L63.3389 93.881C59.6212 97.6031 59.6202 103.637 63.3367 107.358C67.0531 111.079 73.0797 111.078 76.7973 107.356L107.519 76.5966C111.237 72.8744 111.238 66.8406 107.521 63.1196C103.805 59.3986 97.7784 59.3996 94.0607 63.1218Z" fill="url(#paint13_radial_70_2)"/>
<path d="M94.0607 63.1218L63.3389 93.881C59.6212 97.6031 59.6202 103.637 63.3367 107.358C67.0531 111.079 73.0797 111.078 76.7973 107.356L107.519 76.5966C111.237 72.8744 111.238 66.8406 107.521 63.1196C103.805 59.3986 97.7784 59.3996 94.0607 63.1218Z" fill="url(#paint14_linear_70_2)"/>
<path d="M94.0607 63.1218L63.3389 93.881C59.6212 97.6031 59.6202 103.637 63.3367 107.358C67.0531 111.079 73.0797 111.078 76.7973 107.356L107.519 76.5966C111.237 72.8744 111.238 66.8406 107.521 63.1196C103.805 59.3986 97.7784 59.3996 94.0607 63.1218Z" fill="url(#paint15_linear_70_2)"/>
<path d="M94.0607 63.1218L63.3389 93.881C59.6212 97.6031 59.6202 103.637 63.3367 107.358C67.0531 111.079 73.0797 111.078 76.7973 107.356L107.519 76.5966C111.237 72.8744 111.238 66.8406 107.521 63.1196C103.805 59.3986 97.7784 59.3996 94.0607 63.1218Z" fill="url(#paint16_radial_70_2)"/>
<defs>
<filter id="filter0_dd_70_2" x="0.689941" y="0.381073" width="97.9844" height="98.1127" filterUnits="userSpaceOnUse" color-interpolation-filters="sRGB">
<feFlood flood-opacity="0" result="BackgroundImageFix"/>
<feColorMatrix in="SourceAlpha" type="matrix" values="0 0 0 0 0 0 0 0 0 0 0 0 0 0 0 0 0 0 127 0" result="hardAlpha"/>
<feOffset dx="0.5" dy="-0.5"/>
<feGaussianBlur stdDeviation="0.25"/>
<feComposite in2="hardAlpha" operator="out"/>
<feColorMatrix type="matrix" values="0 0 0 0 0.615686 0 0 0 0 0.572549 0 0 0 0 0.631373 0 0 0 1 0"/>
<feBlend mode="normal" in2="BackgroundImageFix" result="effect1_dropShadow_70_2"/>
<feColorMatrix in="SourceAlpha" type="matrix" values="0 0 0 0 0 0 0 0 0 0 0 0 0 0 0 0 0 0 127 0" result="hardAlpha"/>
<feOffset dx="-0.5" dy="0.5"/>
<feGaussianBlur stdDeviation="0.25"/>
<feComposite in2="hardAlpha" operator="out"/>
<feColorMatrix type="matrix" values="0 0 0 0 0.85098 0 0 0 0 0.843137 0 0 0 0 0.858824 0 0 0 1 0"/>
<feBlend mode="normal" in2="effect1_dropShadow_70_2" result="effect2_dropShadow_70_2"/>
<feBlend mode="normal" in="SourceGraphic" in2="effect2_dropShadow_70_2" result="shape"/>
</filter>
<filter id="filter1_f_70_2" x="103.991" y="85.5872" width="62.3049" height="62.3849" filterUnits="userSpaceOnUse" color-interpolation-filters="sRGB">
<feFlood flood-opacity="0" result="BackgroundImageFix"/>
<feBlend mode="normal" in="SourceGraphic" in2="BackgroundImageFix" result="shape"/>
<feGaussianBlur stdDeviation="0.325" result="effect1_foregroundBlur_70_2"/>
</filter>
<filter id="filter2_d_70_2" x="73.5981" y="72.8898" width="103.01" height="103.129" filterUnits="userSpaceOnUse" color-interpolation-filters="sRGB">
<feFlood flood-opacity="0" result="BackgroundImageFix"/>
<feColorMatrix in="SourceAlpha" type="matrix" values="0 0 0 0 0 0 0 0 0 0 0 0 0 0 0 0 0 0 127 0" result="hardAlpha"/>
<feOffset dy="-0.5"/>
<feGaussianBlur stdDeviation="0.5"/>
<feComposite in2="hardAlpha" operator="out"/>
<feColorMatrix type="matrix" values="0 0 0 0 0.835294 0 0 0 0 0.317647 0 0 0 0 0.572549 0 0 0 1 0"/>
<feBlend mode="normal" in2="BackgroundImageFix" result="effect1_dropShadow_70_2"/>
<feBlend mode="normal" in="SourceGraphic" in2="effect1_dropShadow_70_2" result="shape"/>
</filter>
<filter id="filter3_f_70_2" x="108.693" y="91.7269" width="49.8064" height="49.8653" filterUnits="userSpaceOnUse" color-interpolation-filters="sRGB">
<feFlood flood-opacity="0" result="BackgroundImageFix"/>
<feBlend mode="normal" in="SourceGraphic" in2="BackgroundImageFix" result="shape"/>
<feGaussianBlur stdDeviation="0.3" result="effect1_foregroundBlur_70_2"/>
</filter>
<filter id="filter4_f_70_2" x="85.9613" y="105.394" width="59.5686" height="59.6392" filterUnits="userSpaceOnUse" color-interpolation-filters="sRGB">
<feFlood flood-opacity="0" result="BackgroundImageFix"/>
<feBlend mode="normal" in="SourceGraphic" in2="BackgroundImageFix" result="shape"/>
<feGaussianBlur stdDeviation="0.325" result="effect1_foregroundBlur_70_2"/>
</filter>
<filter id="filter5_f_70_2" x="88.9741" y="108.41" width="53.5405" height="53.6047" filterUnits="userSpaceOnUse" color-interpolation-filters="sRGB">
<feFlood flood-opacity="0" result="BackgroundImageFix"/>
<feBlend mode="normal" in="SourceGraphic" in2="BackgroundImageFix" result="shape"/>
<feGaussianBlur stdDeviation="0.25" result="effect1_foregroundBlur_70_2"/>
</filter>
<filter id="filter6_f_70_2" x="88.2256" y="114.096" width="48.6113" height="48.6691" filterUnits="userSpaceOnUse" color-interpolation-filters="sRGB">
<feFlood flood-opacity="0" result="BackgroundImageFix"/>
<feBlend mode="normal" in="SourceGraphic" in2="BackgroundImageFix" result="shape"/>
<feGaussianBlur stdDeviation="0.25" result="effect1_foregroundBlur_70_2"/>
</filter>
<linearGradient id="paint0_linear_70_2" x1="112.456" y1="94.0687" x2="157.881" y2="139.439" gradientUnits="userSpaceOnUse">
<stop stop-color="#FF399D"/>
<stop offset="1" stop-color="#FF335A"/>
</linearGradient>
<linearGradient id="paint1_linear_70_2" x1="108.043" y1="89.65" x2="162.312" y2="143.847" gradientUnits="userSpaceOnUse">
<stop stop-color="#FF66B1"/>
<stop offset="1" stop-color="#FF667D"/>
</linearGradient>
<linearGradient id="paint2_linear_70_2" x1="96.9437" y1="102.625" x2="158.275" y2="164.269" gradientUnits="userSpaceOnUse">
<stop stop-color="#FF509E"/>
<stop offset="1" stop-color="#FF426F"/>
</linearGradient>
<linearGradient id="paint3_linear_70_2" x1="82.6048" y1="124.956" x2="146.05" y2="108.849" gradientUnits="userSpaceOnUse">
<stop stop-color="#DE2E8A"/>
<stop offset="1" stop-color="#DE2E8A" stop-opacity="0"/>
</linearGradient>
<linearGradient id="paint4_linear_70_2" x1="90.2643" y1="90.3312" x2="98.133" y2="98.1842" gradientUnits="userSpaceOnUse">
<stop offset="0.185" stop-color="#E1045D"/>
<stop offset="1" stop-color="#ED2786" stop-opacity="0"/>
</linearGradient>
<linearGradient id="paint5_linear_70_2" x1="6.62866" y1="5.74374" x2="11.216" y2="10.2319" gradientUnits="userSpaceOnUse">
<stop offset="0.024" stop-color="#A4A09D"/>
<stop offset="1" stop-color="#A4A09D" stop-opacity="0"/>
</linearGradient>
<linearGradient id="paint6_linear_70_2" x1="82.7051" y1="85.825" x2="70.6926" y2="73.8271" gradientUnits="userSpaceOnUse">
<stop offset="0.358" stop-color="#7C7073"/>
<stop offset="1" stop-color="#BAB4BF" stop-opacity="0"/>
</linearGradient>
<radialGradient id="paint7_radial_70_2" cx="0" cy="0" r="1" gradientUnits="userSpaceOnUse" gradientTransform="translate(22.4282 43.05) rotate(8.04534) scale(16.7463 9.69453)">
<stop offset="0.262" stop-color="#9573AD"/>
<stop offset="1" stop-color="#A095A4" stop-opacity="0"/>
</radialGradient>
<radialGradient id="paint8_radial_70_2" cx="0" cy="0" r="1" gradientUnits="userSpaceOnUse" gradientTransform="translate(49.6813 60.2369) rotate(44.2747) scale(34.133 2.52501)">
<stop stop-color="#9B819F"/>
<stop offset="1" stop-color="#9B819F" stop-opacity="0"/>
</radialGradient>
<linearGradient id="paint9_linear_70_2" x1="110.079" y1="93.1085" x2="157.176" y2="140.149" gradientUnits="userSpaceOnUse">
<stop stop-color="#FF65A8"/>
<stop offset="1" stop-color="#FF5F7E"/>
</linearGradient>
<linearGradient id="paint10_linear_70_2" x1="88.5441" y1="107.979" x2="143.013" y2="162.382" gradientUnits="userSpaceOnUse">
<stop stop-color="#EE2391"/>
<stop offset="1" stop-color="#ED2E59"/>
</linearGradient>
<linearGradient id="paint11_linear_70_2" x1="90.6063" y1="110.039" x2="140.948" y2="160.32" gradientUnits="userSpaceOnUse">
<stop stop-color="#F0278F"/>
<stop offset="1" stop-color="#EB2B63"/>
</linearGradient>
<linearGradient id="paint12_linear_70_2" x1="89.4038" y1="115.28" x2="135.71" y2="161.53" gradientUnits="userSpaceOnUse">
<stop stop-color="#FB4092"/>
<stop offset="1" stop-color="#FD4574"/>
</linearGradient>
<radialGradient id="paint13_radial_70_2" cx="0" cy="0" r="1" gradientUnits="userSpaceOnUse" gradientTransform="translate(74.7007 107.307) rotate(-44.8811) scale(51.4826 28.8486)">
<stop stop-color="#D2299A"/>
<stop offset="1" stop-color="#FF4F64"/>
</radialGradient>
<linearGradient id="paint14_linear_70_2" x1="100.258" y1="85.2366" x2="97.9158" y2="82.8971" gradientUnits="userSpaceOnUse">
<stop stop-color="#AF0241"/>
<stop offset="1" stop-color="#DE1A88" stop-opacity="0"/>
</linearGradient>
<linearGradient id="paint15_linear_70_2" x1="77.433" y1="77.0386" x2="83.5848" y2="83.1829" gradientUnits="userSpaceOnUse">
<stop stop-color="#C25067"/>
<stop offset="1" stop-color="#EA2C6B" stop-opacity="0"/>
</linearGradient>
<radialGradient id="paint16_radial_70_2" cx="0" cy="0" r="1" gradientUnits="userSpaceOnUse" gradientTransform="translate(98.6955 73.5163) rotate(134.965) scale(27.3286 5.24488)">
<stop offset="0.142" stop-color="#FF678B"/>
<stop offset="1" stop-color="#FF678B" stop-opacity="0"/>
</radialGradient>
</defs>
</svg>
