<svg width="28" height="28" viewBox="0 0 28 28" fill="none" xmlns="http://www.w3.org/2000/svg">
<g filter="url(#filter0_d_6_378)">
<path d="M1.00279 22.91C1.09279 23.252 1.51379 23.335 1.76379 23.085L4.18779 20.661C4.32841 20.5206 4.51903 20.4417 4.71779 20.4417C4.91654 20.4417 5.10716 20.5206 5.24779 20.661L6.79779 22.211C6.93824 22.3516 7.01713 22.5423 7.01713 22.741C7.01713 22.9398 6.93824 23.1304 6.79779 23.271L4.36379 25.703C4.11379 25.953 4.19579 26.373 4.53679 26.465C5.2793 26.6645 6.05774 26.6906 6.81193 26.5412C7.56613 26.3918 8.27587 26.071 8.88628 25.6035C9.4967 25.1361 9.99144 24.5345 10.3323 23.8453C10.6731 23.1562 10.8508 22.3978 10.8518 21.629C10.8518 21.2046 10.7981 20.7819 10.6918 20.371C10.6617 20.2625 10.6605 20.1481 10.6882 20.039C10.7159 19.93 10.7716 19.83 10.8498 19.749L19.4378 11.16C19.5988 11 19.8358 10.946 20.0558 11.002C20.9011 11.2156 21.7875 11.2049 22.6273 10.9708C23.4671 10.7367 24.2313 10.2875 24.8443 9.66748C25.4572 9.04746 25.8977 8.27817 26.1221 7.4357C26.3465 6.59323 26.3471 5.70677 26.1238 4.864C26.0338 4.522 25.6118 4.439 25.3618 4.689L22.9388 7.113C22.7982 7.25345 22.6075 7.33234 22.4088 7.33234C22.21 7.33234 22.0194 7.25345 21.8788 7.113L20.3288 5.564C20.1883 5.42338 20.1094 5.23276 20.1094 5.034C20.1094 4.83525 20.1883 4.64463 20.3288 4.504L22.7618 2.071C23.0118 1.821 22.9288 1.401 22.5888 1.309C21.7431 1.07995 20.8522 1.07675 20.0049 1.29973C19.1576 1.52271 18.3837 1.96406 17.7603 2.57972C17.137 3.19537 16.6861 3.96378 16.4526 4.80822C16.2191 5.65266 16.2112 6.54358 16.4298 7.392C16.4598 7.50024 16.4611 7.61441 16.4335 7.7233C16.406 7.83218 16.3506 7.93202 16.2728 8.013L7.67479 16.611C7.5945 16.6883 7.4956 16.7436 7.38768 16.7714C7.27975 16.7993 7.16646 16.7988 7.05879 16.77C6.21404 16.5586 5.32877 16.5711 4.49034 16.8063C3.65191 17.0415 2.8893 17.4912 2.27776 18.1112C1.66621 18.7311 1.22689 19.4998 1.00312 20.3413C0.779361 21.1829 0.7799 22.0682 1.00279 22.91Z" fill="url(#paint0_linear_6_378)"/>
<path d="M1.00279 22.91C1.09279 23.252 1.51379 23.335 1.76379 23.085L4.18779 20.661C4.32841 20.5206 4.51903 20.4417 4.71779 20.4417C4.91654 20.4417 5.10716 20.5206 5.24779 20.661L6.79779 22.211C6.93824 22.3516 7.01713 22.5423 7.01713 22.741C7.01713 22.9398 6.93824 23.1304 6.79779 23.271L4.36379 25.703C4.11379 25.953 4.19579 26.373 4.53679 26.465C5.2793 26.6645 6.05774 26.6906 6.81193 26.5412C7.56613 26.3918 8.27587 26.071 8.88628 25.6035C9.4967 25.1361 9.99144 24.5345 10.3323 23.8453C10.6731 23.1562 10.8508 22.3978 10.8518 21.629C10.8518 21.2046 10.7981 20.7819 10.6918 20.371C10.6617 20.2625 10.6605 20.1481 10.6882 20.039C10.7159 19.93 10.7716 19.83 10.8498 19.749L19.4378 11.16C19.5988 11 19.8358 10.946 20.0558 11.002C20.9011 11.2156 21.7875 11.2049 22.6273 10.9708C23.4671 10.7367 24.2313 10.2875 24.8443 9.66748C25.4572 9.04746 25.8977 8.27817 26.1221 7.4357C26.3465 6.59323 26.3471 5.70677 26.1238 4.864C26.0338 4.522 25.6118 4.439 25.3618 4.689L22.9388 7.113C22.7982 7.25345 22.6075 7.33234 22.4088 7.33234C22.21 7.33234 22.0194 7.25345 21.8788 7.113L20.3288 5.564C20.1883 5.42338 20.1094 5.23276 20.1094 5.034C20.1094 4.83525 20.1883 4.64463 20.3288 4.504L22.7618 2.071C23.0118 1.821 22.9288 1.401 22.5888 1.309C21.7431 1.07995 20.8522 1.07675 20.0049 1.29973C19.1576 1.52271 18.3837 1.96406 17.7603 2.57972C17.137 3.19537 16.6861 3.96378 16.4526 4.80822C16.2191 5.65266 16.2112 6.54358 16.4298 7.392C16.4598 7.50024 16.4611 7.61441 16.4335 7.7233C16.406 7.83218 16.3506 7.93202 16.2728 8.013L7.67479 16.611C7.5945 16.6883 7.4956 16.7436 7.38768 16.7714C7.27975 16.7993 7.16646 16.7988 7.05879 16.77C6.21404 16.5586 5.32877 16.5711 4.49034 16.8063C3.65191 17.0415 2.8893 17.4912 2.27776 18.1112C1.66621 18.7311 1.22689 19.4998 1.00312 20.3413C0.779361 21.1829 0.7799 22.0682 1.00279 22.91Z" fill="url(#paint1_radial_6_378)"/>
</g>
<g filter="url(#filter1_f_6_378)">
<path d="M7.52481 16.976C7.3824 17.0576 7.21369 17.0802 7.05481 17.039C6.35731 16.8645 5.62921 16.8513 4.92584 17.0004C4.22248 17.1495 3.56237 17.457 2.99568 17.8995C2.42899 18.3421 1.97064 18.9079 1.65546 19.5542C1.34029 20.2004 1.17659 20.91 1.17681 21.629C1.17681 21.869 0.967811 23.319 1.74781 22.539L4.27981 20.258C4.34557 20.1921 4.42366 20.1399 4.50963 20.1043C4.5956 20.0686 4.68775 20.0503 4.78081 20.0503C4.87387 20.0503 4.96603 20.0686 5.05199 20.1043C5.13796 20.1399 5.21605 20.1921 5.28181 20.258L7.21681 22.18C7.34957 22.3129 7.42413 22.4931 7.42413 22.681C7.42413 22.8689 7.34957 23.0491 7.21681 23.182L4.76381 25.664C4.52781 25.9 4.35081 26.111 4.67181 26.197C5.37323 26.3854 6.10858 26.4101 6.82102 26.269C7.53347 26.1279 8.20394 25.8249 8.7806 25.3833C9.35726 24.9418 9.82467 24.3736 10.1467 23.7226C10.4687 23.0716 10.6368 22.3553 10.6378 21.629C10.6378 21.219 10.5858 20.82 10.4878 20.44C10.4525 20.3068 10.4613 20.1658 10.5128 20.038L7.52481 16.976Z" fill="url(#paint2_radial_6_378)"/>
<path d="M7.52481 16.976C7.3824 17.0576 7.21369 17.0802 7.05481 17.039C6.35731 16.8645 5.62921 16.8513 4.92584 17.0004C4.22248 17.1495 3.56237 17.457 2.99568 17.8995C2.42899 18.3421 1.97064 18.9079 1.65546 19.5542C1.34029 20.2004 1.17659 20.91 1.17681 21.629C1.17681 21.869 0.967811 23.319 1.74781 22.539L4.27981 20.258C4.34557 20.1921 4.42366 20.1399 4.50963 20.1043C4.5956 20.0686 4.68775 20.0503 4.78081 20.0503C4.87387 20.0503 4.96603 20.0686 5.05199 20.1043C5.13796 20.1399 5.21605 20.1921 5.28181 20.258L7.21681 22.18C7.34957 22.3129 7.42413 22.4931 7.42413 22.681C7.42413 22.8689 7.34957 23.0491 7.21681 23.182L4.76381 25.664C4.52781 25.9 4.35081 26.111 4.67181 26.197C5.37323 26.3854 6.10858 26.4101 6.82102 26.269C7.53347 26.1279 8.20394 25.8249 8.7806 25.3833C9.35726 24.9418 9.82467 24.3736 10.1467 23.7226C10.4687 23.0716 10.6368 22.3553 10.6378 21.629C10.6378 21.219 10.5858 20.82 10.4878 20.44C10.4525 20.3068 10.4613 20.1658 10.5128 20.038L7.52481 16.976Z" fill="url(#paint3_linear_6_378)"/>
<path d="M7.52481 16.976C7.3824 17.0576 7.21369 17.0802 7.05481 17.039C6.35731 16.8645 5.62921 16.8513 4.92584 17.0004C4.22248 17.1495 3.56237 17.457 2.99568 17.8995C2.42899 18.3421 1.97064 18.9079 1.65546 19.5542C1.34029 20.2004 1.17659 20.91 1.17681 21.629C1.17681 21.869 0.967811 23.319 1.74781 22.539L4.27981 20.258C4.34557 20.1921 4.42366 20.1399 4.50963 20.1043C4.5956 20.0686 4.68775 20.0503 4.78081 20.0503C4.87387 20.0503 4.96603 20.0686 5.05199 20.1043C5.13796 20.1399 5.21605 20.1921 5.28181 20.258L7.21681 22.18C7.34957 22.3129 7.42413 22.4931 7.42413 22.681C7.42413 22.8689 7.34957 23.0491 7.21681 23.182L4.76381 25.664C4.52781 25.9 4.35081 26.111 4.67181 26.197C5.37323 26.3854 6.10858 26.4101 6.82102 26.269C7.53347 26.1279 8.20394 25.8249 8.7806 25.3833C9.35726 24.9418 9.82467 24.3736 10.1467 23.7226C10.4687 23.0716 10.6368 22.3553 10.6378 21.629C10.6378 21.219 10.5858 20.82 10.4878 20.44C10.4525 20.3068 10.4613 20.1658 10.5128 20.038L7.52481 16.976Z" fill="url(#paint4_radial_6_378)"/>
</g>
<g filter="url(#filter2_f_6_378)">
<path d="M19.5889 10.787C19.7313 10.7054 19.9 10.6828 20.0589 10.724C20.7564 10.8985 21.4845 10.9117 22.1879 10.7626C22.8912 10.6135 23.5513 10.306 24.118 9.86346C24.6847 9.42095 25.1431 8.85506 25.4582 8.20883C25.7734 7.56259 25.9371 6.853 25.9369 6.13401C25.9369 5.89401 25.9809 4.43101 25.2009 5.21101L22.8339 7.505C22.7681 7.57086 22.69 7.6231 22.6041 7.65875C22.5181 7.6944 22.4259 7.71274 22.3329 7.71274C22.2398 7.71274 22.1477 7.6944 22.0617 7.65875C21.9757 7.6231 21.8976 7.57086 21.8319 7.505L19.8969 5.583C19.7641 5.45007 19.6896 5.26988 19.6896 5.08201C19.6896 4.89413 19.7641 4.71394 19.8969 4.581L22.3499 2.10001C22.5849 1.86401 22.7629 1.653 22.4409 1.566C21.6414 1.35144 20.7996 1.35014 19.9994 1.56223C19.1992 1.77432 18.4686 2.1924 17.8803 2.77481C17.2921 3.35721 16.8667 4.08361 16.6466 4.88162C16.4265 5.67963 16.4193 6.52138 16.6259 7.323C16.6614 7.4565 16.6526 7.59792 16.6009 7.726L19.5889 10.787Z" fill="url(#paint5_linear_6_378)"/>
<path d="M19.5889 10.787C19.7313 10.7054 19.9 10.6828 20.0589 10.724C20.7564 10.8985 21.4845 10.9117 22.1879 10.7626C22.8912 10.6135 23.5513 10.306 24.118 9.86346C24.6847 9.42095 25.1431 8.85506 25.4582 8.20883C25.7734 7.56259 25.9371 6.853 25.9369 6.13401C25.9369 5.89401 25.9809 4.43101 25.2009 5.21101L22.8339 7.505C22.7681 7.57086 22.69 7.6231 22.6041 7.65875C22.5181 7.6944 22.4259 7.71274 22.3329 7.71274C22.2398 7.71274 22.1477 7.6944 22.0617 7.65875C21.9757 7.6231 21.8976 7.57086 21.8319 7.505L19.8969 5.583C19.7641 5.45007 19.6896 5.26988 19.6896 5.08201C19.6896 4.89413 19.7641 4.71394 19.8969 4.581L22.3499 2.10001C22.5849 1.86401 22.7629 1.653 22.4409 1.566C21.6414 1.35144 20.7996 1.35014 19.9994 1.56223C19.1992 1.77432 18.4686 2.1924 17.8803 2.77481C17.2921 3.35721 16.8667 4.08361 16.6466 4.88162C16.4265 5.67963 16.4193 6.52138 16.6259 7.323C16.6614 7.4565 16.6526 7.59792 16.6009 7.726L19.5889 10.787Z" fill="url(#paint6_radial_6_378)"/>
</g>
<g filter="url(#filter3_f_6_378)">
<path d="M8.73682 18.481L18.0968 9.317L19.2628 10.508L9.90282 19.672L8.73682 18.481Z" fill="#CCBCE1"/>
</g>
<g filter="url(#filter4_f_6_378)">
<path d="M8.61 17.971L17.59 9.18001L16.833 8.40801L7.854 17.198L8.61 17.971Z" fill="#E6E2F1"/>
</g>
<g filter="url(#filter5_f_6_378)">
<path d="M10.2329 19.93L7.79492 17.336" stroke="#CBBAE2" stroke-width="0.25"/>
</g>
<defs>
<filter id="filter0_d_6_378" x="0.435449" y="0.534827" width="26.6556" height="26.7019" filterUnits="userSpaceOnUse" color-interpolation-filters="sRGB">
<feFlood flood-opacity="0" result="BackgroundImageFix"/>
<feColorMatrix in="SourceAlpha" type="matrix" values="0 0 0 0 0 0 0 0 0 0 0 0 0 0 0 0 0 0 127 0" result="hardAlpha"/>
<feOffset dx="0.2"/>
<feGaussianBlur stdDeviation="0.3"/>
<feComposite in2="hardAlpha" operator="out"/>
<feColorMatrix type="matrix" values="0 0 0 0 0.701961 0 0 0 0 0.686275 0 0 0 0 0.733333 0 0 0 1 0"/>
<feBlend mode="normal" in2="BackgroundImageFix" result="effect1_dropShadow_6_378"/>
<feBlend mode="normal" in="SourceGraphic" in2="effect1_dropShadow_6_378" result="shape"/>
</filter>
<filter id="filter1_f_6_378" x="0.651367" y="16.3976" width="10.4863" height="10.4616" filterUnits="userSpaceOnUse" color-interpolation-filters="sRGB">
<feFlood flood-opacity="0" result="BackgroundImageFix"/>
<feBlend mode="normal" in="SourceGraphic" in2="BackgroundImageFix" result="shape"/>
<feGaussianBlur stdDeviation="0.25" result="effect1_foregroundBlur_6_378"/>
</filter>
<filter id="filter2_f_6_378" x="15.9761" y="0.904114" width="10.4614" height="10.4613" filterUnits="userSpaceOnUse" color-interpolation-filters="sRGB">
<feFlood flood-opacity="0" result="BackgroundImageFix"/>
<feBlend mode="normal" in="SourceGraphic" in2="BackgroundImageFix" result="shape"/>
<feGaussianBlur stdDeviation="0.25" result="effect1_foregroundBlur_6_378"/>
</filter>
<filter id="filter3_f_6_378" x="7.23682" y="7.817" width="13.5259" height="13.355" filterUnits="userSpaceOnUse" color-interpolation-filters="sRGB">
<feFlood flood-opacity="0" result="BackgroundImageFix"/>
<feBlend mode="normal" in="SourceGraphic" in2="BackgroundImageFix" result="shape"/>
<feGaussianBlur stdDeviation="0.75" result="effect1_foregroundBlur_6_378"/>
</filter>
<filter id="filter4_f_6_378" x="6.354" y="6.908" width="12.7358" height="12.563" filterUnits="userSpaceOnUse" color-interpolation-filters="sRGB">
<feFlood flood-opacity="0" result="BackgroundImageFix"/>
<feBlend mode="normal" in="SourceGraphic" in2="BackgroundImageFix" result="shape"/>
<feGaussianBlur stdDeviation="0.75" result="effect1_foregroundBlur_6_378"/>
</filter>
<filter id="filter5_f_6_378" x="7.20361" y="16.7504" width="3.62061" height="3.76521" filterUnits="userSpaceOnUse" color-interpolation-filters="sRGB">
<feFlood flood-opacity="0" result="BackgroundImageFix"/>
<feBlend mode="normal" in="SourceGraphic" in2="BackgroundImageFix" result="shape"/>
<feGaussianBlur stdDeviation="0.25" result="effect1_foregroundBlur_6_378"/>
</filter>
<linearGradient id="paint0_linear_6_378" x1="20.2438" y1="16.604" x2="14.0178" y2="10.508" gradientUnits="userSpaceOnUse">
<stop stop-color="#BAB6C1"/>
<stop offset="1" stop-color="#E0DBE7"/>
</linearGradient>
<radialGradient id="paint1_radial_6_378" cx="0" cy="0" r="1" gradientUnits="userSpaceOnUse" gradientTransform="translate(15.0138 15.242) rotate(-138.122) scale(1.21715 9.89349)">
<stop stop-color="#C6B7DB"/>
<stop offset="1" stop-color="#C6B7DB" stop-opacity="0"/>
</radialGradient>
<radialGradient id="paint2_radial_6_378" cx="0" cy="0" r="1" gradientUnits="userSpaceOnUse" gradientTransform="translate(9.74413 21.6291) rotate(175.251) scale(5.92465 8.69968)">
<stop stop-color="#D5C6EB"/>
<stop offset="1" stop-color="#D5C6EB" stop-opacity="0"/>
</radialGradient>
<linearGradient id="paint3_linear_6_378" x1="5.63881" y1="27.086" x2="5.48281" y2="24.055" gradientUnits="userSpaceOnUse">
<stop stop-color="#A8A6B0"/>
<stop offset="1" stop-color="#A8A6B0" stop-opacity="0"/>
</linearGradient>
<radialGradient id="paint4_radial_6_378" cx="0" cy="0" r="1" gradientUnits="userSpaceOnUse" gradientTransform="translate(2.29481 17.336) rotate(48.27) scale(3.09864 4.80564)">
<stop offset="0.202" stop-color="#E4E1EB"/>
<stop offset="1" stop-color="#E4E1EB" stop-opacity="0"/>
</radialGradient>
<linearGradient id="paint5_linear_6_378" x1="18.2169" y1="10.133" x2="21.8109" y2="6.789" gradientUnits="userSpaceOnUse">
<stop stop-color="#B8B0C5"/>
<stop offset="1" stop-color="#B8B0C5" stop-opacity="0"/>
</linearGradient>
<radialGradient id="paint6_radial_6_378" cx="0" cy="0" r="1" gradientUnits="userSpaceOnUse" gradientTransform="translate(23.4829 5.11701) rotate(94.8991) scale(4.39104 4.30831)">
<stop offset="0.26" stop-color="#CEBDE5"/>
<stop offset="1" stop-color="#CEBDE5" stop-opacity="0"/>
</radialGradient>
</defs>
</svg>
