<svg width="720" height="635" viewBox="0 0 720 635" fill="none" xmlns="http://www.w3.org/2000/svg">
<path fill-rule="evenodd" clip-rule="evenodd" d="M574.234 549.732C574.354 549.662 575.103 550.651 576.21 552.599C577.322 554.54 578.705 557.488 579.991 561.292C582.625 568.874 584.28 580.067 583.299 592.273C582.327 604.478 579.507 615.191 577.332 622.817C575.106 630.446 573.468 635.077 573.186 634.999C572.874 634.913 573.979 630.121 575.806 622.418C577.585 614.715 580.124 604.059 581.075 592.104C582.031 580.153 580.671 569.275 578.484 561.755C576.361 554.197 573.884 549.914 574.234 549.732Z" fill="white"/>
<path fill-rule="evenodd" clip-rule="evenodd" d="M581.75 488.649C581.89 488.587 582.796 490.246 584.307 493.304C585.817 496.363 587.938 500.82 590.448 506.381C595.427 517.504 602.128 533.074 606.989 551.151C609.378 560.193 611.006 568.983 611.831 577.056C612.662 585.127 612.747 592.461 612.331 598.581C611.928 604.704 611.156 609.618 610.412 612.959C609.677 616.306 609.094 618.109 608.963 618.08C608.55 618 610.37 610.631 610.756 598.508C611.237 586.409 609.649 569.599 604.833 551.726C600.028 533.846 593.601 518.267 589 507.006C586.684 501.372 584.81 496.811 583.513 493.658C582.247 490.493 581.609 488.712 581.75 488.649Z" fill="white"/>
<path fill-rule="evenodd" clip-rule="evenodd" d="M303.597 440.299C303.855 440.577 301.326 442.991 298.043 447.472C297.229 448.597 296.344 449.829 295.516 451.235C294.61 452.59 293.823 454.144 292.946 455.749C291.316 459.02 289.769 462.738 288.576 466.786C287.435 470.848 286.769 474.82 286.411 478.458C286.302 480.282 286.143 482.018 286.188 483.646C286.143 485.278 286.237 486.794 286.328 488.181C286.725 493.721 287.586 497.111 287.219 497.21C286.997 497.286 285.581 494.012 284.76 488.342C284.563 486.925 284.375 485.369 284.339 483.685C284.212 482.002 284.303 480.202 284.36 478.307C284.617 474.529 285.247 470.385 286.433 466.169C287.67 461.965 289.337 458.122 291.131 454.786C292.089 453.149 292.967 451.576 293.97 450.22C294.894 448.812 295.883 447.594 296.802 446.499C300.511 442.135 303.451 440.117 303.597 440.299Z" fill="white"/>
<path fill-rule="evenodd" clip-rule="evenodd" d="M309.533 459.855C309.72 460.154 308.311 461.233 306.47 463.295C305.538 464.314 304.556 465.634 303.59 467.164C302.665 468.72 301.778 470.506 301.082 472.474C300.416 474.452 300.015 476.405 299.787 478.203C299.603 480.003 299.563 481.646 299.67 483.025C299.848 485.783 300.295 487.503 299.962 487.624C299.723 487.724 298.72 486.15 298.106 483.235C297.787 481.781 297.655 480.001 297.738 478.029C297.868 476.064 298.244 473.908 298.973 471.746C299.731 469.594 300.764 467.666 301.873 466.037C303.02 464.432 304.222 463.113 305.368 462.167C307.647 460.247 309.407 459.626 309.533 459.855Z" fill="white"/>
<path fill-rule="evenodd" clip-rule="evenodd" d="M227.126 257.599C227.241 257.498 228.239 258.481 229.952 260.356C230.822 261.283 231.85 262.451 232.937 263.892C234.036 265.319 235.358 266.905 236.598 268.81C237.238 269.75 237.91 270.735 238.608 271.761C239.299 272.794 239.926 273.925 240.624 275.066C242.052 277.334 243.333 279.894 244.726 282.564C247.356 287.981 249.871 294.129 251.874 300.793C253.812 307.477 255.043 314.007 255.778 319.982C256.059 322.982 256.374 325.828 256.406 328.506C256.44 329.845 256.528 331.134 256.508 332.379C256.481 333.62 256.452 334.81 256.426 335.947C256.419 338.224 256.171 340.271 256.025 342.069C255.893 343.869 255.666 345.407 255.439 346.657C255.02 349.164 254.716 350.531 254.564 350.51C254.171 350.458 254.911 344.905 254.849 335.931C254.828 334.808 254.809 333.636 254.788 332.411C254.762 331.188 254.632 329.918 254.559 328.604C254.448 325.971 254.069 323.179 253.739 320.237C252.903 314.379 251.637 307.987 249.734 301.427C247.767 294.886 245.359 288.83 242.877 283.457C241.557 280.81 240.358 278.26 239.022 275.989C238.367 274.846 237.786 273.71 237.145 272.669C236.497 271.631 235.877 270.634 235.285 269.682C230.462 262.115 226.822 257.857 227.126 257.599Z" fill="white"/>
<path fill-rule="evenodd" clip-rule="evenodd" d="M252.382 268.055C252.572 267.886 255.134 270.283 258.392 274.904C260.031 277.204 261.759 280.103 263.44 283.446C265.073 286.812 266.632 290.633 267.875 294.775C269.081 298.929 269.848 302.986 270.305 306.699C270.708 310.42 270.833 313.792 270.705 316.615C270.479 322.264 269.63 325.67 269.38 325.631C269.021 325.588 269.309 322.139 269.127 316.614C269.054 313.852 268.77 310.573 268.268 306.967C267.711 303.368 266.906 299.443 265.737 295.409C264.528 291.385 263.072 287.653 261.585 284.33C260.048 281.028 258.505 278.122 257.067 275.762C254.218 271.025 252.106 268.287 252.382 268.055Z" fill="white"/>
<path fill-rule="evenodd" clip-rule="evenodd" d="M163.943 450.666L162.002 446.699L107.951 488.021L131.531 526.243L185.336 480.853L163.943 450.666Z" fill="#B57AD2"/>
<path fill-rule="evenodd" clip-rule="evenodd" d="M110.216 488.904L130.931 524.748L132.256 524.157L113.808 490.642L110.216 488.904Z" fill="#D7D4D4"/>
<path fill-rule="evenodd" clip-rule="evenodd" d="M162.876 449.881L110.216 488.904C110.216 488.904 110.436 489.742 111.743 490.258C113.052 490.775 113.808 490.643 113.808 490.643L169.171 452.731C169.171 452.731 165.979 451.989 164.822 451.125C163.663 450.258 162.876 449.881 162.876 449.881Z" fill="#B57AD2"/>
<path fill-rule="evenodd" clip-rule="evenodd" d="M170.525 451.202L112.819 489.767L131.561 525.306L134.58 530.227L192.287 487.495C192.287 487.495 186.21 478.418 182.56 472.938C178.911 467.458 171.747 454.533 171.358 453.705C170.966 452.877 170.525 451.202 170.525 451.202Z" fill="#B57AD2"/>
<path fill-rule="evenodd" clip-rule="evenodd" d="M646.405 184.957L648.035 181.626L693.424 216.325L673.622 248.422L628.441 210.305L646.405 184.957Z" fill="#775298"/>
<path fill-rule="evenodd" clip-rule="evenodd" d="M691.522 217.066L674.128 247.166L673.014 246.67L688.506 218.527L691.522 217.066Z" fill="#D7D4D4"/>
<path fill-rule="evenodd" clip-rule="evenodd" d="M647.302 184.296L691.522 217.066C691.522 217.066 691.335 217.769 690.24 218.203C689.141 218.637 688.504 218.526 688.504 218.526L642.015 186.691C642.015 186.691 644.695 186.068 645.667 185.341C646.64 184.613 647.302 184.296 647.302 184.296Z" fill="#F5F3F3"/>
<path fill-rule="evenodd" clip-rule="evenodd" d="M640.879 185.408L689.336 217.79L673.599 247.635L671.063 251.767L622.603 215.882C622.603 215.882 627.708 208.259 630.772 203.658C633.838 199.056 639.853 188.203 640.179 187.508C640.507 186.814 640.879 185.408 640.879 185.408Z" fill="#B57AD2"/>
<path fill-rule="evenodd" clip-rule="evenodd" d="M99.4126 122.504C99.4126 122.504 95.9857 124.877 97.6984 128.833C99.4126 132.79 106.926 144.527 117.075 144.131C117.49 144.116 104.289 122.504 104.289 122.504H99.4126Z" fill="#FF7B5B"/>
<path fill-rule="evenodd" clip-rule="evenodd" d="M83.887 338.877C83.887 338.877 71.1956 327.533 67.1324 329.565C62.1681 332.049 33.7546 359.903 34.8649 373.026C35.3211 378.4 41.5743 373.796 52.717 362.231C63.8629 350.668 77.8968 355.623 77.8968 355.623L83.887 338.877Z" fill="#B57AD2"/>
<path fill-rule="evenodd" clip-rule="evenodd" d="M114.722 358.008L99.4006 348.812C99.4006 348.812 59.6868 386.064 65.8913 391.031C70.5974 394.798 73.3636 391.419 84.5079 379.855C95.6507 368.293 109.769 374.941 109.769 374.941L114.722 358.008Z" fill="#B57AD2"/>
<path fill-rule="evenodd" clip-rule="evenodd" d="M208.313 235.45L211.186 276.271L147.408 259.646L208.313 235.45Z" fill="#F3A683"/>
<path fill-rule="evenodd" clip-rule="evenodd" d="M147.408 261.051C147.408 261.051 203.196 264.569 210.625 262.089C210.625 262.089 221.527 369.253 202.128 380.814C182.727 392.379 139.192 375.446 139.192 375.446L150.947 352.32L176.291 350.668V309.371L174.473 309.783L147.408 261.051Z" fill="#112129"/>
<path fill-rule="evenodd" clip-rule="evenodd" d="M77.4759 334.149C77.4759 334.149 63.4436 339.931 67.9841 353.973C67.9841 353.973 115.884 391.554 139.193 382.88C152.251 378.022 166.278 340.953 176.091 309.283L210.625 262.088C210.625 262.088 194.338 262.904 188.905 262.883C178.52 262.844 147.408 261.051 147.408 261.051C147.408 261.051 131.157 346.126 125.366 348.191C119.576 350.253 77.4759 334.149 77.4759 334.149Z" fill="#22343D"/>
<path fill-rule="evenodd" clip-rule="evenodd" d="M160.408 154.347C160.408 154.347 193.843 122.96 199.62 114.699C205.398 106.44 217.784 78.7705 233.052 67.2073L225.623 51.5137C225.623 51.5137 230.165 49.0367 233.052 55.6426C233.052 55.6426 243.782 34.1698 246.259 34.5808C248.738 34.9933 241.308 51.1012 241.308 51.1012C241.308 51.1012 251.629 36.2327 254.517 36.6468C257.404 37.0594 247.087 53.3605 247.087 53.3605C247.087 53.3605 258.642 39.9506 260.295 41.6025C261.946 43.2543 251.214 53.3605 251.214 53.3605C251.214 53.3605 262.77 46.7221 264.009 48.91C265.248 51.1012 252.452 56.8819 252.452 56.8819C252.452 56.8819 251.214 66.3806 243.373 70.5095C243.373 70.5095 227.846 112.484 213.812 126.111L168.73 172.991L160.408 154.347Z" fill="#FFC6B2"/>
<path fill-rule="evenodd" clip-rule="evenodd" d="M120.497 170.615C120.497 170.615 88.8174 203.772 80.5091 209.475C72.1991 215.176 44.4316 227.311 32.7337 242.482L17.1187 234.901C17.1187 234.901 14.6008 239.42 21.1771 242.371C21.1771 242.371 -0.385969 252.908 0.00526002 255.391C0.393242 257.873 16.5602 250.59 16.5602 250.59C16.5602 250.59 1.60426 260.777 1.99062 263.67C2.37698 266.563 18.7631 256.392 18.7631 256.392C18.7631 256.392 5.25357 267.828 6.88991 269.495C8.523 271.163 18.7258 260.522 18.7258 260.522C18.7258 260.522 11.9824 272.022 14.1609 273.281C16.3362 274.54 22.2339 261.793 22.2339 261.793C22.2339 261.793 31.737 260.646 35.9398 252.836C35.9398 252.836 75.6747 237.018 89.4278 223.104L138.875 188.048L120.497 170.615Z" fill="#FFC6B2"/>
<path fill-rule="evenodd" clip-rule="evenodd" d="M132.374 157.399L116.351 173.093L120.414 190.784C120.414 190.784 136.2 228.703 138.586 237.953C142.296 252.337 136.296 274.27 136.296 274.27C136.296 274.27 163.057 272.046 187.407 271.221C211.756 270.394 219.721 262.546 219.721 262.546C219.721 262.546 198.61 192.193 184.034 172.526C169.456 152.863 164.154 146.707 164.154 146.707L142.692 151.401L132.374 157.399Z" fill="white"/>
<path fill-rule="evenodd" clip-rule="evenodd" d="M179.397 170.207L196.092 159.534C196.092 159.534 198.642 148.099 178.509 134.611L154.901 149.413L179.397 170.207Z" fill="white"/>
<path fill-rule="evenodd" clip-rule="evenodd" d="M119.728 171.852C110.575 173.137 93.8496 196.346 91.9844 196.302C91.9844 196.302 103.755 215.522 113.08 216.146C113.08 216.146 154.113 167.026 119.728 171.852Z" fill="white"/>
<path fill-rule="evenodd" clip-rule="evenodd" d="M152.035 156.75C152.035 156.75 138.732 146.805 139.193 142.84C139.31 141.841 141.154 140.22 141.633 138.781C144.212 131.038 131.776 111.088 124.135 106.882C118.123 103.575 120.758 103.283 108.107 110.805C95.4565 118.327 102.664 131.334 108.313 138.062C113.654 144.421 119.771 147.145 125.274 147.604L133.099 164.994L152.035 156.75Z" fill="#FFC6B2"/>
<path fill-rule="evenodd" clip-rule="evenodd" d="M128.031 170.556C125.515 164.38 130.279 156.602 138.673 153.176C147.071 149.749 155.914 151.978 158.435 158.15C160.949 164.324 152.501 173.605 147.785 175.529C143.07 177.454 130.545 176.728 128.031 170.556Z" fill="#FFC6B2"/>
<path fill-rule="evenodd" clip-rule="evenodd" d="M108.314 138.062C108.314 138.062 103.999 137.823 103.52 140.7C103.04 143.578 111.429 143.578 114.546 141.419L108.314 138.062Z" fill="#FFC6B2"/>
<path fill-rule="evenodd" clip-rule="evenodd" d="M110.472 140.7C109.652 135.501 104.115 131.635 104.391 126.569C107.045 126.59 108.749 123.301 107.542 120.489C107.066 119.385 106.261 118.439 105.746 117.349C105.233 116.261 105.097 114.835 105.884 114.22C106.258 113.929 106.762 113.878 107.246 113.83C111.181 113.425 117.923 114.606 121.545 113.263C124.993 111.985 128.687 109.498 128.329 105.271C128.015 101.591 124.767 98.6071 121.783 96.3526C120.074 95.0597 115.189 91.6796 113.347 91.9866C110.533 92.4544 109.852 96.2097 109.649 99.3526C107.681 97.4783 104.779 97.7787 103.068 99.3039C101.357 100.829 100.547 103.253 99.8015 105.591C99.0547 107.932 98.2642 110.362 96.5759 111.916C95.0028 113.365 92.5142 114.462 92.8405 116.926C93.2285 119.862 97.0629 120.907 98.8356 123.411C98.3989 122.797 98.0288 126.718 98.2804 127.383C99.0369 129.385 100.925 130.711 102.29 132.242C105.198 135.507 106.62 138.795 110.472 140.7Z" fill="#FF7B5B"/>
<path fill-rule="evenodd" clip-rule="evenodd" d="M134.576 128.811L124.745 133.898C124.745 133.898 136.554 142.475 134.576 128.811Z" fill="white"/>
<path fill-rule="evenodd" clip-rule="evenodd" d="M121.051 130.828C121.589 131.848 120.793 133.323 119.275 134.122C117.757 134.921 116.092 134.743 115.555 133.722C115.019 132.702 115.813 131.229 117.33 130.428C118.85 129.629 120.514 129.808 121.051 130.828Z" fill="#FFB2A0"/>
<path fill-rule="evenodd" clip-rule="evenodd" d="M135.406 121.017C135.944 122.037 135.148 123.512 133.63 124.311C132.112 125.11 130.447 124.931 129.91 123.911C129.374 122.891 130.168 121.416 131.685 120.617C133.205 119.818 134.869 119.997 135.406 121.017Z" fill="#FFB2A0"/>
<path fill-rule="evenodd" clip-rule="evenodd" d="M127.714 128.45C127.668 128.394 127.852 128.152 128.277 127.845C128.683 127.531 129.389 127.193 129.913 126.628C130.433 126.081 130.619 124.939 129.824 124.778C128.998 124.497 128.059 125.446 126.983 126.347C126.717 126.568 126.454 126.787 126.193 127.003C125.949 127.227 125.436 127.556 124.904 127.489C123.889 127.325 123.457 126.648 123.068 126.194C122.288 125.194 121.808 124.146 121.542 123.24C121.014 121.408 121.251 120.225 121.378 120.235C121.555 120.227 121.613 121.364 122.284 122.975C122.621 123.776 123.126 124.685 123.861 125.545C124.22 125.98 124.672 126.386 124.993 126.399C125.128 126.406 125.233 126.36 125.486 126.147C125.745 125.931 126.004 125.712 126.267 125.491C126.809 125.053 127.279 124.609 127.899 124.197C128.501 123.79 129.36 123.534 130.129 123.795C130.951 124.011 131.433 124.97 131.29 125.636C131.197 126.315 130.86 126.815 130.477 127.18C129.667 127.858 128.943 128.022 128.486 128.226C128.019 128.403 127.762 128.514 127.714 128.45Z" fill="#FF7B5B"/>
<path fill-rule="evenodd" clip-rule="evenodd" d="M125.275 147.604C125.275 147.604 131.546 147.64 134.948 145.543C134.948 145.543 132.07 149.081 126.31 149.997L125.275 147.604Z" fill="#FFA192"/>
<path fill-rule="evenodd" clip-rule="evenodd" d="M127.994 119.466C127.937 119.776 127.061 119.872 126.134 120.281C125.194 120.661 124.515 121.224 124.254 121.049C123.986 120.908 124.429 119.788 125.699 119.253C126.967 118.716 128.077 119.174 127.994 119.466Z" fill="#22343D"/>
<path fill-rule="evenodd" clip-rule="evenodd" d="M115.705 127.532C115.468 127.357 115.84 126.346 116.742 125.334C117.656 124.301 118.823 123.957 118.947 124.246C119.077 124.527 118.365 125.182 117.565 126.09C116.752 126.994 115.961 127.724 115.705 127.532Z" fill="#22343D"/>
<path fill-rule="evenodd" clip-rule="evenodd" d="M110.941 125.973C110.433 125.596 110.037 123.983 111.982 121.81C113.944 119.588 116.137 119.979 116.4 120.597C116.683 121.202 115.952 122.065 114.23 124.019C112.482 125.966 111.491 126.385 110.941 125.973Z" fill="#FF7B5B"/>
<path fill-rule="evenodd" clip-rule="evenodd" d="M121.265 117.412C120.984 116.886 121.294 115.354 123.823 114.287C126.388 113.184 128.097 114.401 128.073 115.033C128.068 115.661 127.102 116.101 124.849 117.073C122.58 118.026 121.568 117.986 121.265 117.412Z" fill="#FF7B5B"/>
<path fill-rule="evenodd" clip-rule="evenodd" d="M660.725 132.648C660.891 132.812 658.167 135.879 652.514 139.218C646.931 142.555 638.147 145.862 628.044 145.936C617.94 146.011 609.107 142.834 603.476 139.581C597.776 136.326 595.007 133.298 595.169 133.131C595.404 132.833 598.502 135.387 604.21 138.182C609.862 140.989 618.381 143.774 628.026 143.705C637.673 143.631 646.149 140.721 651.761 137.831C657.425 134.951 660.486 132.353 660.725 132.648Z" fill="#775298"/>
<path fill-rule="evenodd" clip-rule="evenodd" d="M599.085 128.016C598.931 128.355 595.914 127.103 590.833 125.969C588.301 125.372 585.228 124.91 581.806 124.485C578.371 124.105 574.574 123.802 570.564 123.517C566.553 123.236 562.714 122.912 559.227 122.48C555.74 122.017 552.607 121.467 550.025 120.768C544.844 119.415 541.909 117.814 542.011 117.588C542.146 117.247 545.232 118.301 550.363 119.225C552.923 119.714 556.012 120.093 559.452 120.435C562.9 120.75 566.709 121.009 570.725 121.291C574.744 121.577 578.59 121.946 582.074 122.446C585.556 122.994 588.679 123.63 591.234 124.442C596.366 126.01 599.2 127.803 599.085 128.016Z" fill="#775298"/>
<mask id="mask0_5_58" style="mask-type:luminance" maskUnits="userSpaceOnUse" x="517" y="41" width="203" height="101">
<path fill-rule="evenodd" clip-rule="evenodd" d="M517.605 41.9648H720V141.181H517.605V41.9648Z" fill="white"/>
</mask>
<g mask="url(#mask0_5_58)">
<path fill-rule="evenodd" clip-rule="evenodd" d="M537.963 62.061C547.596 60.0161 557.577 61.7768 567.289 63.3961C577.003 65.0155 587.088 66.4757 596.584 63.8672C613.73 59.1584 626.746 41.8259 644.527 41.9656C651.848 42.0225 658.749 45.1508 665.882 46.8059C674.739 48.8622 683.966 48.6413 692.938 50.108C701.912 51.5748 711.182 55.1855 716.253 62.7367C722.269 71.6977 720.62 84.3378 714.307 93.0925C707.993 101.849 697.883 107.18 687.525 110.201C680.299 112.308 672.601 113.526 666.348 117.718C660.023 121.959 655.893 128.784 650.001 133.607C635.214 145.706 612.201 142.238 596.927 130.761C593.089 127.878 589.532 124.532 585.221 122.422C567.684 113.833 542.461 125.203 527.358 109.576C512.02 93.7049 514.205 67.1027 537.963 62.061Z" fill="#B57AD2"/>
</g>
<path fill-rule="evenodd" clip-rule="evenodd" d="M533.15 369.419C533.15 369.419 549.218 403.878 551.098 397.498C552.973 391.115 552.353 375.79 551.347 373.602C550.335 371.414 543.767 361.748 543.767 361.748L533.15 369.419Z" fill="#FFB2A0"/>
<path fill-rule="evenodd" clip-rule="evenodd" d="M649.336 90.7719C650.823 92.6772 649.829 90.6306 651.513 93.3789C658.51 93.1352 663.206 87.2116 663.206 87.2116C663.206 87.2116 674.311 87.5056 674.183 85.5207C674.056 83.5326 663.537 84.2749 663.537 84.2749C663.537 84.2749 674.665 80.7779 674.055 79.0318C673.448 77.2873 660.6 82.852 660.6 82.852C660.6 82.852 673.565 74.8006 671.649 73.5093C669.735 72.2212 657.261 79.2494 657.261 79.2494C657.261 79.2494 668.102 70.3403 666.477 69.192C664.855 68.0436 649.818 79.6392 649.818 79.6392C650.037 73.9348 645.948 74.1346 645.948 74.1346L646.117 88.0627C646.117 88.0627 648.651 89.8948 649.336 90.7719Z" fill="#FFC6B2"/>
<path fill-rule="evenodd" clip-rule="evenodd" d="M484.722 27.7342C482.346 28.1727 484.188 27.346 481.104 28.2881C476.037 23.4542 476.709 15.8576 476.709 15.8576C476.709 15.8576 468.213 8.70107 469.622 7.30258C471.039 5.90084 478.411 13.4439 478.411 13.4439C478.411 13.4439 472.412 3.43521 474.026 2.53536C475.638 1.63552 481.555 14.3308 481.555 14.3308C481.555 14.3308 477.201 -0.302222 479.49 0.00476351C481.776 0.311749 486.441 13.8516 486.441 13.8516C486.441 13.8516 484.247 -0.00985485 486.219 0.209421C488.195 0.427072 491.748 19.0882 491.748 19.0882C495.368 14.6767 498.292 17.5436 498.292 17.5436L489.115 27.6416C489.115 27.6416 485.815 27.5344 484.722 27.7342Z" fill="#FFC6B2"/>
<path fill-rule="evenodd" clip-rule="evenodd" d="M542.363 85.9135C539.29 85.4083 531.86 90.3494 528.143 98.4024C526.062 102.91 524.63 107.489 527.018 114.819C528.143 118.267 530.497 118.699 531.023 120.244C531.687 122.2 529.487 128.364 529.487 128.364L538.258 131.908C538.828 127.673 539.474 123.413 543.787 121.574C545.401 120.885 547.128 120.45 548.651 119.576C552.759 117.22 554.954 112.064 556.642 107.843C557.902 104.69 550.068 87.1772 542.363 85.9135Z" fill="#FFC6B2"/>
<path fill-rule="evenodd" clip-rule="evenodd" d="M531.922 205.594L517.228 199.695C517.228 199.695 473.618 280.611 473.8 303.061C473.98 325.51 533.695 370.458 533.695 370.458L543.766 361.749C543.766 361.749 525.33 329.584 515.475 318.243C505.618 306.899 531.922 205.594 531.922 205.594Z" fill="#FFB2A0"/>
<path fill-rule="evenodd" clip-rule="evenodd" d="M604.883 297.769C604.883 297.769 637.271 282.394 630.763 281.036C624.255 279.685 609.034 281.548 606.938 282.73C604.839 283.914 595.745 291.248 595.745 291.248L604.883 297.769Z" fill="#FFC6B2"/>
<path fill-rule="evenodd" clip-rule="evenodd" d="M546.357 204.892L524.065 213.007C524.065 213.007 501.766 311.139 510.279 326.545C518.789 341.957 542.696 331.759 576.744 313.166L605.263 297.589L595.744 291.25C595.744 291.25 562.558 297.756 553.238 304.244C553.238 304.244 558.102 290.455 564.587 270.992C571.071 251.527 575.543 231.657 546.357 204.892Z" fill="#FFC6B2"/>
<path fill-rule="evenodd" clip-rule="evenodd" d="M518.918 138.038C518.918 131.518 521.016 126.803 527.532 126.803C534.048 126.803 543.056 129.088 543.056 135.61C543.056 142.133 537.921 152.722 531.402 152.722C524.886 152.722 518.918 144.561 518.918 138.038Z" fill="#FFC6B2"/>
<path fill-rule="evenodd" clip-rule="evenodd" d="M524.064 125.869C524.064 125.869 503.801 103.928 499.748 82.4345C495.693 60.9438 488.807 26.0693 488.807 26.0693L481.105 28.288C481.105 28.288 477.456 75.9488 481.105 83.2466C484.751 90.546 502.574 139.141 508.001 151.903L524.064 125.869Z" fill="#FFC6B2"/>
<path fill-rule="evenodd" clip-rule="evenodd" d="M545.833 142.969C545.833 142.969 547.392 136.144 573.015 126.867C598.638 117.593 646.978 87.5294 646.978 87.5294L651.801 93.0503C651.801 93.0503 625.535 123.406 610.255 128.73C594.974 134.056 562.518 155.05 559.179 156.73C554.129 159.272 554.191 162.47 545.833 142.969Z" fill="#FFC6B2"/>
<path fill-rule="evenodd" clip-rule="evenodd" d="M524.064 125.869C524.064 125.869 503.477 132.545 503.477 163.888C503.477 163.888 503.49 206.816 508.342 214.625C508.342 214.625 516.23 216.647 526.064 214.625C536.376 212.504 546.356 204.892 546.356 204.892L562.551 156.247L560.614 133.456L538.595 129.202C538.595 129.202 544.911 158.736 522.058 146.039C517.616 143.572 528.592 126.816 528.592 126.816L524.064 125.869Z" fill="#22343D"/>
<path fill-rule="evenodd" clip-rule="evenodd" d="M506.645 151.361L496.5 130.214C496.5 130.214 497.955 117.386 516.578 112.789C516.578 112.789 518.461 119.255 520.526 121.726C522.589 124.195 528.599 126.823 528.599 126.823L506.645 151.361Z" fill="#22343D"/>
<path fill-rule="evenodd" clip-rule="evenodd" d="M544.996 159.86L577.254 153.245C577.254 153.245 582.863 141.618 569.564 127.788C569.564 127.788 544.402 129.308 541.146 129.579C537.94 129.846 540.141 132.316 540.141 132.316L544.996 159.86Z" fill="#22343D"/>
<path fill-rule="evenodd" clip-rule="evenodd" d="M508.29 204.169C508.29 204.169 477.78 260.611 472.739 270.696C472.739 270.696 562.752 312.067 599.293 262.269C599.293 262.269 578.507 218.251 546.374 201.494L532.513 197.341L508.833 203.898" fill="#22343D"/>
<path fill-rule="evenodd" clip-rule="evenodd" d="M555.461 107.309C555.461 107.309 558.937 103.831 561.075 106.239C563.213 108.646 553.323 112.123 553.323 112.123L555.461 107.309Z" fill="#FFC6B2"/>
<path fill-rule="evenodd" clip-rule="evenodd" d="M619.034 59.8808C619.068 60.0009 617.726 60.5824 615.163 61.1915C612.606 61.8071 608.812 62.3659 604.1 62.4617C599.39 62.5559 593.79 62.1369 587.66 61.3052C581.525 60.4915 574.861 59.296 567.85 58.531C560.85 57.7822 554.12 57.6458 548.159 58.609C542.196 59.5559 537.035 61.5099 533.091 63.792C529.146 66.0919 526.401 68.6437 524.716 70.5749C523.021 72.5078 522.258 73.7422 522.086 73.6383C521.992 73.5895 522.502 72.1992 524.037 70.0324C525.563 67.8721 528.256 65.0215 532.273 62.4438C536.285 59.8824 541.62 57.6815 547.818 56.5803C554.024 55.4628 560.965 55.5488 568.087 56.3122C575.215 57.0903 581.887 58.3539 587.95 59.27C594.012 60.204 599.491 60.7757 604.104 60.8829C613.353 61.1412 618.95 59.4991 619.034 59.8808Z" fill="#775298"/>
<path fill-rule="evenodd" clip-rule="evenodd" d="M537.762 105.335C537.752 105.471 536.762 105.567 535.251 105.065C534.877 104.934 534.436 104.761 534.025 104.385C533.822 104.196 533.634 103.946 533.518 103.646C533.353 103.225 533.366 102.747 533.53 102.384C533.579 102.31 533.575 102.137 533.671 102.133L533.965 102.124C534.153 102.098 534.376 102.159 534.593 102.2C534.992 102.276 535.121 102.265 535.405 102.284C535.903 102.296 536.419 102.244 536.936 102.13C539.046 101.685 540.458 100.149 541.091 98.8849C541.755 97.6131 541.814 96.6564 541.991 96.6677C542.116 96.6515 542.362 97.6683 541.814 99.2032C541.535 99.9552 541.049 100.818 540.265 101.575C539.486 102.33 538.406 102.95 537.181 103.218C536.569 103.355 535.953 103.407 535.361 103.376C535.103 103.363 534.697 103.311 534.579 103.285C534.47 103.267 534.483 103.243 534.462 103.256C534.449 103.269 534.442 103.29 534.444 103.321C534.488 103.467 534.567 103.607 534.679 103.732C534.905 103.987 535.233 104.177 535.553 104.336C536.859 104.977 537.786 105.168 537.762 105.335Z" fill="#FF7B5B"/>
<path fill-rule="evenodd" clip-rule="evenodd" d="M530.526 105.711L542.409 110.395C542.409 110.395 531.966 117.6 530.526 105.711Z" fill="white"/>
<path fill-rule="evenodd" clip-rule="evenodd" d="M547.483 107.965C547.061 108.767 545.753 108.907 544.559 108.278C543.366 107.651 542.741 106.492 543.162 105.691C543.584 104.888 544.894 104.747 546.087 105.376C547.28 106.004 547.905 107.162 547.483 107.965Z" fill="#FFB2A0"/>
<path fill-rule="evenodd" clip-rule="evenodd" d="M534.221 100.929C533.861 101.761 532.567 102.001 531.33 101.465C530.093 100.929 529.38 99.8214 529.741 98.9898C530.099 98.1581 531.395 97.9177 532.632 98.4538C533.869 98.9898 534.581 100.098 534.221 100.929Z" fill="#FFB2A0"/>
<path fill-rule="evenodd" clip-rule="evenodd" d="M529.82 118.75C529.82 118.75 533.985 122.241 538.331 121.117C538.331 121.117 536.832 123.365 531.065 122.539C531.065 122.539 531.544 120.062 529.82 118.75Z" fill="#FFA192"/>
<path fill-rule="evenodd" clip-rule="evenodd" d="M546.344 100.497C546.344 101.017 545.922 101.439 545.402 101.439C544.882 101.439 544.46 101.017 544.46 100.497C544.46 99.9778 544.882 99.5556 545.402 99.5556C545.922 99.5556 546.344 99.9778 546.344 100.497Z" fill="#22343D"/>
<path fill-rule="evenodd" clip-rule="evenodd" d="M538.639 97.7207C538.639 98.2403 538.217 98.6625 537.697 98.6625C537.178 98.6625 536.757 98.2403 536.757 97.7207C536.757 97.2011 537.178 96.779 537.697 96.779C538.217 96.779 538.639 97.2011 538.639 97.7207Z" fill="#22343D"/>
<path fill-rule="evenodd" clip-rule="evenodd" d="M549.368 97.9875C549.077 98.1109 548.516 97.4306 547.665 96.8802C546.832 96.3054 545.988 96.0472 545.99 95.7322C545.962 95.4302 547.141 95.185 548.285 95.953C549.431 96.7162 549.659 97.8966 549.368 97.9875Z" fill="#775298"/>
<path fill-rule="evenodd" clip-rule="evenodd" d="M535.79 93.4174C535.77 93.1235 536.782 92.7533 538.136 92.7891C539.514 92.8183 540.532 93.4872 540.39 93.7665C540.261 94.049 539.301 93.9273 538.092 93.9045C536.876 93.8688 535.809 93.7373 535.79 93.4174Z" fill="#775298"/>
<path fill-rule="evenodd" clip-rule="evenodd" d="M540.033 383.421C540.033 383.421 544.976 400.976 550.08 399.538C555.184 398.103 551.346 373.602 551.346 373.602L546.254 365.549C546.254 365.549 551.038 406.56 540.033 383.421Z" fill="#22343D"/>
<path fill-rule="evenodd" clip-rule="evenodd" d="M602.364 286.097C602.364 286.097 605.958 282.172 610.315 281.52C614.674 280.865 630.25 279.012 632.537 281.083C634.826 283.154 619.912 290.097 619.912 290.097C619.912 290.097 625.109 286.784 622.951 285.553C619.138 283.371 602.364 286.097 602.364 286.097Z" fill="#22343D"/>
<path fill-rule="evenodd" clip-rule="evenodd" d="M596.184 290.797L601.06 300.703L603.721 299.225L597.218 289.466L596.184 290.797Z" fill="#22343D"/>
<path fill-rule="evenodd" clip-rule="evenodd" d="M541.653 357.777L529.683 368.572L533.23 371.53L543.278 360.587L541.653 357.777Z" fill="#22343D"/>
<path fill-rule="evenodd" clip-rule="evenodd" d="M291.389 250.311C287.985 241.859 286.677 232.448 281.597 224.884C274.287 213.999 260.247 208.599 254.315 196.904C251.796 191.937 251.005 186.255 250.979 180.686C250.93 169.667 254.228 157.953 262.734 150.95C272.508 142.904 287.173 143.016 298.621 148.421C310.066 153.827 318.811 163.639 326.246 173.888C333.683 184.136 340.192 195.134 348.851 204.369C355.272 211.217 362.887 217.123 367.723 225.168C380.981 247.224 367.34 275.13 343.934 283.091C323.368 290.083 298.505 267.983 291.389 250.311Z" fill="#22343D"/>
<path fill-rule="evenodd" clip-rule="evenodd" d="M262.091 405.867C264.126 407.542 261.905 406.382 264.866 408.312C264.206 415.713 257.363 420.377 257.363 420.377C257.363 420.377 257.074 432.161 254.876 431.919C252.673 431.68 254.084 420.571 254.084 420.571C254.084 420.571 249.579 432.178 247.674 431.439C245.769 430.704 252.665 417.385 252.665 417.385C252.665 417.385 243 430.696 241.672 428.597C240.346 426.5 248.85 413.655 248.85 413.655C248.85 413.655 238.349 424.671 237.162 422.888C235.977 421.109 249.695 405.789 249.695 405.789C243.346 405.719 243.795 401.395 243.795 401.395L259.259 402.313C259.259 402.313 261.154 405.094 262.091 405.867Z" fill="#FFC6B2"/>
<path fill-rule="evenodd" clip-rule="evenodd" d="M409.823 183.621C412.469 184.086 410.416 183.209 413.849 184.208C419.489 179.082 418.74 171.027 418.74 171.027C418.74 171.027 428.198 163.438 426.63 161.955C425.052 160.469 416.847 168.465 416.847 168.465C416.847 168.465 423.523 157.854 421.727 156.899C419.935 155.946 413.349 169.408 413.349 169.408C413.349 169.408 418.195 153.891 415.646 154.216C413.104 154.542 407.911 168.899 407.911 168.899C407.911 168.899 410.352 154.201 408.156 154.433C405.958 154.664 402.403 173.92 402.403 173.92C397.224 169.703 393.599 172.403 393.599 172.403L404.934 183.522C404.934 183.522 408.607 183.41 409.823 183.621Z" fill="#FFC6B2"/>
<path fill-rule="evenodd" clip-rule="evenodd" d="M345.084 247.978C349.868 247.231 364.457 256.691 360.744 275.901C360.434 277.514 358.329 281.064 357.804 282.533C357.142 284.392 362.303 291.2 362.303 291.2L348.98 295.458C348.412 291.432 349.368 285.547 345.063 283.798C343.452 283.143 341.728 282.729 340.209 281.899C336.107 279.658 333.917 274.754 332.232 270.74C330.974 267.74 330.016 264.515 330.052 261.26C330.139 253.064 337.394 249.18 345.084 247.978Z" fill="#FFC6B2"/>
<path fill-rule="evenodd" clip-rule="evenodd" d="M371.763 300.59C371.763 293.675 369.571 291.036 362.318 291.036C355.065 291.036 345.491 293.675 345.491 300.59C345.491 307.506 350.612 316.16 357.869 316.16C365.12 316.16 371.763 307.506 371.763 300.59Z" fill="#FFC6B2"/>
<path fill-rule="evenodd" clip-rule="evenodd" d="M366.035 287.684C366.035 287.684 388.588 264.418 393.1 241.627C397.613 218.837 405.278 181.856 405.278 181.856L413.849 184.208C413.849 184.208 417.911 234.748 413.849 242.488C409.791 250.229 386.783 303.981 387.235 317.74L366.035 287.684Z" fill="#FFC6B2"/>
<path fill-rule="evenodd" clip-rule="evenodd" d="M325.833 298.95C325.833 298.95 318.164 300.239 306.435 326.902C294.706 353.562 258.619 403.196 258.619 403.196L264.484 408.6C264.484 408.6 299.669 382.372 306.435 366.462C313.2 350.552 321.771 330.772 325.833 331.63C329.891 332.492 347.034 308.838 325.833 298.95Z" fill="#FFC6B2"/>
<path fill-rule="evenodd" clip-rule="evenodd" d="M386.213 321.294L396.714 292.293C396.714 292.293 395.094 278.692 374.367 273.815L362.625 290.742L386.213 321.294Z" fill="#B57AD2"/>
<path fill-rule="evenodd" clip-rule="evenodd" d="M329.334 296.724C329.334 296.724 316.944 297.769 306.902 319.838C306.902 319.838 317.946 335.093 326.025 335.607C326.025 335.607 356.033 309.944 329.334 296.724Z" fill="#B57AD2"/>
<path fill-rule="evenodd" clip-rule="evenodd" d="M363.375 558.437C363.375 558.437 345.491 594.978 343.4 588.213C341.312 581.444 342.002 565.192 343.122 562.873C344.247 560.551 351.559 550.302 351.559 550.302L363.375 558.437Z" fill="#FFC6B2"/>
<path fill-rule="evenodd" clip-rule="evenodd" d="M364.742 384.714L381.097 378.457C381.097 378.457 429.635 464.264 429.434 488.07C429.233 511.874 362.769 559.54 362.769 559.54L351.558 550.302C351.558 550.302 383.061 503.959 394.03 491.933C399.516 485.918 360.247 456.444 354.299 428.085C348.351 399.725 364.742 384.714 364.742 384.714Z" fill="#22343D"/>
<path fill-rule="evenodd" clip-rule="evenodd" d="M266.405 539.295C266.405 539.295 232.951 563.967 234.342 557.043C235.738 550.112 244.16 535.968 246.272 534.394C248.387 532.823 259.809 526.905 259.809 526.905L266.405 539.295Z" fill="#FFC6B2"/>
<path fill-rule="evenodd" clip-rule="evenodd" d="M320.244 415.099L368.633 387.04C368.633 387.04 370.553 484.508 358.936 505.583C347.321 526.658 265.337 540.009 265.337 540.009L259.809 526.905C259.809 526.905 310.39 496.752 325.919 490.851C341.449 484.947 320.244 415.099 320.244 415.099Z" fill="#22343D"/>
<path fill-rule="evenodd" clip-rule="evenodd" d="M349.062 367.846C349.062 367.846 313.433 380.468 320.244 415.099C327.054 449.728 338.407 456.22 338.407 456.22L358.84 422.675L379.354 378.743L358.84 376.139L349.062 367.846Z" fill="#22343D"/>
<path fill-rule="evenodd" clip-rule="evenodd" d="M366.035 287.684C366.035 287.684 392.267 302.394 392.267 335.631C392.267 335.631 388.934 373.523 383.533 381.802C383.533 381.802 374.754 383.948 363.808 381.802C352.331 379.554 341.224 371.483 341.224 371.483L332.26 325.091L325.286 298.003L329.066 296.756L348.795 294.588C348.795 294.588 345.961 324.074 367.99 309.432C372.629 306.347 362.214 290.972 362.214 290.972L366.035 287.684Z" fill="#B57AD2"/>
<path fill-rule="evenodd" clip-rule="evenodd" d="M382.091 162.086L437.091 194.188L468.028 135.717L416.466 107.056L382.091 162.086Z" fill="white"/>
<path fill-rule="evenodd" clip-rule="evenodd" d="M458.605 441.977L497.94 417.613L465.442 360.856L429.485 384.185L458.605 441.977Z" fill="white"/>
<path fill-rule="evenodd" clip-rule="evenodd" d="M264.928 200.125C265.032 200.032 266.246 201.135 268.167 203.385C270.079 205.638 272.688 209.063 275.306 213.686C277.935 218.289 280.535 224.13 282.392 230.91C284.314 237.639 285.603 245.203 288.558 252.49C290.092 256.089 291.951 259.44 294.163 262.402C296.395 265.346 298.871 267.928 301.42 270.181C306.627 274.567 312.083 277.583 316.945 279.326C321.802 281.093 325.963 281.885 328.856 282.17C331.745 282.49 333.379 282.537 333.38 282.727C333.388 282.845 331.76 283.094 328.793 283.037C325.827 283.014 321.51 282.447 316.426 280.817C311.338 279.209 305.59 276.233 300.093 271.752C297.397 269.448 294.777 266.781 292.416 263.716C290.076 260.634 288.098 257.109 286.493 253.336C283.415 245.72 282.199 238.089 280.409 231.449C278.699 224.786 276.323 219.052 273.92 214.44C271.532 209.814 269.162 206.307 267.482 203.916C265.792 201.53 264.802 200.237 264.928 200.125Z" fill="#22343D"/>
<path fill-rule="evenodd" clip-rule="evenodd" d="M332.5 162.568C332.905 162.506 333.297 167.923 336.327 175.935C337.84 179.926 340.09 184.518 343.322 189.121C344.937 191.426 346.796 193.697 348.9 195.959C350.989 198.232 353.265 200.54 355.416 203.129C359.729 208.354 362.696 214.002 365.49 218.987C368.265 224.02 370.474 228.808 371.597 233.092C372.769 237.362 372.838 241.038 372.466 243.476C372.078 245.925 371.469 247.166 371.368 247.132C371.175 247.081 371.49 245.771 371.601 243.398C371.696 241.028 371.394 237.575 370.084 233.538C368.818 229.486 366.541 224.918 363.698 219.992C360.812 215.067 357.818 209.533 353.698 204.553C351.63 202.062 349.387 199.762 347.284 197.433C345.171 195.115 343.249 192.701 341.627 190.286C338.374 185.45 336.202 180.631 334.841 176.465C333.45 172.3 332.858 168.785 332.577 166.364C332.299 163.937 332.374 162.579 332.5 162.568Z" fill="#22343D"/>
<path fill-rule="evenodd" clip-rule="evenodd" d="M349.362 268.859C349.341 268.703 350.237 268.56 351.082 267.566C351.277 267.337 351.474 267.002 351.47 266.807C351.466 266.598 351.319 266.234 351.068 266.024C350.806 265.79 350.516 265.677 350.133 265.716C349.737 265.745 349.254 265.942 348.625 266.036C347.245 266.219 346.168 265.44 345.461 264.808C344.733 264.143 344.178 263.469 343.764 262.865C342.94 261.649 342.683 260.77 342.81 260.705C342.956 260.627 343.453 261.355 344.383 262.375C344.847 262.881 345.433 263.463 346.125 264.023C346.806 264.567 347.641 265.063 348.474 264.931C348.915 264.874 349.43 264.668 350.056 264.626C350.694 264.563 351.404 264.857 351.793 265.295C352.207 265.743 352.44 266.271 352.391 266.897C352.267 267.537 351.928 267.835 351.647 268.115C350.435 269.177 349.323 269.003 349.362 268.859Z" fill="#FF7B5B"/>
<path fill-rule="evenodd" clip-rule="evenodd" d="M355.862 269.774L345.298 273.617C345.298 273.617 354.261 281.462 355.862 269.774Z" fill="white"/>
<path fill-rule="evenodd" clip-rule="evenodd" d="M344.244 269.12C344.666 269.922 344.041 271.082 342.848 271.709C341.655 272.337 340.347 272.198 339.925 271.395C339.502 270.595 340.127 269.435 341.321 268.806C342.514 268.178 343.822 268.317 344.244 269.12Z" fill="#FFB2A0"/>
<path fill-rule="evenodd" clip-rule="evenodd" d="M356.767 262.695C357.112 263.533 356.382 264.628 355.137 265.143C353.89 265.659 352.6 265.398 352.254 264.559C351.908 263.721 352.638 262.627 353.885 262.112C355.13 261.597 356.421 261.857 356.767 262.695Z" fill="#FFB2A0"/>
<path fill-rule="evenodd" clip-rule="evenodd" d="M345.611 284.079C345.611 284.079 349.145 284.798 353.65 283.673C353.65 283.673 351.429 285.831 347.801 286.333C347.801 286.333 346.987 284.829 345.611 284.079Z" fill="#FFA192"/>
<path fill-rule="evenodd" clip-rule="evenodd" d="M349.222 260.322C349.618 260.658 349.667 261.252 349.331 261.648C348.995 262.045 348.402 262.093 348.004 261.757C347.608 261.423 347.559 260.828 347.895 260.431C348.231 260.034 348.826 259.986 349.222 260.322Z" fill="#22343D"/>
<path fill-rule="evenodd" clip-rule="evenodd" d="M342.124 264.408C342.52 264.744 342.569 265.338 342.233 265.734C341.898 266.131 341.304 266.179 340.906 265.843C340.51 265.507 340.461 264.914 340.797 264.517C341.133 264.12 341.727 264.072 342.124 264.408Z" fill="#22343D"/>
<path fill-rule="evenodd" clip-rule="evenodd" d="M349.263 256.39C349.169 256.692 348.288 256.681 347.319 256.975C346.341 257.238 345.6 257.715 345.359 257.509C345.111 257.337 345.686 256.278 347.012 255.901C348.335 255.52 349.382 256.111 349.263 256.39Z" fill="#22343D"/>
<path fill-rule="evenodd" clip-rule="evenodd" d="M337.001 263.8C336.764 263.625 337.136 262.615 338.039 261.604C338.951 260.571 340.12 260.227 340.241 260.515C340.373 260.796 339.66 261.45 338.86 262.358C338.048 263.263 337.258 263.994 337.001 263.8Z" fill="#22343D"/>
<path fill-rule="evenodd" clip-rule="evenodd" d="M333.017 271.648C333.017 271.648 329.629 268.801 328.003 271.377C326.378 273.953 335.321 275.309 335.321 275.309L333.017 271.648Z" fill="#FFC6B2"/>
<path fill-rule="evenodd" clip-rule="evenodd" d="M251.554 531.276C251.554 531.276 246.697 533.39 245.431 534.658C244.163 535.925 232.548 555.998 234.027 558.533C235.506 561.069 247.154 552.462 247.154 552.462C247.154 552.462 237.407 554.308 251.554 531.276Z" fill="#B57AD2"/>
<path fill-rule="evenodd" clip-rule="evenodd" d="M346.334 557.82C346.334 557.82 342.884 561.551 342.352 563.264C341.819 564.975 340.866 588.149 343.355 589.706C345.842 591.263 352.641 578.475 352.641 578.475C352.641 578.475 344.512 584.846 346.334 557.873" fill="#B57AD2"/>
</svg>
