<svg width="178" height="80" viewBox="0 0 178 80" fill="none" xmlns="http://www.w3.org/2000/svg">
<path d="M136.85 42.8751C144.459 38.6011 152.048 34.2923 159.683 30.0631C166.93 26.0471 175.457 29.7504 177.1 37.5647C178.051 42.0851 175.987 46.9684 171.814 49.3468C158.132 57.144 144.431 64.9102 130.661 72.5576C126.399 74.9244 122.009 74.489 118.125 71.5885C114.179 68.6438 112.936 64.582 113.861 59.8544C114.917 56.2556 117.335 53.8495 120.633 52.0496C126.085 49.0739 131.449 45.9414 136.85 42.8751Z" fill="#CFC6DE"/>
<path d="M142.436 39.7674C134.846 35.4603 127.237 31.1869 119.674 26.8361C112.494 22.7058 111.511 13.633 117.609 8.33359C121.136 5.26899 126.493 4.57453 130.686 6.9198C144.432 14.6086 158.16 22.3301 171.817 30.1681C176.044 32.594 177.853 36.5304 177.227 41.2702C176.592 46.0834 173.617 49.1673 168.968 50.7479C165.252 51.6529 161.913 50.8076 158.67 48.9148C153.309 45.785 147.852 42.8083 142.436 39.7674Z" fill="#CFC6DE"/>
<path d="M95.6447 6C98.8823 6 101.266 9.03011 100.504 12.1767L86.2146 71.1771C85.6713 73.4202 83.6632 75 81.3553 75V75C78.1177 75 75.7339 71.9699 76.496 68.8233L90.7854 9.8229C91.3287 7.57978 93.3368 6 95.6447 6V6Z" fill="#CFC6DE"/>
<path d="M41.0571 36.72C36.1867 39.426 31.3135 42.1271 26.4477 44.8414C23.6021 46.4292 20.787 48.0712 17.9267 49.6325C12.1626 52.7788 5.31434 50.9347 2.04615 45.3928C-1.07289 40.1044 0.719671 33.2482 6.27079 30.0792C19.8435 22.3318 33.4512 14.6407 47.1081 7.03528C51.2966 4.70327 55.6421 4.99663 59.5154 7.78499C63.6033 10.728 64.9416 14.8694 64.0236 19.7241C63.4542 20.8992 63.1141 22.2765 62.261 23.2019C60.8746 24.7074 59.2984 26.1488 57.5437 27.2074C52.1135 30.4819 46.5613 33.5636 41.0571 36.72Z" fill="#CFC6DE"/>
<path d="M35.4729 39.7553C40.3048 42.5265 45.1334 45.3038 49.9698 48.0673C52.7985 49.6838 55.6599 51.2468 58.4728 52.8882C64.1414 56.1976 65.9328 62.919 62.659 68.4576C59.5348 73.7437 52.5674 75.6542 46.9852 72.5366C33.338 64.9151 19.7234 57.2368 6.16031 49.4728C2.00065 47.0916 0.0877583 43.2646 0.620498 38.5901C1.18261 33.6559 4.18076 30.4521 8.93926 28.8018C10.264 28.6974 11.6538 28.2963 12.9001 28.556C14.9265 28.9781 16.9914 29.5919 18.806 30.5488C24.4209 33.51 29.9257 36.6713 35.4729 39.7553Z" fill="#CFC6DE"/>
</svg>
