<svg width="68" height="75" viewBox="0 0 68 75" fill="none" xmlns="http://www.w3.org/2000/svg">
<path fill-rule="evenodd" clip-rule="evenodd" d="M65.9847 13.1633C60.5099 8.51682 53.423 5.71429 45.6821 5.71429C28.3368 5.71429 14.2757 19.7853 14.2757 37.1429C14.2757 54.5004 28.3368 68.5714 45.6821 68.5714C54.4109 68.5714 62.308 65.008 67.9999 59.2555C61.2051 68.786 50.0645 75 37.4736 75C16.7775 75 0 58.2107 0 37.5C0 16.7893 16.7775 0 37.4736 0C48.8885 0 59.1114 5.10745 65.9847 13.1633Z" fill="#4C0877"/>
<path fill-rule="evenodd" clip-rule="evenodd" d="M53.5335 26.8193C51.2892 24.9164 48.3841 23.7687 45.2108 23.7687C38.1005 23.7687 32.3364 29.5311 32.3364 36.6395C32.3364 43.7478 38.1005 49.5102 45.2108 49.5102C48.7891 49.5102 52.0264 48.0508 54.3597 45.695C51.5743 49.598 47.0074 52.1429 41.8459 52.1429C33.362 52.1429 26.4844 45.2672 26.4844 36.7857C26.4844 28.3042 33.362 21.4286 41.8459 21.4286C46.5253 21.4286 50.716 23.5202 53.5335 26.8193Z" fill="#4C0877"/>
<path fill-rule="evenodd" clip-rule="evenodd" d="M27.7145 51.9958C31.057 54.9367 35.3838 56.7106 40.1099 56.7106C50.6997 56.7106 59.2844 47.8045 59.2844 36.8183C59.2844 25.8321 50.6997 16.926 40.1099 16.926C34.7807 16.926 29.9592 19.1815 26.4842 22.8226C30.6326 16.7903 37.4342 12.8571 45.1214 12.8571C57.7569 12.8571 68 23.4837 68 36.5923C68 49.7008 57.7569 60.3274 45.1214 60.3274C38.1522 60.3274 31.9108 57.0947 27.7145 51.9958Z" fill="#856799"/>
</svg>
