<svg width="280" height="280" viewBox="0 0 280 280" fill="none" xmlns="http://www.w3.org/2000/svg">
<path d="M0 77.6795C0 68.1869 5.59501 59.5862 14.273 55.739L130.273 4.31229C136.467 1.56631 143.533 1.56631 149.727 4.31229L265.727 55.7389C274.405 59.5862 280 68.1869 280 77.6795V204.831C280 214.471 274.233 223.175 265.356 226.933L149.356 276.039C143.376 278.571 136.624 278.571 130.644 276.039L14.6438 226.933C5.76711 223.175 0 214.471 0 204.831V77.6795Z" fill="#574279"/>
<path d="M186.667 86.6667H158.8C157.435 82.7696 154.893 79.393 151.524 77.0041C148.156 74.6152 144.129 73.332 140 73.332C135.871 73.332 131.844 74.6152 128.476 77.0041C125.107 79.393 122.565 82.7696 121.2 86.6667H93.3333C89.8004 86.6772 86.4151 88.0854 83.9169 90.5836C81.4187 93.0818 80.0106 96.467 80 100V193.333C80.0106 196.866 81.4187 200.252 83.9169 202.75C86.4151 205.248 89.8004 206.656 93.3333 206.667H186.667C190.2 206.656 193.585 205.248 196.083 202.75C198.581 200.252 199.989 196.866 200 193.333V100C199.989 96.467 198.581 93.0818 196.083 90.5836C193.585 88.0854 190.2 86.6772 186.667 86.6667ZM140 86.6667C141.319 86.6667 142.607 87.0576 143.704 87.7902C144.8 88.5227 145.655 89.5639 146.159 90.7821C146.664 92.0003 146.796 93.3407 146.539 94.6339C146.281 95.9271 145.646 97.115 144.714 98.0474C143.782 98.9797 142.594 99.6147 141.301 99.8719C140.007 100.129 138.667 99.9971 137.449 99.4925C136.231 98.9879 135.189 98.1334 134.457 97.0371C133.724 95.9408 133.333 94.6519 133.333 93.3333C133.339 91.5668 134.043 89.8742 135.292 88.6251C136.541 87.376 138.234 86.6719 140 86.6667ZM126.667 120L145.267 138.627L162.067 121.827L153.333 113.333H180V140L171.493 131.26L145.28 157.493L126.667 138.867L109.427 156.093L100 146.667L126.667 120ZM186.667 186.667H93.3333V173.333H186.667V186.667Z" fill="white"/>
</svg>
