<svg width="280" height="280" viewBox="0 0 280 280" fill="none" xmlns="http://www.w3.org/2000/svg">
<path d="M0 77.6795C0 68.1869 5.59501 59.5862 14.273 55.739L130.273 4.31229C136.467 1.56631 143.533 1.56631 149.727 4.31229L265.727 55.7389C274.405 59.5862 280 68.1869 280 77.6795V204.831C280 214.471 274.233 223.175 265.356 226.933L149.356 276.039C143.376 278.571 136.624 278.571 130.644 276.039L14.6438 226.933C5.76711 223.175 0 214.471 0 204.831V77.6795Z" fill="#B57AD2"/>
<g filter="url(#filter0_dd_6_586)">
<path d="M55.6024 65.875C55.1096 66.3692 54.7964 67.0145 54.7126 67.7078C54.6289 68.4011 54.7795 69.1025 55.1405 69.7L69.6229 93.6375C69.8789 94.06 70.2314 94.4157 70.6513 94.6754C71.0713 94.935 71.5468 95.0913 72.0387 95.1313L79.9291 95.7875C81.4008 95.9113 82.781 96.5535 83.8244 97.6L139.657 153.494L150.675 142.463L94.5302 86.2438C93.4027 85.1167 92.7484 83.6007 92.7011 82.0063L92.4951 74.8313C92.4801 74.3078 92.3338 73.7965 92.0699 73.3444C91.8059 72.8922 91.4327 72.5138 90.9845 72.2438L66.9824 57.825C66.3861 57.4676 65.6878 57.3196 64.998 57.4045C64.3082 57.4894 63.6665 57.8023 63.1745 58.2938L55.6024 65.875Z" fill="#B9B3BE"/>
</g>
<g filter="url(#filter1_f_6_586)">
<path fill-rule="evenodd" clip-rule="evenodd" d="M172.23 145.65L215.24 188.713C215.997 189.442 216.601 190.316 217.017 191.282C217.433 192.249 217.652 193.289 217.662 194.341C217.672 195.393 217.473 196.437 217.076 197.411C216.678 198.385 216.091 199.27 215.348 200.014C214.605 200.759 213.721 201.347 212.748 201.746C211.776 202.144 210.733 202.344 209.682 202.335C208.632 202.325 207.593 202.106 206.628 201.69C205.662 201.274 204.789 200.67 204.06 199.913L161.049 156.85C160.278 156.124 159.661 155.25 159.233 154.28C158.805 153.311 158.577 152.265 158.56 151.205C158.544 150.146 158.74 149.093 159.137 148.111C159.534 147.128 160.124 146.236 160.873 145.486C161.621 144.736 162.512 144.144 163.493 143.745C164.473 143.346 165.524 143.149 166.583 143.164C167.641 143.179 168.686 143.407 169.655 143.834C170.624 144.261 171.503 144.879 172.23 145.65Z" fill="url(#paint0_linear_6_586)"/>
<path d="M215.908 188.056L172.891 144.981C171.232 143.32 168.982 142.387 166.636 142.387C164.29 142.387 162.04 143.32 160.382 144.981C158.723 146.642 157.791 148.895 157.791 151.244C157.791 153.593 158.723 155.845 160.382 157.506L203.392 200.575C205.05 202.237 207.299 203.171 209.645 203.172C211.991 203.173 214.242 202.241 215.902 200.581C217.561 198.921 218.494 196.669 218.496 194.32C218.497 191.971 217.566 189.718 215.908 188.056Z" stroke="url(#paint1_linear_6_586)" stroke-width="0.3"/>
</g>
<g filter="url(#filter2_d_6_586)">
<path d="M180.763 227.856C181.922 229.018 183.298 229.939 184.814 230.567C186.329 231.196 187.952 231.519 189.592 231.519C191.232 231.519 192.856 231.196 194.371 230.567C195.886 229.939 197.263 229.018 198.422 227.856L224.953 201.294C227.293 198.95 228.608 195.771 228.608 192.456C228.608 189.142 227.293 185.963 224.953 183.619L174.982 133.594C173.968 132.578 172.763 131.772 171.438 131.223C170.112 130.673 168.692 130.39 167.257 130.39C165.822 130.39 164.402 130.673 163.076 131.223C161.751 131.772 160.546 132.578 159.532 133.594L130.798 162.362C129.784 163.378 128.979 164.584 128.43 165.911C127.881 167.238 127.598 168.66 127.598 170.097C127.598 171.533 127.881 172.956 128.43 174.283C128.979 175.61 129.784 176.816 130.798 177.831L180.763 227.856Z" fill="url(#paint2_linear_6_586)"/>
<path d="M180.763 227.856C181.922 229.018 183.298 229.939 184.814 230.567C186.329 231.196 187.952 231.519 189.592 231.519C191.232 231.519 192.856 231.196 194.371 230.567C195.886 229.939 197.263 229.018 198.422 227.856L224.953 201.294C227.293 198.95 228.608 195.771 228.608 192.456C228.608 189.142 227.293 185.963 224.953 183.619L174.982 133.594C173.968 132.578 172.763 131.772 171.438 131.223C170.112 130.673 168.692 130.39 167.257 130.39C165.822 130.39 164.402 130.673 163.076 131.223C161.751 131.772 160.546 132.578 159.532 133.594L130.798 162.362C129.784 163.378 128.979 164.584 128.43 165.911C127.881 167.238 127.598 168.66 127.598 170.097C127.598 171.533 127.881 172.956 128.43 174.283C128.979 175.61 129.784 176.816 130.798 177.831L180.763 227.856Z" fill="url(#paint3_linear_6_586)"/>
<path d="M180.763 227.856C181.922 229.018 183.298 229.939 184.814 230.567C186.329 231.196 187.952 231.519 189.592 231.519C191.232 231.519 192.856 231.196 194.371 230.567C195.886 229.939 197.263 229.018 198.422 227.856L224.953 201.294C227.293 198.95 228.608 195.771 228.608 192.456C228.608 189.142 227.293 185.963 224.953 183.619L174.982 133.594C173.968 132.578 172.763 131.772 171.438 131.223C170.112 130.673 168.692 130.39 167.257 130.39C165.822 130.39 164.402 130.673 163.076 131.223C161.751 131.772 160.546 132.578 159.532 133.594L130.798 162.362C129.784 163.378 128.979 164.584 128.43 165.911C127.881 167.238 127.598 168.66 127.598 170.097C127.598 171.533 127.881 172.956 128.43 174.283C128.979 175.61 129.784 176.816 130.798 177.831L180.763 227.856Z" fill="url(#paint4_linear_6_586)"/>
</g>
<path d="M55.6024 65.875C55.1096 66.3692 54.7964 67.0145 54.7126 67.7078C54.6289 68.4011 54.7795 69.1025 55.1405 69.7L69.6229 93.6375C69.8789 94.06 70.2314 94.4157 70.6513 94.6754C71.0713 94.935 71.5468 95.0913 72.0387 95.1313L79.9291 95.7875C81.4008 95.9113 82.781 96.5535 83.8244 97.6L139.657 153.494L150.675 142.463L94.5302 86.2438C93.4027 85.1167 92.7484 83.6007 92.7011 82.0063L92.4951 74.8313C92.4801 74.3078 92.3338 73.7965 92.0699 73.3444C91.8059 72.8922 91.4327 72.5138 90.9845 72.2438L66.9824 57.825C66.3861 57.4676 65.6878 57.3196 64.998 57.4045C64.3082 57.4894 63.6665 57.8023 63.1745 58.2938L55.6024 65.875Z" fill="url(#paint5_linear_6_586)"/>
<path d="M55.6024 65.875C55.1096 66.3692 54.7964 67.0145 54.7126 67.7078C54.6289 68.4011 54.7795 69.1025 55.1405 69.7L69.6229 93.6375C69.8789 94.06 70.2314 94.4157 70.6513 94.6754C71.0713 94.935 71.5468 95.0913 72.0387 95.1313L79.9291 95.7875C81.4008 95.9113 82.781 96.5535 83.8244 97.6L139.657 153.494L150.675 142.463L94.5302 86.2438C93.4027 85.1167 92.7484 83.6007 92.7011 82.0063L92.4951 74.8313C92.4801 74.3078 92.3338 73.7965 92.0699 73.3444C91.8059 72.8922 91.4327 72.5138 90.9845 72.2438L66.9824 57.825C66.3861 57.4676 65.6878 57.3196 64.998 57.4045C64.3082 57.4894 63.6665 57.8023 63.1745 58.2938L55.6024 65.875Z" fill="url(#paint6_linear_6_586)"/>
<path d="M55.6024 65.875C55.1096 66.3692 54.7964 67.0145 54.7126 67.7078C54.6289 68.4011 54.7795 69.1025 55.1405 69.7L69.6229 93.6375C69.8789 94.06 70.2314 94.4157 70.6513 94.6754C71.0713 94.935 71.5468 95.0913 72.0387 95.1313L79.9291 95.7875C81.4008 95.9113 82.781 96.5535 83.8244 97.6L139.657 153.494L150.675 142.463L94.5302 86.2438C93.4027 85.1167 92.7484 83.6007 92.7011 82.0063L92.4951 74.8313C92.4801 74.3078 92.3338 73.7965 92.0699 73.3444C91.8059 72.8922 91.4327 72.5138 90.9845 72.2438L66.9824 57.825C66.3861 57.4676 65.6878 57.3196 64.998 57.4045C64.3082 57.4894 63.6665 57.8023 63.1745 58.2938L55.6024 65.875Z" fill="url(#paint7_radial_6_586)"/>
<path d="M55.6024 65.875C55.1096 66.3692 54.7964 67.0145 54.7126 67.7078C54.6289 68.4011 54.7795 69.1025 55.1405 69.7L69.6229 93.6375C69.8789 94.06 70.2314 94.4157 70.6513 94.6754C71.0713 94.935 71.5468 95.0913 72.0387 95.1313L79.9291 95.7875C81.4008 95.9113 82.781 96.5535 83.8244 97.6L139.657 153.494L150.675 142.463L94.5302 86.2438C93.4027 85.1167 92.7484 83.6007 92.7011 82.0063L92.4951 74.8313C92.4801 74.3078 92.3338 73.7965 92.0699 73.3444C91.8059 72.8922 91.4327 72.5138 90.9845 72.2438L66.9824 57.825C66.3861 57.4676 65.6878 57.3196 64.998 57.4045C64.3082 57.4894 63.6665 57.8023 63.1745 58.2938L55.6024 65.875Z" fill="url(#paint8_radial_6_586)"/>
<g filter="url(#filter3_f_6_586)">
<path d="M166.861 149.113C165.816 148.066 164.121 148.065 163.076 149.111C162.032 150.157 162.033 151.853 163.079 152.9L206.332 196.206C207.378 197.253 209.072 197.254 210.117 196.208C211.162 195.163 211.161 193.466 210.115 192.419L166.861 149.113Z" fill="url(#paint9_linear_6_586)"/>
</g>
<g filter="url(#filter4_f_6_586)">
<path d="M150.876 163.979C148.299 161.399 144.121 161.399 141.544 163.979C138.968 166.559 138.968 170.741 141.544 173.321L186.616 218.448C189.193 221.028 193.371 221.028 195.948 218.448C198.525 215.868 198.525 211.685 195.948 209.105L150.876 163.979Z" fill="url(#paint10_linear_6_586)"/>
</g>
<g filter="url(#filter5_f_6_586)">
<path d="M149.066 166.044C147.557 164.533 145.112 164.532 143.604 166.042C142.096 167.551 142.097 170 143.606 171.511L188.422 216.381C189.931 217.892 192.377 217.893 193.885 216.383C195.392 214.874 195.391 212.425 193.882 210.914L149.066 166.044Z" fill="url(#paint11_linear_6_586)"/>
</g>
<g filter="url(#filter6_f_6_586)">
<path d="M142.408 174.572C141.499 173.662 141.498 172.187 142.406 171.277C143.314 170.368 144.787 170.369 145.697 171.28L188.654 214.289C189.564 215.2 189.565 216.675 188.657 217.584C187.748 218.493 186.275 218.492 185.366 217.582L142.408 174.572Z" fill="url(#paint12_linear_6_586)"/>
</g>
<path d="M147.061 119.122L116.339 149.881C112.621 153.603 112.62 159.637 116.337 163.358C120.053 167.079 126.08 167.078 129.797 163.356L160.519 132.597C164.237 128.874 164.238 122.841 160.521 119.12C156.805 115.399 150.778 115.4 147.061 119.122Z" fill="url(#paint13_radial_6_586)"/>
<path d="M147.061 119.122L116.339 149.881C112.621 153.603 112.62 159.637 116.337 163.358C120.053 167.079 126.08 167.078 129.797 163.356L160.519 132.597C164.237 128.874 164.238 122.841 160.521 119.12C156.805 115.399 150.778 115.4 147.061 119.122Z" fill="url(#paint14_linear_6_586)"/>
<path d="M147.061 119.122L116.339 149.881C112.621 153.603 112.62 159.637 116.337 163.358C120.053 167.079 126.08 167.078 129.797 163.356L160.519 132.597C164.237 128.874 164.238 122.841 160.521 119.12C156.805 115.399 150.778 115.4 147.061 119.122Z" fill="url(#paint15_linear_6_586)"/>
<path d="M147.061 119.122L116.339 149.881C112.621 153.603 112.62 159.637 116.337 163.358C120.053 167.079 126.08 167.078 129.797 163.356L160.519 132.597C164.237 128.874 164.238 122.841 160.521 119.12C156.805 115.399 150.778 115.4 147.061 119.122Z" fill="url(#paint16_radial_6_586)"/>
<g filter="url(#filter7_d_6_586)">
<path d="M61.9884 195.687C62.5502 197.825 65.1783 198.344 66.7389 196.781L81.8705 181.631C82.7484 180.753 83.9383 180.26 85.179 180.26C86.4197 180.26 87.6097 180.753 88.4875 181.631L98.1633 191.319C99.04 192.198 99.5325 193.389 99.5325 194.631C99.5325 195.873 99.04 197.065 98.1633 197.944L82.9692 213.144C81.4086 214.706 81.9205 217.331 84.0492 217.906C88.6842 219.153 93.5436 219.316 98.2516 218.382C102.96 217.449 107.39 215.444 111.201 212.522C115.011 209.601 118.099 205.841 120.227 201.533C122.354 197.226 123.464 192.487 123.47 187.681C123.47 185.029 123.135 182.387 122.471 179.819C122.284 179.141 122.276 178.426 122.449 177.744C122.622 177.062 122.97 176.437 123.458 175.931L177.068 122.25C178.073 121.25 179.552 120.913 180.925 121.263C186.202 122.598 191.735 122.53 196.978 121.068C202.22 119.605 206.991 116.797 210.817 112.922C214.643 109.047 217.393 104.239 218.794 98.9731C220.195 93.7077 220.198 88.1673 218.804 82.9C218.243 80.7625 215.608 80.2437 214.048 81.8062L198.922 96.9563C198.044 97.8341 196.854 98.3271 195.614 98.3271C194.373 98.3271 193.183 97.8341 192.305 96.9563L182.63 87.275C181.753 86.3961 181.26 85.2047 181.26 83.9625C181.26 82.7203 181.753 81.5289 182.63 80.65L197.817 65.4437C199.378 63.8812 198.86 61.2563 196.737 60.6813C191.458 59.2497 185.897 59.2297 180.608 60.6233C175.319 62.0169 170.487 64.7754 166.596 68.6232C162.705 72.471 159.89 77.2736 158.433 82.5513C156.975 87.8291 156.926 93.3973 158.29 98.7C158.477 99.3765 158.485 100.09 158.314 100.771C158.142 101.451 157.796 102.075 157.31 102.581L103.638 156.319C103.137 156.802 102.519 157.147 101.846 157.322C101.172 157.496 100.465 157.493 99.7925 157.313C94.5193 155.991 88.9931 156.069 83.7592 157.539C78.5254 159.009 73.7648 161.82 69.9473 165.695C66.1298 169.569 63.3874 174.373 61.9905 179.633C60.5937 184.893 60.5971 190.426 61.9884 195.687Z" fill="url(#paint17_linear_6_586)"/>
<path d="M61.9884 195.687C62.5502 197.825 65.1783 198.344 66.7389 196.781L81.8705 181.631C82.7484 180.753 83.9383 180.26 85.179 180.26C86.4197 180.26 87.6097 180.753 88.4875 181.631L98.1633 191.319C99.04 192.198 99.5325 193.389 99.5325 194.631C99.5325 195.873 99.04 197.065 98.1633 197.944L82.9692 213.144C81.4086 214.706 81.9205 217.331 84.0492 217.906C88.6842 219.153 93.5436 219.316 98.2516 218.382C102.96 217.449 107.39 215.444 111.201 212.522C115.011 209.601 118.099 205.841 120.227 201.533C122.354 197.226 123.464 192.487 123.47 187.681C123.47 185.029 123.135 182.387 122.471 179.819C122.284 179.141 122.276 178.426 122.449 177.744C122.622 177.062 122.97 176.437 123.458 175.931L177.068 122.25C178.073 121.25 179.552 120.913 180.925 121.263C186.202 122.598 191.735 122.53 196.978 121.068C202.22 119.605 206.991 116.797 210.817 112.922C214.643 109.047 217.393 104.239 218.794 98.9731C220.195 93.7077 220.198 88.1673 218.804 82.9C218.243 80.7625 215.608 80.2437 214.048 81.8062L198.922 96.9563C198.044 97.8341 196.854 98.3271 195.614 98.3271C194.373 98.3271 193.183 97.8341 192.305 96.9563L182.63 87.275C181.753 86.3961 181.26 85.2047 181.26 83.9625C181.26 82.7203 181.753 81.5289 182.63 80.65L197.817 65.4437C199.378 63.8812 198.86 61.2563 196.737 60.6813C191.458 59.2497 185.897 59.2297 180.608 60.6233C175.319 62.0169 170.487 64.7754 166.596 68.6232C162.705 72.471 159.89 77.2736 158.433 82.5513C156.975 87.8291 156.926 93.3973 158.29 98.7C158.477 99.3765 158.485 100.09 158.314 100.771C158.142 101.451 157.796 102.075 157.31 102.581L103.638 156.319C103.137 156.802 102.519 157.147 101.846 157.322C101.172 157.496 100.465 157.493 99.7925 157.313C94.5193 155.991 88.9931 156.069 83.7592 157.539C78.5254 159.009 73.7648 161.82 69.9473 165.695C66.1298 169.569 63.3874 174.373 61.9905 179.633C60.5937 184.893 60.5971 190.426 61.9884 195.687Z" fill="url(#paint18_radial_6_586)"/>
</g>
<g filter="url(#filter8_f_6_586)">
<path d="M102.702 158.6C101.813 159.11 100.759 159.251 99.7676 158.994C95.4135 157.903 90.8684 157.821 86.4777 158.753C82.087 159.685 77.9662 161.606 74.4287 164.372C70.8912 167.138 68.03 170.675 66.0626 174.714C64.0951 178.753 63.0732 183.188 63.0746 187.681C63.0746 189.181 61.7699 198.244 66.639 193.369L82.4448 179.113C82.8553 178.701 83.3428 178.374 83.8795 178.152C84.4161 177.929 84.9914 177.814 85.5723 177.814C86.1532 177.814 86.7285 177.929 87.2651 178.152C87.8018 178.374 88.2893 178.701 88.6998 179.113L100.779 191.125C101.608 191.956 102.073 193.082 102.073 194.256C102.073 195.43 101.608 196.557 100.779 197.388L85.4662 212.9C83.993 214.375 82.8881 215.694 84.8919 216.231C89.2704 217.409 93.8608 217.563 98.3082 216.681C102.756 215.799 106.941 213.905 110.541 211.146C114.14 208.386 117.058 204.835 119.068 200.766C121.079 196.698 122.128 192.221 122.134 187.681C122.134 185.119 121.81 182.625 121.198 180.25C120.978 179.418 121.032 178.536 121.354 177.737L102.702 158.6Z" fill="url(#paint19_radial_6_586)"/>
<path d="M102.702 158.6C101.813 159.11 100.759 159.251 99.7676 158.994C95.4135 157.903 90.8684 157.821 86.4777 158.753C82.087 159.685 77.9662 161.606 74.4287 164.372C70.8912 167.138 68.03 170.675 66.0626 174.714C64.0951 178.753 63.0732 183.188 63.0746 187.681C63.0746 189.181 61.7699 198.244 66.639 193.369L82.4448 179.113C82.8553 178.701 83.3428 178.374 83.8795 178.152C84.4161 177.929 84.9914 177.814 85.5723 177.814C86.1532 177.814 86.7285 177.929 87.2651 178.152C87.8018 178.374 88.2893 178.701 88.6998 179.113L100.779 191.125C101.608 191.956 102.073 193.082 102.073 194.256C102.073 195.43 101.608 196.557 100.779 197.388L85.4662 212.9C83.993 214.375 82.8881 215.694 84.8919 216.231C89.2704 217.409 93.8608 217.563 98.3082 216.681C102.756 215.799 106.941 213.905 110.541 211.146C114.14 208.386 117.058 204.835 119.068 200.766C121.079 196.698 122.128 192.221 122.134 187.681C122.134 185.119 121.81 182.625 121.198 180.25C120.978 179.418 121.032 178.536 121.354 177.737L102.702 158.6Z" fill="url(#paint20_linear_6_586)"/>
<path d="M102.702 158.6C101.813 159.11 100.759 159.251 99.7676 158.994C95.4135 157.903 90.8684 157.821 86.4777 158.753C82.087 159.685 77.9662 161.606 74.4287 164.372C70.8912 167.138 68.03 170.675 66.0626 174.714C64.0951 178.753 63.0732 183.188 63.0746 187.681C63.0746 189.181 61.7699 198.244 66.639 193.369L82.4448 179.113C82.8553 178.701 83.3428 178.374 83.8795 178.152C84.4161 177.929 84.9914 177.814 85.5723 177.814C86.1532 177.814 86.7285 177.929 87.2651 178.152C87.8018 178.374 88.2893 178.701 88.6998 179.113L100.779 191.125C101.608 191.956 102.073 193.082 102.073 194.256C102.073 195.43 101.608 196.557 100.779 197.388L85.4662 212.9C83.993 214.375 82.8881 215.694 84.8919 216.231C89.2704 217.409 93.8608 217.563 98.3082 216.681C102.756 215.799 106.941 213.905 110.541 211.146C114.14 208.386 117.058 204.835 119.068 200.766C121.079 196.698 122.128 192.221 122.134 187.681C122.134 185.119 121.81 182.625 121.198 180.25C120.978 179.418 121.032 178.536 121.354 177.737L102.702 158.6Z" fill="url(#paint21_radial_6_586)"/>
</g>
<g filter="url(#filter9_f_6_586)">
<path d="M178.01 119.919C178.899 119.409 179.952 119.267 180.944 119.525C185.298 120.616 189.843 120.698 194.234 119.766C198.625 118.834 202.745 116.912 206.283 114.147C209.82 111.381 212.682 107.844 214.649 103.805C216.616 99.7661 217.638 95.3312 217.637 90.8375C217.637 89.3375 217.912 80.1938 213.043 85.0688L198.267 99.4063C197.856 99.8178 197.369 100.144 196.832 100.367C196.295 100.59 195.72 100.705 195.139 100.705C194.558 100.705 193.983 100.59 193.446 100.367C192.91 100.144 192.422 99.8178 192.012 99.4063L179.933 87.3938C179.104 86.5629 178.639 85.4367 178.639 84.2625C178.639 83.0883 179.104 81.9621 179.933 81.1313L195.245 65.625C196.712 64.15 197.824 62.8313 195.813 62.2875C190.823 60.9465 185.568 60.9384 180.573 62.2639C175.578 63.5895 171.017 66.2025 167.345 69.8425C163.672 73.4825 161.017 78.0225 159.643 83.0101C158.269 87.9976 158.224 93.2586 159.514 98.2688C159.735 99.1031 159.681 99.987 159.358 100.788L178.01 119.919Z" fill="url(#paint22_linear_6_586)"/>
<path d="M178.01 119.919C178.899 119.409 179.952 119.267 180.944 119.525C185.298 120.616 189.843 120.698 194.234 119.766C198.625 118.834 202.745 116.912 206.283 114.147C209.82 111.381 212.682 107.844 214.649 103.805C216.616 99.7661 217.638 95.3312 217.637 90.8375C217.637 89.3375 217.912 80.1938 213.043 85.0688L198.267 99.4063C197.856 99.8178 197.369 100.144 196.832 100.367C196.295 100.59 195.72 100.705 195.139 100.705C194.558 100.705 193.983 100.59 193.446 100.367C192.91 100.144 192.422 99.8178 192.012 99.4063L179.933 87.3938C179.104 86.5629 178.639 85.4367 178.639 84.2625C178.639 83.0883 179.104 81.9621 179.933 81.1313L195.245 65.625C196.712 64.15 197.824 62.8313 195.813 62.2875C190.823 60.9465 185.568 60.9384 180.573 62.2639C175.578 63.5895 171.017 66.2025 167.345 69.8425C163.672 73.4825 161.017 78.0225 159.643 83.0101C158.269 87.9976 158.224 93.2586 159.514 98.2688C159.735 99.1031 159.681 99.987 159.358 100.788L178.01 119.919Z" fill="url(#paint23_radial_6_586)"/>
</g>
<g filter="url(#filter10_f_6_586)">
<path d="M110.267 168.006L168.696 110.731L175.975 118.175L117.546 175.45L110.267 168.006Z" fill="#CCBCE1"/>
</g>
<g filter="url(#filter11_f_6_586)">
<path d="M109.475 164.819L165.531 109.875L160.806 105.05L104.755 159.987L109.475 164.819Z" fill="#E6E2F1"/>
</g>
<g filter="url(#filter12_f_6_586)">
<path d="M119.606 177.062L104.387 160.85" stroke="#CBBAE2" stroke-width="0.25"/>
</g>
<defs>
<filter id="filter0_dd_6_586" x="53.6901" y="56.3811" width="97.9845" height="98.1127" filterUnits="userSpaceOnUse" color-interpolation-filters="sRGB">
<feFlood flood-opacity="0" result="BackgroundImageFix"/>
<feColorMatrix in="SourceAlpha" type="matrix" values="0 0 0 0 0 0 0 0 0 0 0 0 0 0 0 0 0 0 127 0" result="hardAlpha"/>
<feOffset dx="0.5" dy="-0.5"/>
<feGaussianBlur stdDeviation="0.25"/>
<feComposite in2="hardAlpha" operator="out"/>
<feColorMatrix type="matrix" values="0 0 0 0 0.615686 0 0 0 0 0.572549 0 0 0 0 0.631373 0 0 0 1 0"/>
<feBlend mode="normal" in2="BackgroundImageFix" result="effect1_dropShadow_6_586"/>
<feColorMatrix in="SourceAlpha" type="matrix" values="0 0 0 0 0 0 0 0 0 0 0 0 0 0 0 0 0 0 127 0" result="hardAlpha"/>
<feOffset dx="-0.5" dy="0.5"/>
<feGaussianBlur stdDeviation="0.25"/>
<feComposite in2="hardAlpha" operator="out"/>
<feColorMatrix type="matrix" values="0 0 0 0 0.85098 0 0 0 0 0.843137 0 0 0 0 0.858824 0 0 0 1 0"/>
<feBlend mode="normal" in2="effect1_dropShadow_6_586" result="effect2_dropShadow_6_586"/>
<feBlend mode="normal" in="SourceGraphic" in2="effect2_dropShadow_6_586" result="shape"/>
</filter>
<filter id="filter1_f_6_586" x="156.991" y="141.587" width="62.305" height="62.3849" filterUnits="userSpaceOnUse" color-interpolation-filters="sRGB">
<feFlood flood-opacity="0" result="BackgroundImageFix"/>
<feBlend mode="normal" in="SourceGraphic" in2="BackgroundImageFix" result="shape"/>
<feGaussianBlur stdDeviation="0.325" result="effect1_foregroundBlur_6_586"/>
</filter>
<filter id="filter2_d_6_586" x="126.598" y="128.89" width="103.01" height="103.129" filterUnits="userSpaceOnUse" color-interpolation-filters="sRGB">
<feFlood flood-opacity="0" result="BackgroundImageFix"/>
<feColorMatrix in="SourceAlpha" type="matrix" values="0 0 0 0 0 0 0 0 0 0 0 0 0 0 0 0 0 0 127 0" result="hardAlpha"/>
<feOffset dy="-0.5"/>
<feGaussianBlur stdDeviation="0.5"/>
<feComposite in2="hardAlpha" operator="out"/>
<feColorMatrix type="matrix" values="0 0 0 0 0.835294 0 0 0 0 0.317647 0 0 0 0 0.572549 0 0 0 1 0"/>
<feBlend mode="normal" in2="BackgroundImageFix" result="effect1_dropShadow_6_586"/>
<feBlend mode="normal" in="SourceGraphic" in2="effect1_dropShadow_6_586" result="shape"/>
</filter>
<filter id="filter3_f_6_586" x="161.694" y="147.727" width="49.8062" height="49.8652" filterUnits="userSpaceOnUse" color-interpolation-filters="sRGB">
<feFlood flood-opacity="0" result="BackgroundImageFix"/>
<feBlend mode="normal" in="SourceGraphic" in2="BackgroundImageFix" result="shape"/>
<feGaussianBlur stdDeviation="0.3" result="effect1_foregroundBlur_6_586"/>
</filter>
<filter id="filter4_f_6_586" x="138.962" y="161.394" width="59.5686" height="59.6392" filterUnits="userSpaceOnUse" color-interpolation-filters="sRGB">
<feFlood flood-opacity="0" result="BackgroundImageFix"/>
<feBlend mode="normal" in="SourceGraphic" in2="BackgroundImageFix" result="shape"/>
<feGaussianBlur stdDeviation="0.325" result="effect1_foregroundBlur_6_586"/>
</filter>
<filter id="filter5_f_6_586" x="141.974" y="164.41" width="53.541" height="53.6047" filterUnits="userSpaceOnUse" color-interpolation-filters="sRGB">
<feFlood flood-opacity="0" result="BackgroundImageFix"/>
<feBlend mode="normal" in="SourceGraphic" in2="BackgroundImageFix" result="shape"/>
<feGaussianBlur stdDeviation="0.25" result="effect1_foregroundBlur_6_586"/>
</filter>
<filter id="filter6_f_6_586" x="141.226" y="170.096" width="48.6115" height="48.6692" filterUnits="userSpaceOnUse" color-interpolation-filters="sRGB">
<feFlood flood-opacity="0" result="BackgroundImageFix"/>
<feBlend mode="normal" in="SourceGraphic" in2="BackgroundImageFix" result="shape"/>
<feGaussianBlur stdDeviation="0.25" result="effect1_foregroundBlur_6_586"/>
</filter>
<filter id="filter7_d_6_586" x="60.544" y="58.9926" width="160.103" height="160.587" filterUnits="userSpaceOnUse" color-interpolation-filters="sRGB">
<feFlood flood-opacity="0" result="BackgroundImageFix"/>
<feColorMatrix in="SourceAlpha" type="matrix" values="0 0 0 0 0 0 0 0 0 0 0 0 0 0 0 0 0 0 127 0" result="hardAlpha"/>
<feOffset dx="0.2"/>
<feGaussianBlur stdDeviation="0.3"/>
<feComposite in2="hardAlpha" operator="out"/>
<feColorMatrix type="matrix" values="0 0 0 0 0.701961 0 0 0 0 0.686275 0 0 0 0 0.733333 0 0 0 1 0"/>
<feBlend mode="normal" in2="BackgroundImageFix" result="effect1_dropShadow_6_586"/>
<feBlend mode="normal" in="SourceGraphic" in2="effect1_dropShadow_6_586" result="shape"/>
</filter>
<filter id="filter8_f_6_586" x="62.4158" y="157.61" width="60.2184" height="60.1353" filterUnits="userSpaceOnUse" color-interpolation-filters="sRGB">
<feFlood flood-opacity="0" result="BackgroundImageFix"/>
<feBlend mode="normal" in="SourceGraphic" in2="BackgroundImageFix" result="shape"/>
<feGaussianBlur stdDeviation="0.25" result="effect1_foregroundBlur_6_586"/>
</filter>
<filter id="filter9_f_6_586" x="158.079" y="60.7757" width="60.0612" height="60.1332" filterUnits="userSpaceOnUse" color-interpolation-filters="sRGB">
<feFlood flood-opacity="0" result="BackgroundImageFix"/>
<feBlend mode="normal" in="SourceGraphic" in2="BackgroundImageFix" result="shape"/>
<feGaussianBlur stdDeviation="0.25" result="effect1_foregroundBlur_6_586"/>
</filter>
<filter id="filter10_f_6_586" x="108.767" y="109.231" width="68.7078" height="67.7188" filterUnits="userSpaceOnUse" color-interpolation-filters="sRGB">
<feFlood flood-opacity="0" result="BackgroundImageFix"/>
<feBlend mode="normal" in="SourceGraphic" in2="BackgroundImageFix" result="shape"/>
<feGaussianBlur stdDeviation="0.75" result="effect1_foregroundBlur_6_586"/>
</filter>
<filter id="filter11_f_6_586" x="103.255" y="103.55" width="63.7762" height="62.7687" filterUnits="userSpaceOnUse" color-interpolation-filters="sRGB">
<feFlood flood-opacity="0" result="BackgroundImageFix"/>
<feBlend mode="normal" in="SourceGraphic" in2="BackgroundImageFix" result="shape"/>
<feGaussianBlur stdDeviation="0.75" result="effect1_foregroundBlur_6_586"/>
</filter>
<filter id="filter12_f_6_586" x="103.796" y="160.264" width="16.4014" height="17.3836" filterUnits="userSpaceOnUse" color-interpolation-filters="sRGB">
<feFlood flood-opacity="0" result="BackgroundImageFix"/>
<feBlend mode="normal" in="SourceGraphic" in2="BackgroundImageFix" result="shape"/>
<feGaussianBlur stdDeviation="0.25" result="effect1_foregroundBlur_6_586"/>
</filter>
<linearGradient id="paint0_linear_6_586" x1="165.457" y1="150.069" x2="210.882" y2="195.439" gradientUnits="userSpaceOnUse">
<stop stop-color="#FF399D"/>
<stop offset="1" stop-color="#FF335A"/>
</linearGradient>
<linearGradient id="paint1_linear_6_586" x1="161.043" y1="145.65" x2="215.312" y2="199.847" gradientUnits="userSpaceOnUse">
<stop stop-color="#FF66B1"/>
<stop offset="1" stop-color="#FF667D"/>
</linearGradient>
<linearGradient id="paint2_linear_6_586" x1="149.944" y1="158.625" x2="211.275" y2="220.269" gradientUnits="userSpaceOnUse">
<stop stop-color="#FF509E"/>
<stop offset="1" stop-color="#FF426F"/>
</linearGradient>
<linearGradient id="paint3_linear_6_586" x1="135.605" y1="180.956" x2="199.05" y2="164.849" gradientUnits="userSpaceOnUse">
<stop stop-color="#DE2E8A"/>
<stop offset="1" stop-color="#DE2E8A" stop-opacity="0"/>
</linearGradient>
<linearGradient id="paint4_linear_6_586" x1="143.264" y1="146.331" x2="151.133" y2="154.184" gradientUnits="userSpaceOnUse">
<stop offset="0.185" stop-color="#E1045D"/>
<stop offset="1" stop-color="#ED2786" stop-opacity="0"/>
</linearGradient>
<linearGradient id="paint5_linear_6_586" x1="59.6288" y1="61.7438" x2="64.2162" y2="66.232" gradientUnits="userSpaceOnUse">
<stop offset="0.024" stop-color="#A4A09D"/>
<stop offset="1" stop-color="#A4A09D" stop-opacity="0"/>
</linearGradient>
<linearGradient id="paint6_linear_6_586" x1="135.705" y1="141.825" x2="123.693" y2="129.827" gradientUnits="userSpaceOnUse">
<stop offset="0.358" stop-color="#7C7073"/>
<stop offset="1" stop-color="#BAB4BF" stop-opacity="0"/>
</linearGradient>
<radialGradient id="paint7_radial_6_586" cx="0" cy="0" r="1" gradientUnits="userSpaceOnUse" gradientTransform="translate(75.4284 99.05) rotate(8.04534) scale(16.7463 9.69453)">
<stop offset="0.262" stop-color="#9573AD"/>
<stop offset="1" stop-color="#A095A4" stop-opacity="0"/>
</radialGradient>
<radialGradient id="paint8_radial_6_586" cx="0" cy="0" r="1" gradientUnits="userSpaceOnUse" gradientTransform="translate(102.681 116.237) rotate(44.2747) scale(34.133 2.52501)">
<stop stop-color="#9B819F"/>
<stop offset="1" stop-color="#9B819F" stop-opacity="0"/>
</radialGradient>
<linearGradient id="paint9_linear_6_586" x1="163.079" y1="149.109" x2="210.176" y2="196.149" gradientUnits="userSpaceOnUse">
<stop stop-color="#FF65A8"/>
<stop offset="1" stop-color="#FF5F7E"/>
</linearGradient>
<linearGradient id="paint10_linear_6_586" x1="141.544" y1="163.979" x2="196.014" y2="218.382" gradientUnits="userSpaceOnUse">
<stop stop-color="#EE2391"/>
<stop offset="1" stop-color="#ED2E59"/>
</linearGradient>
<linearGradient id="paint11_linear_6_586" x1="143.606" y1="166.039" x2="193.948" y2="216.32" gradientUnits="userSpaceOnUse">
<stop stop-color="#F0278F"/>
<stop offset="1" stop-color="#EB2B63"/>
</linearGradient>
<linearGradient id="paint12_linear_6_586" x1="142.404" y1="171.28" x2="188.71" y2="217.53" gradientUnits="userSpaceOnUse">
<stop stop-color="#FB4092"/>
<stop offset="1" stop-color="#FD4574"/>
</linearGradient>
<radialGradient id="paint13_radial_6_586" cx="0" cy="0" r="1" gradientUnits="userSpaceOnUse" gradientTransform="translate(127.701 163.307) rotate(-44.8811) scale(51.4826 28.8486)">
<stop stop-color="#D2299A"/>
<stop offset="1" stop-color="#FF4F64"/>
</radialGradient>
<linearGradient id="paint14_linear_6_586" x1="153.258" y1="141.237" x2="150.916" y2="138.897" gradientUnits="userSpaceOnUse">
<stop stop-color="#AF0241"/>
<stop offset="1" stop-color="#DE1A88" stop-opacity="0"/>
</linearGradient>
<linearGradient id="paint15_linear_6_586" x1="130.433" y1="133.039" x2="136.585" y2="139.183" gradientUnits="userSpaceOnUse">
<stop stop-color="#C25067"/>
<stop offset="1" stop-color="#EA2C6B" stop-opacity="0"/>
</linearGradient>
<radialGradient id="paint16_radial_6_586" cx="0" cy="0" r="1" gradientUnits="userSpaceOnUse" gradientTransform="translate(151.695 129.516) rotate(134.965) scale(27.3286 5.24488)">
<stop offset="0.142" stop-color="#FF678B"/>
<stop offset="1" stop-color="#FF678B" stop-opacity="0"/>
</radialGradient>
<linearGradient id="paint17_linear_6_586" x1="182.099" y1="156.275" x2="143.187" y2="118.222" gradientUnits="userSpaceOnUse">
<stop stop-color="#BAB6C1"/>
<stop offset="1" stop-color="#E0DBE7"/>
</linearGradient>
<radialGradient id="paint18_radial_6_586" cx="0" cy="0" r="1" gradientUnits="userSpaceOnUse" gradientTransform="translate(149.451 147.762) rotate(-138.088) scale(7.60205 61.8009)">
<stop stop-color="#C6B7DB"/>
<stop offset="1" stop-color="#C6B7DB" stop-opacity="0"/>
</radialGradient>
<radialGradient id="paint19_radial_6_586" cx="0" cy="0" r="1" gradientUnits="userSpaceOnUse" gradientTransform="translate(116.555 187.682) rotate(175.245) scale(36.9845 54.3725)">
<stop stop-color="#D5C6EB"/>
<stop offset="1" stop-color="#D5C6EB" stop-opacity="0"/>
</radialGradient>
<linearGradient id="paint20_linear_6_586" x1="90.9283" y1="221.788" x2="89.9521" y2="202.844" gradientUnits="userSpaceOnUse">
<stop stop-color="#A8A6B0"/>
<stop offset="1" stop-color="#A8A6B0" stop-opacity="0"/>
</linearGradient>
<radialGradient id="paint21_radial_6_586" cx="0" cy="0" r="1" gradientUnits="userSpaceOnUse" gradientTransform="translate(70.0536 160.85) rotate(48.3045) scale(19.3561 30.0149)">
<stop offset="0.202" stop-color="#E4E1EB"/>
<stop offset="1" stop-color="#E4E1EB" stop-opacity="0"/>
</radialGradient>
<linearGradient id="paint22_linear_6_586" x1="169.445" y1="115.831" x2="191.906" y2="94.9584" gradientUnits="userSpaceOnUse">
<stop stop-color="#B8B0C5"/>
<stop offset="1" stop-color="#B8B0C5" stop-opacity="0"/>
</linearGradient>
<radialGradient id="paint23_radial_6_586" cx="0" cy="0" r="1" gradientUnits="userSpaceOnUse" gradientTransform="translate(202.318 84.4813) rotate(94.8932) scale(27.4438 26.8945)">
<stop offset="0.26" stop-color="#CEBDE5"/>
<stop offset="1" stop-color="#CEBDE5" stop-opacity="0"/>
</radialGradient>
</defs>
</svg>
