<svg width="120" height="134" viewBox="0 0 120 134" fill="none" xmlns="http://www.w3.org/2000/svg">
<path d="M106.667 13.6667H78.8C77.4349 9.76958 74.8925 6.39303 71.5245 4.00411C68.1564 1.61519 64.1292 0.33197 60 0.33197C55.8708 0.33197 51.8436 1.61519 48.4755 4.00411C45.1075 6.39303 42.5651 9.76958 41.2 13.6667H13.3333C9.80036 13.6772 6.4151 15.0854 3.9169 17.5836C1.4187 20.0818 0.0105515 23.467 0 27V120.333C0.0105515 123.866 1.4187 127.252 3.9169 129.75C6.4151 132.248 9.80036 133.656 13.3333 133.667H106.667C110.2 133.656 113.585 132.248 116.083 129.75C118.581 127.252 119.989 123.866 120 120.333V27C119.989 23.467 118.581 20.0818 116.083 17.5836C113.585 15.0854 110.2 13.6772 106.667 13.6667ZM60 13.6667C61.3185 13.6667 62.6075 14.0576 63.7038 14.7902C64.8001 15.5227 65.6546 16.5639 66.1592 17.7821C66.6638 19.0003 66.7958 20.3407 66.5386 21.6339C66.2813 22.9271 65.6464 24.115 64.714 25.0474C63.7817 25.9797 62.5938 26.6147 61.3006 26.8719C60.0074 27.1291 58.6669 26.9971 57.4488 26.4925C56.2306 25.9879 55.1894 25.1334 54.4569 24.0371C53.7243 22.9408 53.3333 21.6519 53.3333 20.3333C53.3386 18.5668 54.0427 16.8742 55.2918 15.6251C56.5409 14.376 58.2335 13.6719 60 13.6667ZM46.6667 47L65.2667 65.6267L82.0667 48.8267L73.3333 40.3333H100V67L91.4933 58.26L65.28 84.4933L46.6667 65.8667L29.4267 83.0933L20 73.6667L46.6667 47ZM106.667 113.667H13.3333V100.333H106.667V113.667Z" fill="white"/>
</svg>
